G04 (created by PCBNEW (2013-07-07 BZR 4022)-stable) date Mon 19 Oct 2020 04:14:25 AM CDT*
%MOIN*%
G04 Gerber Fmt 3.4, Leading zero omitted, Abs format*
%FSLAX34Y34*%
G01*
G70*
G90*
G04 APERTURE LIST*
%ADD10C,0.00590551*%
%ADD11C,0.008*%
G04 APERTURE END LIST*
G54D10*
G54D11*
X28395Y-64864D02*
X28719Y-64864D01*
X28757Y-64845D01*
X28776Y-64826D01*
X28795Y-64788D01*
X28795Y-64730D01*
X28776Y-64692D01*
X28642Y-64864D02*
X28661Y-64826D01*
X28661Y-64750D01*
X28642Y-64711D01*
X28623Y-64692D01*
X28585Y-64673D01*
X28471Y-64673D01*
X28433Y-64692D01*
X28414Y-64711D01*
X28395Y-64750D01*
X28395Y-64826D01*
X28414Y-64864D01*
X28661Y-65054D02*
X28395Y-65054D01*
X28261Y-65054D02*
X28280Y-65035D01*
X28300Y-65054D01*
X28280Y-65073D01*
X28261Y-65054D01*
X28300Y-65054D01*
X28395Y-65188D02*
X28395Y-65340D01*
X28261Y-65245D02*
X28604Y-65245D01*
X28642Y-65264D01*
X28661Y-65302D01*
X28661Y-65340D01*
X28661Y-65473D02*
X28261Y-65473D01*
X28661Y-65645D02*
X28452Y-65645D01*
X28414Y-65626D01*
X28395Y-65588D01*
X28395Y-65530D01*
X28414Y-65492D01*
X28433Y-65473D01*
X28395Y-66007D02*
X28661Y-66007D01*
X28395Y-65835D02*
X28604Y-65835D01*
X28642Y-65854D01*
X28661Y-65892D01*
X28661Y-65950D01*
X28642Y-65988D01*
X28623Y-66007D01*
X28661Y-66197D02*
X28261Y-66197D01*
X28414Y-66197D02*
X28395Y-66235D01*
X28395Y-66311D01*
X28414Y-66350D01*
X28433Y-66369D01*
X28471Y-66388D01*
X28585Y-66388D01*
X28623Y-66369D01*
X28642Y-66350D01*
X28661Y-66311D01*
X28661Y-66235D01*
X28642Y-66197D01*
X28623Y-66559D02*
X28642Y-66578D01*
X28661Y-66559D01*
X28642Y-66540D01*
X28623Y-66559D01*
X28661Y-66559D01*
X28642Y-66921D02*
X28661Y-66883D01*
X28661Y-66807D01*
X28642Y-66769D01*
X28623Y-66750D01*
X28585Y-66730D01*
X28471Y-66730D01*
X28433Y-66750D01*
X28414Y-66769D01*
X28395Y-66807D01*
X28395Y-66883D01*
X28414Y-66921D01*
X28661Y-67150D02*
X28642Y-67111D01*
X28623Y-67092D01*
X28585Y-67073D01*
X28471Y-67073D01*
X28433Y-67092D01*
X28414Y-67111D01*
X28395Y-67150D01*
X28395Y-67207D01*
X28414Y-67245D01*
X28433Y-67264D01*
X28471Y-67283D01*
X28585Y-67283D01*
X28623Y-67264D01*
X28642Y-67245D01*
X28661Y-67207D01*
X28661Y-67150D01*
X28661Y-67454D02*
X28395Y-67454D01*
X28433Y-67454D02*
X28414Y-67473D01*
X28395Y-67511D01*
X28395Y-67569D01*
X28414Y-67607D01*
X28452Y-67626D01*
X28661Y-67626D01*
X28452Y-67626D02*
X28414Y-67645D01*
X28395Y-67683D01*
X28395Y-67740D01*
X28414Y-67778D01*
X28452Y-67797D01*
X28661Y-67797D01*
X28242Y-68273D02*
X28757Y-67930D01*
X28395Y-68407D02*
X28795Y-68407D01*
X28414Y-68407D02*
X28395Y-68445D01*
X28395Y-68521D01*
X28414Y-68559D01*
X28433Y-68578D01*
X28471Y-68597D01*
X28585Y-68597D01*
X28623Y-68578D01*
X28642Y-68559D01*
X28661Y-68521D01*
X28661Y-68445D01*
X28642Y-68407D01*
X28642Y-68921D02*
X28661Y-68883D01*
X28661Y-68807D01*
X28642Y-68769D01*
X28604Y-68750D01*
X28452Y-68750D01*
X28414Y-68769D01*
X28395Y-68807D01*
X28395Y-68883D01*
X28414Y-68921D01*
X28452Y-68940D01*
X28490Y-68940D01*
X28528Y-68750D01*
X28395Y-69111D02*
X28795Y-69111D01*
X28414Y-69111D02*
X28395Y-69150D01*
X28395Y-69226D01*
X28414Y-69264D01*
X28433Y-69283D01*
X28471Y-69302D01*
X28585Y-69302D01*
X28623Y-69283D01*
X28642Y-69264D01*
X28661Y-69226D01*
X28661Y-69150D01*
X28642Y-69111D01*
X28661Y-69645D02*
X28452Y-69645D01*
X28414Y-69626D01*
X28395Y-69588D01*
X28395Y-69511D01*
X28414Y-69473D01*
X28642Y-69645D02*
X28661Y-69607D01*
X28661Y-69511D01*
X28642Y-69473D01*
X28604Y-69454D01*
X28566Y-69454D01*
X28528Y-69473D01*
X28509Y-69511D01*
X28509Y-69607D01*
X28490Y-69645D01*
X28642Y-69816D02*
X28661Y-69854D01*
X28661Y-69930D01*
X28642Y-69969D01*
X28604Y-69988D01*
X28585Y-69988D01*
X28547Y-69969D01*
X28528Y-69930D01*
X28528Y-69873D01*
X28509Y-69835D01*
X28471Y-69816D01*
X28452Y-69816D01*
X28414Y-69835D01*
X28395Y-69873D01*
X28395Y-69930D01*
X28414Y-69969D01*
X28661Y-70216D02*
X28642Y-70178D01*
X28604Y-70159D01*
X28261Y-70159D01*
X28661Y-70540D02*
X28452Y-70540D01*
X28414Y-70521D01*
X28395Y-70483D01*
X28395Y-70407D01*
X28414Y-70369D01*
X28642Y-70540D02*
X28661Y-70502D01*
X28661Y-70407D01*
X28642Y-70369D01*
X28604Y-70350D01*
X28566Y-70350D01*
X28528Y-70369D01*
X28509Y-70407D01*
X28509Y-70502D01*
X28490Y-70540D01*
X28661Y-70730D02*
X28261Y-70730D01*
X28414Y-70730D02*
X28395Y-70769D01*
X28395Y-70845D01*
X28414Y-70883D01*
X28433Y-70902D01*
X28471Y-70921D01*
X28585Y-70921D01*
X28623Y-70902D01*
X28642Y-70883D01*
X28661Y-70845D01*
X28661Y-70769D01*
X28642Y-70730D01*
X28642Y-71073D02*
X28661Y-71111D01*
X28661Y-71188D01*
X28642Y-71226D01*
X28604Y-71245D01*
X28585Y-71245D01*
X28547Y-71226D01*
X28528Y-71188D01*
X28528Y-71130D01*
X28509Y-71092D01*
X28471Y-71073D01*
X28452Y-71073D01*
X28414Y-71092D01*
X28395Y-71130D01*
X28395Y-71188D01*
X28414Y-71226D01*
X28242Y-71702D02*
X28757Y-71359D01*
X28661Y-72007D02*
X28452Y-72007D01*
X28414Y-71988D01*
X28395Y-71950D01*
X28395Y-71873D01*
X28414Y-71835D01*
X28642Y-72007D02*
X28661Y-71969D01*
X28661Y-71873D01*
X28642Y-71835D01*
X28604Y-71816D01*
X28566Y-71816D01*
X28528Y-71835D01*
X28509Y-71873D01*
X28509Y-71969D01*
X28490Y-72007D01*
X28661Y-72197D02*
X28261Y-72197D01*
X28414Y-72197D02*
X28395Y-72235D01*
X28395Y-72311D01*
X28414Y-72350D01*
X28433Y-72369D01*
X28471Y-72388D01*
X28585Y-72388D01*
X28623Y-72369D01*
X28642Y-72350D01*
X28661Y-72311D01*
X28661Y-72235D01*
X28642Y-72197D01*
X28661Y-72521D02*
X28395Y-72730D01*
X28395Y-72521D02*
X28661Y-72730D01*
X28509Y-72883D02*
X28509Y-73188D01*
X28395Y-73321D02*
X28395Y-73473D01*
X28261Y-73378D02*
X28604Y-73378D01*
X28642Y-73397D01*
X28661Y-73435D01*
X28661Y-73473D01*
X28661Y-73778D02*
X28452Y-73778D01*
X28414Y-73759D01*
X28395Y-73721D01*
X28395Y-73645D01*
X28414Y-73607D01*
X28642Y-73778D02*
X28661Y-73740D01*
X28661Y-73645D01*
X28642Y-73607D01*
X28604Y-73588D01*
X28566Y-73588D01*
X28528Y-73607D01*
X28509Y-73645D01*
X28509Y-73740D01*
X28490Y-73778D01*
X28395Y-73930D02*
X28661Y-74026D01*
X28395Y-74121D02*
X28661Y-74026D01*
X28757Y-73988D01*
X28776Y-73969D01*
X28795Y-73930D01*
X28661Y-74445D02*
X28261Y-74445D01*
X28642Y-74445D02*
X28661Y-74407D01*
X28661Y-74330D01*
X28642Y-74292D01*
X28623Y-74273D01*
X28585Y-74254D01*
X28471Y-74254D01*
X28433Y-74273D01*
X28414Y-74292D01*
X28395Y-74330D01*
X28395Y-74407D01*
X28414Y-74445D01*
X28661Y-74807D02*
X28452Y-74807D01*
X28414Y-74788D01*
X28395Y-74749D01*
X28395Y-74673D01*
X28414Y-74635D01*
X28642Y-74807D02*
X28661Y-74769D01*
X28661Y-74673D01*
X28642Y-74635D01*
X28604Y-74616D01*
X28566Y-74616D01*
X28528Y-74635D01*
X28509Y-74673D01*
X28509Y-74769D01*
X28490Y-74807D01*
M02*
