G04 (created by PCBNEW (2013-07-07 BZR 4022)-stable) date Mon 16 Nov 2020 10:17:55 PM CST*
%MOIN*%
G04 Gerber Fmt 3.4, Leading zero omitted, Abs format*
%FSLAX34Y34*%
G01*
G70*
G90*
G04 APERTURE LIST*
%ADD10C,0.00590551*%
%ADD11C,0.008*%
%ADD12C,0.012*%
%ADD13C,0.01*%
%ADD14C,0.02*%
%ADD15C,0.016*%
%ADD16C,0.0001*%
%ADD17C,0.006*%
%ADD18C,0.005*%
G04 APERTURE END LIST*
G54D10*
G54D11*
X33666Y-66761D02*
X33933Y-67161D01*
X33933Y-66761D02*
X33666Y-67161D01*
X34314Y-67161D02*
X34180Y-66971D01*
X34085Y-67161D02*
X34085Y-66761D01*
X34238Y-66761D01*
X34276Y-66780D01*
X34295Y-66800D01*
X34314Y-66838D01*
X34314Y-66895D01*
X34295Y-66933D01*
X34276Y-66952D01*
X34238Y-66971D01*
X34085Y-66971D01*
X30704Y-66761D02*
X30971Y-67161D01*
X30971Y-66761D02*
X30704Y-67161D01*
X31314Y-67161D02*
X31123Y-67161D01*
X31123Y-66761D01*
X30666Y-63761D02*
X30933Y-64161D01*
X30933Y-63761D02*
X30666Y-64161D01*
X31295Y-63780D02*
X31257Y-63761D01*
X31200Y-63761D01*
X31142Y-63780D01*
X31104Y-63819D01*
X31085Y-63857D01*
X31066Y-63933D01*
X31066Y-63990D01*
X31085Y-64066D01*
X31104Y-64104D01*
X31142Y-64142D01*
X31200Y-64161D01*
X31238Y-64161D01*
X31295Y-64142D01*
X31314Y-64123D01*
X31314Y-63990D01*
X31238Y-63990D01*
X46050Y-63221D02*
X46050Y-63411D01*
X45916Y-63011D02*
X46050Y-63221D01*
X46183Y-63011D01*
X46545Y-63411D02*
X46411Y-63221D01*
X46316Y-63411D02*
X46316Y-63011D01*
X46469Y-63011D01*
X46507Y-63030D01*
X46526Y-63050D01*
X46545Y-63088D01*
X46545Y-63145D01*
X46526Y-63183D01*
X46507Y-63202D01*
X46469Y-63221D01*
X46316Y-63221D01*
X44088Y-63221D02*
X44088Y-63411D01*
X43954Y-63011D02*
X44088Y-63221D01*
X44221Y-63011D01*
X44545Y-63411D02*
X44354Y-63411D01*
X44354Y-63011D01*
X45050Y-60221D02*
X45050Y-60411D01*
X44916Y-60011D02*
X45050Y-60221D01*
X45183Y-60011D01*
X45526Y-60030D02*
X45488Y-60011D01*
X45430Y-60011D01*
X45373Y-60030D01*
X45335Y-60069D01*
X45316Y-60107D01*
X45297Y-60183D01*
X45297Y-60240D01*
X45316Y-60316D01*
X45335Y-60354D01*
X45373Y-60392D01*
X45430Y-60411D01*
X45469Y-60411D01*
X45526Y-60392D01*
X45545Y-60373D01*
X45545Y-60240D01*
X45469Y-60240D01*
X56104Y-62780D02*
X56066Y-62761D01*
X56009Y-62761D01*
X55952Y-62780D01*
X55914Y-62819D01*
X55895Y-62857D01*
X55876Y-62933D01*
X55876Y-62990D01*
X55895Y-63066D01*
X55914Y-63104D01*
X55952Y-63142D01*
X56009Y-63161D01*
X56047Y-63161D01*
X56104Y-63142D01*
X56123Y-63123D01*
X56123Y-62990D01*
X56047Y-62990D01*
X58104Y-61780D02*
X58066Y-61761D01*
X58009Y-61761D01*
X57952Y-61780D01*
X57914Y-61819D01*
X57895Y-61857D01*
X57876Y-61933D01*
X57876Y-61990D01*
X57895Y-62066D01*
X57914Y-62104D01*
X57952Y-62142D01*
X58009Y-62161D01*
X58047Y-62161D01*
X58104Y-62142D01*
X58123Y-62123D01*
X58123Y-61990D01*
X58047Y-61990D01*
X57752Y-64411D02*
X57828Y-64411D01*
X57866Y-64392D01*
X57885Y-64373D01*
X57923Y-64316D01*
X57942Y-64240D01*
X57942Y-64088D01*
X57923Y-64050D01*
X57904Y-64030D01*
X57866Y-64011D01*
X57790Y-64011D01*
X57752Y-64030D01*
X57733Y-64050D01*
X57714Y-64088D01*
X57714Y-64183D01*
X57733Y-64221D01*
X57752Y-64240D01*
X57790Y-64259D01*
X57866Y-64259D01*
X57904Y-64240D01*
X57923Y-64221D01*
X57942Y-64183D01*
X58057Y-64011D02*
X58190Y-64411D01*
X58323Y-64011D01*
X37309Y-97615D02*
X37271Y-97596D01*
X37214Y-97596D01*
X37157Y-97615D01*
X37119Y-97653D01*
X37099Y-97691D01*
X37080Y-97767D01*
X37080Y-97825D01*
X37099Y-97901D01*
X37119Y-97939D01*
X37157Y-97977D01*
X37214Y-97996D01*
X37252Y-97996D01*
X37309Y-97977D01*
X37328Y-97958D01*
X37328Y-97825D01*
X37252Y-97825D01*
X35360Y-96028D02*
X35226Y-95837D01*
X35131Y-96028D02*
X35131Y-95628D01*
X35283Y-95628D01*
X35321Y-95647D01*
X35340Y-95666D01*
X35360Y-95704D01*
X35360Y-95761D01*
X35340Y-95799D01*
X35321Y-95818D01*
X35283Y-95837D01*
X35131Y-95837D01*
X39297Y-96028D02*
X39106Y-96028D01*
X39106Y-95628D01*
X40655Y-59426D02*
X40617Y-59407D01*
X40560Y-59407D01*
X40503Y-59426D01*
X40465Y-59464D01*
X40446Y-59502D01*
X40427Y-59579D01*
X40427Y-59636D01*
X40446Y-59712D01*
X40465Y-59750D01*
X40503Y-59788D01*
X40560Y-59807D01*
X40598Y-59807D01*
X40655Y-59788D01*
X40674Y-59769D01*
X40674Y-59636D01*
X40598Y-59636D01*
X42643Y-61776D02*
X42510Y-61585D01*
X42414Y-61776D02*
X42414Y-61376D01*
X42567Y-61376D01*
X42605Y-61395D01*
X42624Y-61414D01*
X42643Y-61452D01*
X42643Y-61509D01*
X42624Y-61547D01*
X42605Y-61566D01*
X42567Y-61585D01*
X42414Y-61585D01*
X38706Y-61776D02*
X38516Y-61776D01*
X38516Y-61376D01*
X34750Y-59426D02*
X34712Y-59407D01*
X34655Y-59407D01*
X34598Y-59426D01*
X34559Y-59464D01*
X34540Y-59502D01*
X34521Y-59579D01*
X34521Y-59636D01*
X34540Y-59712D01*
X34559Y-59750D01*
X34598Y-59788D01*
X34655Y-59807D01*
X34693Y-59807D01*
X34750Y-59788D01*
X34769Y-59769D01*
X34769Y-59636D01*
X34693Y-59636D01*
X36737Y-61776D02*
X36604Y-61585D01*
X36509Y-61776D02*
X36509Y-61376D01*
X36661Y-61376D01*
X36699Y-61395D01*
X36718Y-61414D01*
X36737Y-61452D01*
X36737Y-61509D01*
X36718Y-61547D01*
X36699Y-61566D01*
X36661Y-61585D01*
X36509Y-61585D01*
X32800Y-61776D02*
X32610Y-61776D01*
X32610Y-61376D01*
X29645Y-74635D02*
X29969Y-74635D01*
X30007Y-74654D01*
X30026Y-74673D01*
X30045Y-74711D01*
X30045Y-74769D01*
X30026Y-74807D01*
X29892Y-74635D02*
X29911Y-74673D01*
X29911Y-74749D01*
X29892Y-74788D01*
X29873Y-74807D01*
X29835Y-74826D01*
X29721Y-74826D01*
X29683Y-74807D01*
X29664Y-74788D01*
X29645Y-74749D01*
X29645Y-74673D01*
X29664Y-74635D01*
X29911Y-74445D02*
X29645Y-74445D01*
X29511Y-74445D02*
X29530Y-74464D01*
X29550Y-74445D01*
X29530Y-74426D01*
X29511Y-74445D01*
X29550Y-74445D01*
X29645Y-74311D02*
X29645Y-74159D01*
X29511Y-74254D02*
X29854Y-74254D01*
X29892Y-74235D01*
X29911Y-74197D01*
X29911Y-74159D01*
X29911Y-74026D02*
X29511Y-74026D01*
X29911Y-73854D02*
X29702Y-73854D01*
X29664Y-73873D01*
X29645Y-73911D01*
X29645Y-73969D01*
X29664Y-74007D01*
X29683Y-74026D01*
X29645Y-73492D02*
X29911Y-73492D01*
X29645Y-73664D02*
X29854Y-73664D01*
X29892Y-73645D01*
X29911Y-73607D01*
X29911Y-73549D01*
X29892Y-73511D01*
X29873Y-73492D01*
X29911Y-73302D02*
X29511Y-73302D01*
X29664Y-73302D02*
X29645Y-73264D01*
X29645Y-73188D01*
X29664Y-73149D01*
X29683Y-73130D01*
X29721Y-73111D01*
X29835Y-73111D01*
X29873Y-73130D01*
X29892Y-73149D01*
X29911Y-73188D01*
X29911Y-73264D01*
X29892Y-73302D01*
X29873Y-72940D02*
X29892Y-72921D01*
X29911Y-72940D01*
X29892Y-72959D01*
X29873Y-72940D01*
X29911Y-72940D01*
X29892Y-72578D02*
X29911Y-72616D01*
X29911Y-72692D01*
X29892Y-72730D01*
X29873Y-72749D01*
X29835Y-72769D01*
X29721Y-72769D01*
X29683Y-72749D01*
X29664Y-72730D01*
X29645Y-72692D01*
X29645Y-72616D01*
X29664Y-72578D01*
X29911Y-72349D02*
X29892Y-72388D01*
X29873Y-72407D01*
X29835Y-72426D01*
X29721Y-72426D01*
X29683Y-72407D01*
X29664Y-72388D01*
X29645Y-72349D01*
X29645Y-72292D01*
X29664Y-72254D01*
X29683Y-72235D01*
X29721Y-72216D01*
X29835Y-72216D01*
X29873Y-72235D01*
X29892Y-72254D01*
X29911Y-72292D01*
X29911Y-72349D01*
X29911Y-72045D02*
X29645Y-72045D01*
X29683Y-72045D02*
X29664Y-72026D01*
X29645Y-71988D01*
X29645Y-71930D01*
X29664Y-71892D01*
X29702Y-71873D01*
X29911Y-71873D01*
X29702Y-71873D02*
X29664Y-71854D01*
X29645Y-71816D01*
X29645Y-71759D01*
X29664Y-71721D01*
X29702Y-71702D01*
X29911Y-71702D01*
X29492Y-71226D02*
X30007Y-71569D01*
X29645Y-71092D02*
X30045Y-71092D01*
X29664Y-71092D02*
X29645Y-71054D01*
X29645Y-70978D01*
X29664Y-70940D01*
X29683Y-70921D01*
X29721Y-70902D01*
X29835Y-70902D01*
X29873Y-70921D01*
X29892Y-70940D01*
X29911Y-70978D01*
X29911Y-71054D01*
X29892Y-71092D01*
X29892Y-70578D02*
X29911Y-70616D01*
X29911Y-70692D01*
X29892Y-70730D01*
X29854Y-70749D01*
X29702Y-70749D01*
X29664Y-70730D01*
X29645Y-70692D01*
X29645Y-70616D01*
X29664Y-70578D01*
X29702Y-70559D01*
X29740Y-70559D01*
X29778Y-70749D01*
X29645Y-70388D02*
X30045Y-70388D01*
X29664Y-70388D02*
X29645Y-70349D01*
X29645Y-70273D01*
X29664Y-70235D01*
X29683Y-70216D01*
X29721Y-70197D01*
X29835Y-70197D01*
X29873Y-70216D01*
X29892Y-70235D01*
X29911Y-70273D01*
X29911Y-70349D01*
X29892Y-70388D01*
X29911Y-69854D02*
X29702Y-69854D01*
X29664Y-69873D01*
X29645Y-69911D01*
X29645Y-69988D01*
X29664Y-70026D01*
X29892Y-69854D02*
X29911Y-69892D01*
X29911Y-69988D01*
X29892Y-70026D01*
X29854Y-70045D01*
X29816Y-70045D01*
X29778Y-70026D01*
X29759Y-69988D01*
X29759Y-69892D01*
X29740Y-69854D01*
X29892Y-69683D02*
X29911Y-69645D01*
X29911Y-69569D01*
X29892Y-69530D01*
X29854Y-69511D01*
X29835Y-69511D01*
X29797Y-69530D01*
X29778Y-69569D01*
X29778Y-69626D01*
X29759Y-69664D01*
X29721Y-69683D01*
X29702Y-69683D01*
X29664Y-69664D01*
X29645Y-69626D01*
X29645Y-69569D01*
X29664Y-69530D01*
X29911Y-69283D02*
X29892Y-69321D01*
X29854Y-69340D01*
X29511Y-69340D01*
X29911Y-68959D02*
X29702Y-68959D01*
X29664Y-68978D01*
X29645Y-69016D01*
X29645Y-69092D01*
X29664Y-69130D01*
X29892Y-68959D02*
X29911Y-68997D01*
X29911Y-69092D01*
X29892Y-69130D01*
X29854Y-69149D01*
X29816Y-69149D01*
X29778Y-69130D01*
X29759Y-69092D01*
X29759Y-68997D01*
X29740Y-68959D01*
X29911Y-68769D02*
X29511Y-68769D01*
X29664Y-68769D02*
X29645Y-68730D01*
X29645Y-68654D01*
X29664Y-68616D01*
X29683Y-68597D01*
X29721Y-68578D01*
X29835Y-68578D01*
X29873Y-68597D01*
X29892Y-68616D01*
X29911Y-68654D01*
X29911Y-68730D01*
X29892Y-68769D01*
X29892Y-68426D02*
X29911Y-68388D01*
X29911Y-68311D01*
X29892Y-68273D01*
X29854Y-68254D01*
X29835Y-68254D01*
X29797Y-68273D01*
X29778Y-68311D01*
X29778Y-68369D01*
X29759Y-68407D01*
X29721Y-68426D01*
X29702Y-68426D01*
X29664Y-68407D01*
X29645Y-68369D01*
X29645Y-68311D01*
X29664Y-68273D01*
X29492Y-67797D02*
X30007Y-68140D01*
X29911Y-67492D02*
X29702Y-67492D01*
X29664Y-67511D01*
X29645Y-67550D01*
X29645Y-67626D01*
X29664Y-67664D01*
X29892Y-67492D02*
X29911Y-67530D01*
X29911Y-67626D01*
X29892Y-67664D01*
X29854Y-67683D01*
X29816Y-67683D01*
X29778Y-67664D01*
X29759Y-67626D01*
X29759Y-67530D01*
X29740Y-67492D01*
X29911Y-67302D02*
X29511Y-67302D01*
X29664Y-67302D02*
X29645Y-67264D01*
X29645Y-67188D01*
X29664Y-67150D01*
X29683Y-67130D01*
X29721Y-67111D01*
X29835Y-67111D01*
X29873Y-67130D01*
X29892Y-67150D01*
X29911Y-67188D01*
X29911Y-67264D01*
X29892Y-67302D01*
X29911Y-66978D02*
X29645Y-66769D01*
X29645Y-66978D02*
X29911Y-66769D01*
X29759Y-66616D02*
X29759Y-66311D01*
X29645Y-66178D02*
X29645Y-66026D01*
X29511Y-66121D02*
X29854Y-66121D01*
X29892Y-66102D01*
X29911Y-66064D01*
X29911Y-66026D01*
X29911Y-65721D02*
X29702Y-65721D01*
X29664Y-65740D01*
X29645Y-65778D01*
X29645Y-65854D01*
X29664Y-65892D01*
X29892Y-65721D02*
X29911Y-65759D01*
X29911Y-65854D01*
X29892Y-65892D01*
X29854Y-65911D01*
X29816Y-65911D01*
X29778Y-65892D01*
X29759Y-65854D01*
X29759Y-65759D01*
X29740Y-65721D01*
X29645Y-65569D02*
X29911Y-65473D01*
X29645Y-65378D02*
X29911Y-65473D01*
X30007Y-65511D01*
X30026Y-65530D01*
X30045Y-65569D01*
X29911Y-65054D02*
X29511Y-65054D01*
X29892Y-65054D02*
X29911Y-65092D01*
X29911Y-65169D01*
X29892Y-65207D01*
X29873Y-65226D01*
X29835Y-65245D01*
X29721Y-65245D01*
X29683Y-65226D01*
X29664Y-65207D01*
X29645Y-65169D01*
X29645Y-65092D01*
X29664Y-65054D01*
X29911Y-64692D02*
X29702Y-64692D01*
X29664Y-64711D01*
X29645Y-64750D01*
X29645Y-64826D01*
X29664Y-64864D01*
X29892Y-64692D02*
X29911Y-64730D01*
X29911Y-64826D01*
X29892Y-64864D01*
X29854Y-64883D01*
X29816Y-64883D01*
X29778Y-64864D01*
X29759Y-64826D01*
X29759Y-64730D01*
X29740Y-64692D01*
G54D12*
X28742Y-76035D02*
X28142Y-76035D01*
X28142Y-75807D01*
X28171Y-75750D01*
X28200Y-75721D01*
X28257Y-75692D01*
X28342Y-75692D01*
X28400Y-75721D01*
X28428Y-75750D01*
X28457Y-75807D01*
X28457Y-76035D01*
X28714Y-75207D02*
X28742Y-75264D01*
X28742Y-75378D01*
X28714Y-75435D01*
X28657Y-75464D01*
X28428Y-75464D01*
X28371Y-75435D01*
X28342Y-75378D01*
X28342Y-75264D01*
X28371Y-75207D01*
X28428Y-75178D01*
X28485Y-75178D01*
X28542Y-75464D01*
X28342Y-74921D02*
X28942Y-74921D01*
X28371Y-74921D02*
X28342Y-74864D01*
X28342Y-74749D01*
X28371Y-74692D01*
X28400Y-74664D01*
X28457Y-74635D01*
X28628Y-74635D01*
X28685Y-74664D01*
X28714Y-74692D01*
X28742Y-74749D01*
X28742Y-74864D01*
X28714Y-74921D01*
X28742Y-74121D02*
X28428Y-74121D01*
X28371Y-74149D01*
X28342Y-74207D01*
X28342Y-74321D01*
X28371Y-74378D01*
X28714Y-74121D02*
X28742Y-74178D01*
X28742Y-74321D01*
X28714Y-74378D01*
X28657Y-74407D01*
X28600Y-74407D01*
X28542Y-74378D01*
X28514Y-74321D01*
X28514Y-74178D01*
X28485Y-74121D01*
X28714Y-73864D02*
X28742Y-73807D01*
X28742Y-73692D01*
X28714Y-73635D01*
X28657Y-73607D01*
X28628Y-73607D01*
X28571Y-73635D01*
X28542Y-73692D01*
X28542Y-73778D01*
X28514Y-73835D01*
X28457Y-73864D01*
X28428Y-73864D01*
X28371Y-73835D01*
X28342Y-73778D01*
X28342Y-73692D01*
X28371Y-73635D01*
X28742Y-72607D02*
X28742Y-72892D01*
X28142Y-72892D01*
X28742Y-72150D02*
X28428Y-72150D01*
X28371Y-72178D01*
X28342Y-72235D01*
X28342Y-72350D01*
X28371Y-72407D01*
X28714Y-72150D02*
X28742Y-72207D01*
X28742Y-72350D01*
X28714Y-72407D01*
X28657Y-72435D01*
X28600Y-72435D01*
X28542Y-72407D01*
X28514Y-72350D01*
X28514Y-72207D01*
X28485Y-72150D01*
X28742Y-71864D02*
X28142Y-71864D01*
X28371Y-71864D02*
X28342Y-71807D01*
X28342Y-71692D01*
X28371Y-71635D01*
X28400Y-71607D01*
X28457Y-71578D01*
X28628Y-71578D01*
X28685Y-71607D01*
X28714Y-71635D01*
X28742Y-71692D01*
X28742Y-71807D01*
X28714Y-71864D01*
X28714Y-71350D02*
X28742Y-71292D01*
X28742Y-71178D01*
X28714Y-71121D01*
X28657Y-71092D01*
X28628Y-71092D01*
X28571Y-71121D01*
X28542Y-71178D01*
X28542Y-71264D01*
X28514Y-71321D01*
X28457Y-71350D01*
X28428Y-71350D01*
X28371Y-71321D01*
X28342Y-71264D01*
X28342Y-71178D01*
X28371Y-71121D01*
X28571Y-70407D02*
X28571Y-70121D01*
X28742Y-70464D02*
X28142Y-70264D01*
X28742Y-70064D01*
X28428Y-69664D02*
X28457Y-69578D01*
X28485Y-69550D01*
X28542Y-69521D01*
X28628Y-69521D01*
X28685Y-69550D01*
X28714Y-69578D01*
X28742Y-69635D01*
X28742Y-69864D01*
X28142Y-69864D01*
X28142Y-69664D01*
X28171Y-69607D01*
X28200Y-69578D01*
X28257Y-69550D01*
X28314Y-69550D01*
X28371Y-69578D01*
X28400Y-69607D01*
X28428Y-69664D01*
X28428Y-69864D01*
X28142Y-69321D02*
X28742Y-68921D01*
X28142Y-68921D02*
X28742Y-69321D01*
X28514Y-68692D02*
X28514Y-68235D01*
X28342Y-68035D02*
X28342Y-67807D01*
X28142Y-67950D02*
X28657Y-67950D01*
X28714Y-67921D01*
X28742Y-67864D01*
X28742Y-67807D01*
X28742Y-67350D02*
X28428Y-67350D01*
X28371Y-67378D01*
X28342Y-67435D01*
X28342Y-67550D01*
X28371Y-67607D01*
X28714Y-67350D02*
X28742Y-67407D01*
X28742Y-67550D01*
X28714Y-67607D01*
X28657Y-67635D01*
X28600Y-67635D01*
X28542Y-67607D01*
X28514Y-67550D01*
X28514Y-67407D01*
X28485Y-67350D01*
X28342Y-67121D02*
X28742Y-66978D01*
X28342Y-66835D02*
X28742Y-66978D01*
X28885Y-67035D01*
X28914Y-67064D01*
X28942Y-67121D01*
X28742Y-66350D02*
X28142Y-66350D01*
X28714Y-66350D02*
X28742Y-66407D01*
X28742Y-66521D01*
X28714Y-66578D01*
X28685Y-66607D01*
X28628Y-66635D01*
X28457Y-66635D01*
X28400Y-66607D01*
X28371Y-66578D01*
X28342Y-66521D01*
X28342Y-66407D01*
X28371Y-66350D01*
X28742Y-65807D02*
X28428Y-65807D01*
X28371Y-65835D01*
X28342Y-65892D01*
X28342Y-66007D01*
X28371Y-66064D01*
X28714Y-65807D02*
X28742Y-65864D01*
X28742Y-66007D01*
X28714Y-66064D01*
X28657Y-66092D01*
X28600Y-66092D01*
X28542Y-66064D01*
X28514Y-66007D01*
X28514Y-65864D01*
X28485Y-65807D01*
X28342Y-65121D02*
X28742Y-64978D01*
X28342Y-64835D01*
X28342Y-64350D02*
X28742Y-64350D01*
X28114Y-64492D02*
X28542Y-64635D01*
X28542Y-64264D01*
X28685Y-64035D02*
X28714Y-64007D01*
X28742Y-64035D01*
X28714Y-64064D01*
X28685Y-64035D01*
X28742Y-64035D01*
X28742Y-63435D02*
X28742Y-63778D01*
X28742Y-63607D02*
X28142Y-63607D01*
X28228Y-63664D01*
X28285Y-63721D01*
X28314Y-63778D01*
G54D13*
X51869Y-64226D02*
X51821Y-64202D01*
X51750Y-64202D01*
X51678Y-64226D01*
X51630Y-64273D01*
X51607Y-64321D01*
X51583Y-64416D01*
X51583Y-64488D01*
X51607Y-64583D01*
X51630Y-64630D01*
X51678Y-64678D01*
X51750Y-64702D01*
X51797Y-64702D01*
X51869Y-64678D01*
X51892Y-64654D01*
X51892Y-64488D01*
X51797Y-64488D01*
X52107Y-64702D02*
X52107Y-64202D01*
X52392Y-64702D01*
X52392Y-64202D01*
X52630Y-64702D02*
X52630Y-64202D01*
X52750Y-64202D01*
X52821Y-64226D01*
X52869Y-64273D01*
X52892Y-64321D01*
X52916Y-64416D01*
X52916Y-64488D01*
X52892Y-64583D01*
X52869Y-64630D01*
X52821Y-64678D01*
X52750Y-64702D01*
X52630Y-64702D01*
X49940Y-64702D02*
X50035Y-64702D01*
X50083Y-64678D01*
X50107Y-64654D01*
X50154Y-64583D01*
X50178Y-64488D01*
X50178Y-64297D01*
X50154Y-64250D01*
X50130Y-64226D01*
X50083Y-64202D01*
X49988Y-64202D01*
X49940Y-64226D01*
X49916Y-64250D01*
X49892Y-64297D01*
X49892Y-64416D01*
X49916Y-64464D01*
X49940Y-64488D01*
X49988Y-64511D01*
X50083Y-64511D01*
X50130Y-64488D01*
X50154Y-64464D01*
X50178Y-64416D01*
X50321Y-64202D02*
X50488Y-64702D01*
X50654Y-64202D01*
G54D14*
X43250Y-91428D02*
X43250Y-91904D01*
X42916Y-90904D02*
X43250Y-91428D01*
X43583Y-90904D01*
X38916Y-90904D02*
X39583Y-91904D01*
X39583Y-90904D02*
X38916Y-91904D01*
X35071Y-91380D02*
X35214Y-91428D01*
X35261Y-91476D01*
X35309Y-91571D01*
X35309Y-91714D01*
X35261Y-91809D01*
X35214Y-91857D01*
X35119Y-91904D01*
X34738Y-91904D01*
X34738Y-90904D01*
X35071Y-90904D01*
X35166Y-90952D01*
X35214Y-91000D01*
X35261Y-91095D01*
X35261Y-91190D01*
X35214Y-91285D01*
X35166Y-91333D01*
X35071Y-91380D01*
X34738Y-91380D01*
X30761Y-91619D02*
X31238Y-91619D01*
X30666Y-91904D02*
X31000Y-90904D01*
X31333Y-91904D01*
G54D15*
X38360Y-64497D02*
X38360Y-63697D01*
X38741Y-64497D02*
X38741Y-63697D01*
X39198Y-64497D01*
X39198Y-63697D01*
X39579Y-64497D02*
X39579Y-63697D01*
X39884Y-63697D01*
X39960Y-63735D01*
X39998Y-63773D01*
X40036Y-63849D01*
X40036Y-63963D01*
X39998Y-64039D01*
X39960Y-64077D01*
X39884Y-64116D01*
X39579Y-64116D01*
X40379Y-63697D02*
X40379Y-64344D01*
X40417Y-64420D01*
X40455Y-64458D01*
X40532Y-64497D01*
X40684Y-64497D01*
X40760Y-64458D01*
X40798Y-64420D01*
X40836Y-64344D01*
X40836Y-63697D01*
X41103Y-63697D02*
X41560Y-63697D01*
X41332Y-64497D02*
X41332Y-63697D01*
X42589Y-64116D02*
X42589Y-64497D01*
X42322Y-63697D02*
X42589Y-64116D01*
X42855Y-63697D01*
X32417Y-64497D02*
X32417Y-63697D01*
X32798Y-64497D02*
X32798Y-63697D01*
X33255Y-64497D01*
X33255Y-63697D01*
X33636Y-64497D02*
X33636Y-63697D01*
X33940Y-63697D01*
X34017Y-63735D01*
X34055Y-63773D01*
X34093Y-63849D01*
X34093Y-63963D01*
X34055Y-64039D01*
X34017Y-64077D01*
X33940Y-64116D01*
X33636Y-64116D01*
X34436Y-63697D02*
X34436Y-64344D01*
X34474Y-64420D01*
X34512Y-64458D01*
X34588Y-64497D01*
X34740Y-64497D01*
X34817Y-64458D01*
X34855Y-64420D01*
X34893Y-64344D01*
X34893Y-63697D01*
X35159Y-63697D02*
X35617Y-63697D01*
X35388Y-64497D02*
X35388Y-63697D01*
X36417Y-63697D02*
X36950Y-64497D01*
X36950Y-63697D02*
X36417Y-64497D01*
G54D11*
X40116Y-98009D02*
X40116Y-97932D01*
X40135Y-97894D01*
X40173Y-97856D01*
X40249Y-97837D01*
X40382Y-97837D01*
X40459Y-97856D01*
X40497Y-97894D01*
X40516Y-97932D01*
X40516Y-98009D01*
X40497Y-98047D01*
X40459Y-98085D01*
X40382Y-98104D01*
X40249Y-98104D01*
X40173Y-98085D01*
X40135Y-98047D01*
X40116Y-98009D01*
X40116Y-97666D02*
X40440Y-97666D01*
X40478Y-97647D01*
X40497Y-97628D01*
X40516Y-97590D01*
X40516Y-97513D01*
X40497Y-97475D01*
X40478Y-97456D01*
X40440Y-97437D01*
X40116Y-97437D01*
X40116Y-97304D02*
X40116Y-97075D01*
X40516Y-97190D02*
X40116Y-97190D01*
X40516Y-96942D02*
X40116Y-96942D01*
X40116Y-96790D01*
X40135Y-96752D01*
X40154Y-96732D01*
X40192Y-96713D01*
X40249Y-96713D01*
X40287Y-96732D01*
X40306Y-96752D01*
X40325Y-96790D01*
X40325Y-96942D01*
X40116Y-96542D02*
X40440Y-96542D01*
X40478Y-96523D01*
X40497Y-96504D01*
X40516Y-96466D01*
X40516Y-96390D01*
X40497Y-96352D01*
X40478Y-96332D01*
X40440Y-96313D01*
X40116Y-96313D01*
X40116Y-96180D02*
X40116Y-95952D01*
X40516Y-96066D02*
X40116Y-96066D01*
G54D13*
X58000Y-96500D02*
X58000Y-95750D01*
X58000Y-93250D02*
X58000Y-92500D01*
X57600Y-93500D02*
X58400Y-93500D01*
X58400Y-95750D02*
X58400Y-93250D01*
X57600Y-95750D02*
X58400Y-95750D01*
X57600Y-93250D02*
X58400Y-93250D01*
X57600Y-95750D02*
X57600Y-93250D01*
G54D10*
X45900Y-68250D02*
X45900Y-67400D01*
X45900Y-67400D02*
X44100Y-67400D01*
X44100Y-67400D02*
X44100Y-68250D01*
X44100Y-68250D02*
G75*
G03X45000Y-69150I900J0D01*
G74*
G01*
X45000Y-69150D02*
G75*
G03X45900Y-68250I0J900D01*
G74*
G01*
X56900Y-86250D02*
X56900Y-85400D01*
X56900Y-85400D02*
X55100Y-85400D01*
X55100Y-85400D02*
X55100Y-86250D01*
X55100Y-86250D02*
G75*
G03X56000Y-87150I900J0D01*
G74*
G01*
X56000Y-87150D02*
G75*
G03X56900Y-86250I0J900D01*
G74*
G01*
X56900Y-74250D02*
X56900Y-73400D01*
X56900Y-73400D02*
X55100Y-73400D01*
X55100Y-73400D02*
X55100Y-74250D01*
X55100Y-74250D02*
G75*
G03X56000Y-75150I900J0D01*
G74*
G01*
X56000Y-75150D02*
G75*
G03X56900Y-74250I0J900D01*
G74*
G01*
X56900Y-80250D02*
X56900Y-79400D01*
X56900Y-79400D02*
X55100Y-79400D01*
X55100Y-79400D02*
X55100Y-80250D01*
X55100Y-80250D02*
G75*
G03X56000Y-81150I900J0D01*
G74*
G01*
X56000Y-81150D02*
G75*
G03X56900Y-80250I0J900D01*
G74*
G01*
X56900Y-68250D02*
X56900Y-67400D01*
X56900Y-67400D02*
X55100Y-67400D01*
X55100Y-67400D02*
X55100Y-68250D01*
X55100Y-68250D02*
G75*
G03X56000Y-69150I900J0D01*
G74*
G01*
X56000Y-69150D02*
G75*
G03X56900Y-68250I0J900D01*
G74*
G01*
X45900Y-74250D02*
X45900Y-73400D01*
X45900Y-73400D02*
X44100Y-73400D01*
X44100Y-73400D02*
X44100Y-74250D01*
X44100Y-74250D02*
G75*
G03X45000Y-75150I900J0D01*
G74*
G01*
X45000Y-75150D02*
G75*
G03X45900Y-74250I0J900D01*
G74*
G01*
G54D13*
X39763Y-98425D02*
X39763Y-94488D01*
X34645Y-98425D02*
X34645Y-94488D01*
X34645Y-98425D02*
X39763Y-98425D01*
X34645Y-94488D02*
X39763Y-94488D01*
X54000Y-76000D02*
X54400Y-76000D01*
X54400Y-76000D02*
X54400Y-75600D01*
X54400Y-75600D02*
X57600Y-75600D01*
X57600Y-75600D02*
X57600Y-76400D01*
X57600Y-76400D02*
X54400Y-76400D01*
X54400Y-76400D02*
X54400Y-76000D01*
X58000Y-76000D02*
X57600Y-76000D01*
X42000Y-70000D02*
X41600Y-70000D01*
X41600Y-70000D02*
X41600Y-70400D01*
X41600Y-70400D02*
X38400Y-70400D01*
X38400Y-70400D02*
X38400Y-69600D01*
X38400Y-69600D02*
X41600Y-69600D01*
X41600Y-69600D02*
X41600Y-70000D01*
X38000Y-70000D02*
X38400Y-70000D01*
X53000Y-76000D02*
X52600Y-76000D01*
X52600Y-76000D02*
X52600Y-76400D01*
X52600Y-76400D02*
X49400Y-76400D01*
X49400Y-76400D02*
X49400Y-75600D01*
X49400Y-75600D02*
X52600Y-75600D01*
X52600Y-75600D02*
X52600Y-76000D01*
X49000Y-76000D02*
X49400Y-76000D01*
X53000Y-82000D02*
X52600Y-82000D01*
X52600Y-82000D02*
X52600Y-82400D01*
X52600Y-82400D02*
X49400Y-82400D01*
X49400Y-82400D02*
X49400Y-81600D01*
X49400Y-81600D02*
X52600Y-81600D01*
X52600Y-81600D02*
X52600Y-82000D01*
X49000Y-82000D02*
X49400Y-82000D01*
X43000Y-70000D02*
X43400Y-70000D01*
X43400Y-70000D02*
X43400Y-69600D01*
X43400Y-69600D02*
X46600Y-69600D01*
X46600Y-69600D02*
X46600Y-70400D01*
X46600Y-70400D02*
X43400Y-70400D01*
X43400Y-70400D02*
X43400Y-70000D01*
X47000Y-70000D02*
X46600Y-70000D01*
X43000Y-76000D02*
X43400Y-76000D01*
X43400Y-76000D02*
X43400Y-75600D01*
X43400Y-75600D02*
X46600Y-75600D01*
X46600Y-75600D02*
X46600Y-76400D01*
X46600Y-76400D02*
X43400Y-76400D01*
X43400Y-76400D02*
X43400Y-76000D01*
X47000Y-76000D02*
X46600Y-76000D01*
X54000Y-82000D02*
X54400Y-82000D01*
X54400Y-82000D02*
X54400Y-81600D01*
X54400Y-81600D02*
X57600Y-81600D01*
X57600Y-81600D02*
X57600Y-82400D01*
X57600Y-82400D02*
X54400Y-82400D01*
X54400Y-82400D02*
X54400Y-82000D01*
X58000Y-82000D02*
X57600Y-82000D01*
X53000Y-88000D02*
X52600Y-88000D01*
X52600Y-88000D02*
X52600Y-88400D01*
X52600Y-88400D02*
X49400Y-88400D01*
X49400Y-88400D02*
X49400Y-87600D01*
X49400Y-87600D02*
X52600Y-87600D01*
X52600Y-87600D02*
X52600Y-88000D01*
X49000Y-88000D02*
X49400Y-88000D01*
X54000Y-88000D02*
X54400Y-88000D01*
X54400Y-88000D02*
X54400Y-87600D01*
X54400Y-87600D02*
X57600Y-87600D01*
X57600Y-87600D02*
X57600Y-88400D01*
X57600Y-88400D02*
X54400Y-88400D01*
X54400Y-88400D02*
X54400Y-88000D01*
X58000Y-88000D02*
X57600Y-88000D01*
X53000Y-70000D02*
X52600Y-70000D01*
X52600Y-70000D02*
X52600Y-70400D01*
X52600Y-70400D02*
X49400Y-70400D01*
X49400Y-70400D02*
X49400Y-69600D01*
X49400Y-69600D02*
X52600Y-69600D01*
X52600Y-69600D02*
X52600Y-70000D01*
X49000Y-70000D02*
X49400Y-70000D01*
X54000Y-70000D02*
X54400Y-70000D01*
X54400Y-70000D02*
X54400Y-69600D01*
X54400Y-69600D02*
X57600Y-69600D01*
X57600Y-69600D02*
X57600Y-70400D01*
X57600Y-70400D02*
X54400Y-70400D01*
X54400Y-70400D02*
X54400Y-70000D01*
X58000Y-70000D02*
X57600Y-70000D01*
X42000Y-76000D02*
X41600Y-76000D01*
X41600Y-76000D02*
X41600Y-76400D01*
X41600Y-76400D02*
X38400Y-76400D01*
X38400Y-76400D02*
X38400Y-75600D01*
X38400Y-75600D02*
X41600Y-75600D01*
X41600Y-75600D02*
X41600Y-76000D01*
X38000Y-76000D02*
X38400Y-76000D01*
X49000Y-96500D02*
X49000Y-96100D01*
X49000Y-96100D02*
X48600Y-96100D01*
X48600Y-96100D02*
X48600Y-92900D01*
X48600Y-92900D02*
X49400Y-92900D01*
X49400Y-92900D02*
X49400Y-96100D01*
X49400Y-96100D02*
X49000Y-96100D01*
X49000Y-92500D02*
X49000Y-92900D01*
X56500Y-96500D02*
X56500Y-96100D01*
X56500Y-96100D02*
X56100Y-96100D01*
X56100Y-96100D02*
X56100Y-92900D01*
X56100Y-92900D02*
X56900Y-92900D01*
X56900Y-92900D02*
X56900Y-96100D01*
X56900Y-96100D02*
X56500Y-96100D01*
X56500Y-92500D02*
X56500Y-92900D01*
X64000Y-92500D02*
X64000Y-92100D01*
X64000Y-92100D02*
X63600Y-92100D01*
X63600Y-92100D02*
X63600Y-88900D01*
X63600Y-88900D02*
X64400Y-88900D01*
X64400Y-88900D02*
X64400Y-92100D01*
X64400Y-92100D02*
X64000Y-92100D01*
X64000Y-88500D02*
X64000Y-88900D01*
X40750Y-95250D02*
X40750Y-94850D01*
X40750Y-94850D02*
X40350Y-94850D01*
X40350Y-94850D02*
X40350Y-91650D01*
X40350Y-91650D02*
X41150Y-91650D01*
X41150Y-91650D02*
X41150Y-94850D01*
X41150Y-94850D02*
X40750Y-94850D01*
X40750Y-91250D02*
X40750Y-91650D01*
X41750Y-95250D02*
X41750Y-94850D01*
X41750Y-94850D02*
X41350Y-94850D01*
X41350Y-94850D02*
X41350Y-91650D01*
X41350Y-91650D02*
X42150Y-91650D01*
X42150Y-91650D02*
X42150Y-94850D01*
X42150Y-94850D02*
X41750Y-94850D01*
X41750Y-91250D02*
X41750Y-91650D01*
X33500Y-95250D02*
X33500Y-94850D01*
X33500Y-94850D02*
X33100Y-94850D01*
X33100Y-94850D02*
X33100Y-91650D01*
X33100Y-91650D02*
X33900Y-91650D01*
X33900Y-91650D02*
X33900Y-94850D01*
X33900Y-94850D02*
X33500Y-94850D01*
X33500Y-91250D02*
X33500Y-91650D01*
X32500Y-95250D02*
X32500Y-94850D01*
X32500Y-94850D02*
X32100Y-94850D01*
X32100Y-94850D02*
X32100Y-91650D01*
X32100Y-91650D02*
X32900Y-91650D01*
X32900Y-91650D02*
X32900Y-94850D01*
X32900Y-94850D02*
X32500Y-94850D01*
X32500Y-91250D02*
X32500Y-91650D01*
X34173Y-88423D02*
X35826Y-88423D01*
X35826Y-90076D02*
G75*
G03X35826Y-88423I-826J826D01*
G74*
G01*
X34173Y-90076D02*
G75*
G03X35826Y-90076I826J826D01*
G74*
G01*
X34173Y-88423D02*
G75*
G03X34173Y-90076I826J-826D01*
G74*
G01*
X38423Y-88423D02*
X40076Y-88423D01*
X40076Y-90076D02*
G75*
G03X40076Y-88423I-826J826D01*
G74*
G01*
X38423Y-90076D02*
G75*
G03X40076Y-90076I826J826D01*
G74*
G01*
X38423Y-88423D02*
G75*
G03X38423Y-90076I826J-826D01*
G74*
G01*
X42423Y-88423D02*
X44076Y-88423D01*
X44076Y-90076D02*
G75*
G03X44076Y-88423I-826J826D01*
G74*
G01*
X42423Y-90076D02*
G75*
G03X44076Y-90076I826J826D01*
G74*
G01*
X42423Y-88423D02*
G75*
G03X42423Y-90076I826J-826D01*
G74*
G01*
X30173Y-88423D02*
X31826Y-88423D01*
X31826Y-90076D02*
G75*
G03X31826Y-88423I-826J826D01*
G74*
G01*
X30173Y-90076D02*
G75*
G03X31826Y-90076I826J826D01*
G74*
G01*
X30173Y-88423D02*
G75*
G03X30173Y-90076I826J-826D01*
G74*
G01*
X65500Y-92500D02*
X65500Y-91750D01*
X65500Y-89250D02*
X65500Y-88500D01*
X65100Y-89500D02*
X65900Y-89500D01*
X65900Y-91750D02*
X65900Y-89250D01*
X65100Y-91750D02*
X65900Y-91750D01*
X65100Y-89250D02*
X65900Y-89250D01*
X65100Y-91750D02*
X65100Y-89250D01*
X50500Y-96500D02*
X50500Y-95750D01*
X50500Y-93250D02*
X50500Y-92500D01*
X50100Y-93500D02*
X50900Y-93500D01*
X50900Y-95750D02*
X50900Y-93250D01*
X50100Y-95750D02*
X50900Y-95750D01*
X50100Y-93250D02*
X50900Y-93250D01*
X50100Y-95750D02*
X50100Y-93250D01*
X38000Y-72000D02*
X38750Y-72000D01*
X41250Y-72000D02*
X42000Y-72000D01*
X41000Y-71600D02*
X41000Y-72400D01*
X38750Y-72400D02*
X41250Y-72400D01*
X38750Y-71600D02*
X38750Y-72400D01*
X41250Y-71600D02*
X41250Y-72400D01*
X38750Y-71600D02*
X41250Y-71600D01*
X47000Y-72000D02*
X46250Y-72000D01*
X43750Y-72000D02*
X43000Y-72000D01*
X44000Y-72400D02*
X44000Y-71600D01*
X46250Y-71600D02*
X43750Y-71600D01*
X46250Y-72400D02*
X46250Y-71600D01*
X43750Y-72400D02*
X43750Y-71600D01*
X46250Y-72400D02*
X43750Y-72400D01*
X58000Y-66000D02*
X57250Y-66000D01*
X54750Y-66000D02*
X54000Y-66000D01*
X55000Y-66400D02*
X55000Y-65600D01*
X57250Y-65600D02*
X54750Y-65600D01*
X57250Y-66400D02*
X57250Y-65600D01*
X54750Y-66400D02*
X54750Y-65600D01*
X57250Y-66400D02*
X54750Y-66400D01*
X49000Y-66000D02*
X49750Y-66000D01*
X52250Y-66000D02*
X53000Y-66000D01*
X52000Y-65600D02*
X52000Y-66400D01*
X49750Y-66400D02*
X52250Y-66400D01*
X49750Y-65600D02*
X49750Y-66400D01*
X52250Y-65600D02*
X52250Y-66400D01*
X49750Y-65600D02*
X52250Y-65600D01*
X47000Y-66000D02*
X46250Y-66000D01*
X43750Y-66000D02*
X43000Y-66000D01*
X44000Y-66400D02*
X44000Y-65600D01*
X46250Y-65600D02*
X43750Y-65600D01*
X46250Y-66400D02*
X46250Y-65600D01*
X43750Y-66400D02*
X43750Y-65600D01*
X46250Y-66400D02*
X43750Y-66400D01*
X38000Y-66000D02*
X38750Y-66000D01*
X41250Y-66000D02*
X42000Y-66000D01*
X41000Y-65600D02*
X41000Y-66400D01*
X38750Y-66400D02*
X41250Y-66400D01*
X38750Y-65600D02*
X38750Y-66400D01*
X41250Y-65600D02*
X41250Y-66400D01*
X38750Y-65600D02*
X41250Y-65600D01*
X49000Y-84000D02*
X49750Y-84000D01*
X52250Y-84000D02*
X53000Y-84000D01*
X52000Y-83600D02*
X52000Y-84400D01*
X49750Y-84400D02*
X52250Y-84400D01*
X49750Y-83600D02*
X49750Y-84400D01*
X52250Y-83600D02*
X52250Y-84400D01*
X49750Y-83600D02*
X52250Y-83600D01*
X58000Y-84000D02*
X57250Y-84000D01*
X54750Y-84000D02*
X54000Y-84000D01*
X55000Y-84400D02*
X55000Y-83600D01*
X57250Y-83600D02*
X54750Y-83600D01*
X57250Y-84400D02*
X57250Y-83600D01*
X54750Y-84400D02*
X54750Y-83600D01*
X57250Y-84400D02*
X54750Y-84400D01*
X58000Y-72000D02*
X57250Y-72000D01*
X54750Y-72000D02*
X54000Y-72000D01*
X55000Y-72400D02*
X55000Y-71600D01*
X57250Y-71600D02*
X54750Y-71600D01*
X57250Y-72400D02*
X57250Y-71600D01*
X54750Y-72400D02*
X54750Y-71600D01*
X57250Y-72400D02*
X54750Y-72400D01*
X49000Y-72000D02*
X49750Y-72000D01*
X52250Y-72000D02*
X53000Y-72000D01*
X52000Y-71600D02*
X52000Y-72400D01*
X49750Y-72400D02*
X52250Y-72400D01*
X49750Y-71600D02*
X49750Y-72400D01*
X52250Y-71600D02*
X52250Y-72400D01*
X49750Y-71600D02*
X52250Y-71600D01*
X49000Y-78000D02*
X49750Y-78000D01*
X52250Y-78000D02*
X53000Y-78000D01*
X52000Y-77600D02*
X52000Y-78400D01*
X49750Y-78400D02*
X52250Y-78400D01*
X49750Y-77600D02*
X49750Y-78400D01*
X52250Y-77600D02*
X52250Y-78400D01*
X49750Y-77600D02*
X52250Y-77600D01*
X58000Y-78000D02*
X57250Y-78000D01*
X54750Y-78000D02*
X54000Y-78000D01*
X55000Y-78400D02*
X55000Y-77600D01*
X57250Y-77600D02*
X54750Y-77600D01*
X57250Y-78400D02*
X57250Y-77600D01*
X54750Y-78400D02*
X54750Y-77600D01*
X57250Y-78400D02*
X54750Y-78400D01*
X66250Y-69000D02*
G75*
G03X66250Y-69000I-250J0D01*
G74*
G01*
X60250Y-69000D02*
G75*
G03X60250Y-69000I-250J0D01*
G74*
G01*
X66250Y-85000D02*
G75*
G03X66250Y-85000I-250J0D01*
G74*
G01*
X60250Y-85000D02*
G75*
G03X60250Y-85000I-250J0D01*
G74*
G01*
X66500Y-85500D02*
X66500Y-68500D01*
X59500Y-68500D02*
X59500Y-85500D01*
X61500Y-85500D02*
X61500Y-83500D01*
X61500Y-83500D02*
X64500Y-83500D01*
X64500Y-83500D02*
X64500Y-85500D01*
X62250Y-84000D02*
G75*
G03X62250Y-84000I-250J0D01*
G74*
G01*
X62250Y-85000D02*
G75*
G03X62250Y-85000I-250J0D01*
G74*
G01*
X63250Y-84000D02*
G75*
G03X63250Y-84000I-250J0D01*
G74*
G01*
X64250Y-84000D02*
G75*
G03X64250Y-84000I-250J0D01*
G74*
G01*
X64250Y-85000D02*
G75*
G03X64250Y-85000I-250J0D01*
G74*
G01*
X63250Y-85000D02*
G75*
G03X63250Y-85000I-250J0D01*
G74*
G01*
X64500Y-68500D02*
X64500Y-72000D01*
X64500Y-72000D02*
X61500Y-72000D01*
X61500Y-72000D02*
X61500Y-68500D01*
X59500Y-85500D02*
X66500Y-85500D01*
X66500Y-68500D02*
X59500Y-68500D01*
X31277Y-61023D02*
G75*
G03X31277Y-61023I-1750J0D01*
G74*
G01*
X66710Y-61023D02*
G75*
G03X66710Y-61023I-1750J0D01*
G74*
G01*
X66710Y-96456D02*
G75*
G03X66710Y-96456I-1750J0D01*
G74*
G01*
X31277Y-96456D02*
G75*
G03X31277Y-96456I-1750J0D01*
G74*
G01*
X59659Y-93122D02*
X60840Y-93122D01*
X60840Y-93122D02*
X60840Y-93515D01*
X60840Y-93515D02*
X59659Y-93515D01*
X59659Y-93515D02*
X59659Y-93122D01*
X59108Y-92019D02*
X61391Y-92019D01*
X61391Y-92019D02*
X61391Y-96980D01*
X61391Y-96980D02*
X59108Y-96980D01*
X59108Y-96980D02*
X59108Y-92019D01*
X52159Y-93122D02*
X53340Y-93122D01*
X53340Y-93122D02*
X53340Y-93515D01*
X53340Y-93515D02*
X52159Y-93515D01*
X52159Y-93515D02*
X52159Y-93122D01*
X51608Y-92019D02*
X53891Y-92019D01*
X53891Y-92019D02*
X53891Y-96980D01*
X53891Y-96980D02*
X51608Y-96980D01*
X51608Y-96980D02*
X51608Y-92019D01*
X44659Y-93122D02*
X45840Y-93122D01*
X45840Y-93122D02*
X45840Y-93515D01*
X45840Y-93515D02*
X44659Y-93515D01*
X44659Y-93515D02*
X44659Y-93122D01*
X44108Y-92019D02*
X46391Y-92019D01*
X46391Y-92019D02*
X46391Y-96980D01*
X46391Y-96980D02*
X44108Y-96980D01*
X44108Y-96980D02*
X44108Y-92019D01*
X58522Y-60235D02*
X54978Y-60235D01*
X58522Y-58857D02*
X54978Y-58857D01*
X54978Y-58857D02*
X54978Y-64566D01*
X54978Y-64566D02*
X58522Y-64566D01*
X58522Y-64566D02*
X58522Y-58857D01*
X49250Y-59000D02*
X53250Y-59000D01*
X53250Y-59000D02*
X53250Y-64000D01*
X53250Y-64000D02*
X49250Y-64000D01*
X49250Y-64000D02*
X49250Y-59000D01*
G54D16*
G36*
X33664Y-70704D02*
X33656Y-70688D01*
X33633Y-70651D01*
X33598Y-70598D01*
X33557Y-70536D01*
X33514Y-70474D01*
X33480Y-70423D01*
X33457Y-70387D01*
X33449Y-70372D01*
X33451Y-70364D01*
X33466Y-70334D01*
X33488Y-70291D01*
X33501Y-70266D01*
X33518Y-70227D01*
X33522Y-70207D01*
X33516Y-70204D01*
X33486Y-70189D01*
X33434Y-70167D01*
X33366Y-70137D01*
X33286Y-70103D01*
X33200Y-70066D01*
X33112Y-70030D01*
X33028Y-69995D01*
X32953Y-69964D01*
X32892Y-69939D01*
X32849Y-69923D01*
X32831Y-69917D01*
X32827Y-69919D01*
X32808Y-69939D01*
X32782Y-69973D01*
X32721Y-70048D01*
X32629Y-70121D01*
X32525Y-70166D01*
X32409Y-70181D01*
X32302Y-70168D01*
X32199Y-70126D01*
X32106Y-70054D01*
X32037Y-69967D01*
X31993Y-69865D01*
X31979Y-69750D01*
X31991Y-69640D01*
X32033Y-69535D01*
X32104Y-69442D01*
X32149Y-69403D01*
X32243Y-69349D01*
X32344Y-69318D01*
X32369Y-69315D01*
X32480Y-69319D01*
X32586Y-69352D01*
X32681Y-69410D01*
X32758Y-69491D01*
X32766Y-69502D01*
X32794Y-69539D01*
X32813Y-69564D01*
X32829Y-69584D01*
X33168Y-69443D01*
X33222Y-69421D01*
X33315Y-69382D01*
X33395Y-69348D01*
X33458Y-69321D01*
X33501Y-69302D01*
X33518Y-69294D01*
X33519Y-69293D01*
X33521Y-69281D01*
X33511Y-69255D01*
X33488Y-69208D01*
X33472Y-69176D01*
X33455Y-69140D01*
X33449Y-69124D01*
X33456Y-69110D01*
X33479Y-69076D01*
X33512Y-69025D01*
X33553Y-68965D01*
X33593Y-68907D01*
X33628Y-68854D01*
X33652Y-68815D01*
X33663Y-68796D01*
X33663Y-68793D01*
X33653Y-68777D01*
X33628Y-68746D01*
X33584Y-68700D01*
X33520Y-68635D01*
X33510Y-68625D01*
X33455Y-68571D01*
X33409Y-68527D01*
X33377Y-68498D01*
X33362Y-68488D01*
X33362Y-68488D01*
X33343Y-68497D01*
X33305Y-68522D01*
X33251Y-68557D01*
X33188Y-68600D01*
X33025Y-68712D01*
X32871Y-68650D01*
X32824Y-68631D01*
X32767Y-68607D01*
X32726Y-68590D01*
X32708Y-68580D01*
X32702Y-68564D01*
X32692Y-68521D01*
X32679Y-68460D01*
X32666Y-68388D01*
X32653Y-68318D01*
X32641Y-68255D01*
X32632Y-68210D01*
X32628Y-68190D01*
X32625Y-68185D01*
X32615Y-68181D01*
X32594Y-68178D01*
X32556Y-68177D01*
X32496Y-68176D01*
X32409Y-68176D01*
X32400Y-68176D01*
X32317Y-68177D01*
X32251Y-68178D01*
X32208Y-68180D01*
X32191Y-68183D01*
X32191Y-68183D01*
X32186Y-68203D01*
X32177Y-68247D01*
X32164Y-68310D01*
X32150Y-68385D01*
X32149Y-68389D01*
X32135Y-68464D01*
X32122Y-68526D01*
X32112Y-68570D01*
X32106Y-68588D01*
X32101Y-68592D01*
X32072Y-68607D01*
X32026Y-68629D01*
X31969Y-68653D01*
X31911Y-68678D01*
X31858Y-68699D01*
X31819Y-68713D01*
X31801Y-68717D01*
X31801Y-68717D01*
X31783Y-68706D01*
X31744Y-68680D01*
X31691Y-68644D01*
X31627Y-68600D01*
X31622Y-68597D01*
X31559Y-68554D01*
X31506Y-68519D01*
X31468Y-68496D01*
X31451Y-68488D01*
X31450Y-68488D01*
X31431Y-68502D01*
X31396Y-68534D01*
X31348Y-68580D01*
X31292Y-68635D01*
X31275Y-68653D01*
X31215Y-68714D01*
X31176Y-68756D01*
X31155Y-68783D01*
X31150Y-68796D01*
X31151Y-68796D01*
X31162Y-68815D01*
X31188Y-68855D01*
X31225Y-68909D01*
X31268Y-68973D01*
X31271Y-68977D01*
X31314Y-69040D01*
X31349Y-69092D01*
X31374Y-69130D01*
X31384Y-69146D01*
X31384Y-69149D01*
X31376Y-69174D01*
X31361Y-69219D01*
X31339Y-69274D01*
X31316Y-69332D01*
X31294Y-69385D01*
X31275Y-69425D01*
X31265Y-69444D01*
X31264Y-69444D01*
X31241Y-69451D01*
X31194Y-69462D01*
X31129Y-69475D01*
X31052Y-69490D01*
X31040Y-69492D01*
X30965Y-69506D01*
X30903Y-69518D01*
X30860Y-69527D01*
X30842Y-69532D01*
X30840Y-69542D01*
X30837Y-69579D01*
X30836Y-69635D01*
X30835Y-69703D01*
X30836Y-69774D01*
X30837Y-69843D01*
X30839Y-69903D01*
X30842Y-69945D01*
X30846Y-69963D01*
X30847Y-69964D01*
X30870Y-69970D01*
X30917Y-69980D01*
X30982Y-69994D01*
X31060Y-70009D01*
X31073Y-70011D01*
X31148Y-70025D01*
X31209Y-70038D01*
X31252Y-70047D01*
X31268Y-70052D01*
X31272Y-70058D01*
X31285Y-70089D01*
X31306Y-70139D01*
X31331Y-70202D01*
X31390Y-70346D01*
X31268Y-70522D01*
X31257Y-70539D01*
X31214Y-70602D01*
X31179Y-70655D01*
X31156Y-70691D01*
X31147Y-70706D01*
X31148Y-70707D01*
X31163Y-70725D01*
X31196Y-70760D01*
X31243Y-70808D01*
X31298Y-70863D01*
X31339Y-70904D01*
X31389Y-70953D01*
X31422Y-70984D01*
X31444Y-71001D01*
X31457Y-71007D01*
X31465Y-71005D01*
X31483Y-70994D01*
X31522Y-70968D01*
X31576Y-70932D01*
X31638Y-70889D01*
X31691Y-70853D01*
X31750Y-70815D01*
X31792Y-70790D01*
X31813Y-70781D01*
X31822Y-70783D01*
X31856Y-70796D01*
X31909Y-70817D01*
X31971Y-70843D01*
X32111Y-70905D01*
X32128Y-70997D01*
X32139Y-71052D01*
X32154Y-71130D01*
X32168Y-71204D01*
X32191Y-71320D01*
X32617Y-71324D01*
X32625Y-71306D01*
X32630Y-71289D01*
X32639Y-71246D01*
X32651Y-71185D01*
X32665Y-71112D01*
X32677Y-71051D01*
X32688Y-70988D01*
X32697Y-70944D01*
X32701Y-70924D01*
X32708Y-70919D01*
X32738Y-70903D01*
X32786Y-70881D01*
X32844Y-70857D01*
X32903Y-70832D01*
X32958Y-70810D01*
X33000Y-70794D01*
X33022Y-70789D01*
X33039Y-70797D01*
X33075Y-70821D01*
X33127Y-70855D01*
X33189Y-70897D01*
X33251Y-70940D01*
X33304Y-70975D01*
X33342Y-71000D01*
X33359Y-71010D01*
X33371Y-71005D01*
X33401Y-70981D01*
X33449Y-70934D01*
X33518Y-70865D01*
X33529Y-70853D01*
X33582Y-70798D01*
X33625Y-70751D01*
X33654Y-70719D01*
X33664Y-70704D01*
X33664Y-70704D01*
G37*
G54D13*
X47500Y-92500D02*
X47500Y-92900D01*
X47500Y-92900D02*
X47900Y-92900D01*
X47900Y-92900D02*
X47900Y-96100D01*
X47900Y-96100D02*
X47100Y-96100D01*
X47100Y-96100D02*
X47100Y-92900D01*
X47100Y-92900D02*
X47500Y-92900D01*
X47500Y-96500D02*
X47500Y-96100D01*
X55000Y-92500D02*
X55000Y-92900D01*
X55000Y-92900D02*
X55400Y-92900D01*
X55400Y-92900D02*
X55400Y-96100D01*
X55400Y-96100D02*
X54600Y-96100D01*
X54600Y-96100D02*
X54600Y-92900D01*
X54600Y-92900D02*
X55000Y-92900D01*
X55000Y-96500D02*
X55000Y-96100D01*
X62500Y-88500D02*
X62500Y-88900D01*
X62500Y-88900D02*
X62900Y-88900D01*
X62900Y-88900D02*
X62900Y-92100D01*
X62900Y-92100D02*
X62100Y-92100D01*
X62100Y-92100D02*
X62100Y-88900D01*
X62100Y-88900D02*
X62500Y-88900D01*
X62500Y-92500D02*
X62500Y-92100D01*
G54D10*
X34750Y-87350D02*
X33332Y-87350D01*
X33332Y-87350D02*
X33332Y-83177D01*
X33332Y-83177D02*
X36167Y-83177D01*
X36167Y-83177D02*
X36167Y-87350D01*
X36167Y-87350D02*
X34750Y-87350D01*
X39750Y-87350D02*
X38332Y-87350D01*
X38332Y-87350D02*
X38332Y-83177D01*
X38332Y-83177D02*
X41167Y-83177D01*
X41167Y-83177D02*
X41167Y-87350D01*
X41167Y-87350D02*
X39750Y-87350D01*
X44750Y-81850D02*
X43332Y-81850D01*
X43332Y-81850D02*
X43332Y-77677D01*
X43332Y-77677D02*
X46167Y-77677D01*
X46167Y-77677D02*
X46167Y-81850D01*
X46167Y-81850D02*
X44750Y-81850D01*
X39750Y-81850D02*
X38332Y-81850D01*
X38332Y-81850D02*
X38332Y-77677D01*
X38332Y-77677D02*
X41167Y-77677D01*
X41167Y-77677D02*
X41167Y-81850D01*
X41167Y-81850D02*
X39750Y-81850D01*
X34750Y-81850D02*
X33332Y-81850D01*
X33332Y-81850D02*
X33332Y-77677D01*
X33332Y-77677D02*
X36167Y-77677D01*
X36167Y-77677D02*
X36167Y-81850D01*
X36167Y-81850D02*
X34750Y-81850D01*
X29750Y-81850D02*
X28332Y-81850D01*
X28332Y-81850D02*
X28332Y-77677D01*
X28332Y-77677D02*
X31167Y-77677D01*
X31167Y-77677D02*
X31167Y-81850D01*
X31167Y-81850D02*
X29750Y-81850D01*
G54D13*
X32086Y-59055D02*
X32086Y-62992D01*
X37204Y-59055D02*
X37204Y-62992D01*
X37204Y-59055D02*
X32086Y-59055D01*
X37204Y-62992D02*
X32086Y-62992D01*
X37992Y-59055D02*
X37992Y-62992D01*
X43110Y-59055D02*
X43110Y-62992D01*
X43110Y-59055D02*
X37992Y-59055D01*
X43110Y-62992D02*
X37992Y-62992D01*
X61250Y-69000D02*
X61250Y-69400D01*
X61250Y-69400D02*
X61650Y-69400D01*
X61650Y-69400D02*
X61650Y-72600D01*
X61650Y-72600D02*
X60850Y-72600D01*
X60850Y-72600D02*
X60850Y-69400D01*
X60850Y-69400D02*
X61250Y-69400D01*
X61250Y-73000D02*
X61250Y-72600D01*
X61000Y-66750D02*
X61400Y-66750D01*
X61400Y-66750D02*
X61400Y-66350D01*
X61400Y-66350D02*
X64600Y-66350D01*
X64600Y-66350D02*
X64600Y-67150D01*
X64600Y-67150D02*
X61400Y-67150D01*
X61400Y-67150D02*
X61400Y-66750D01*
X65000Y-66750D02*
X64600Y-66750D01*
X62250Y-74000D02*
X62250Y-74400D01*
X62250Y-74400D02*
X62650Y-74400D01*
X62650Y-74400D02*
X62650Y-77600D01*
X62650Y-77600D02*
X61850Y-77600D01*
X61850Y-77600D02*
X61850Y-74400D01*
X61850Y-74400D02*
X62250Y-74400D01*
X62250Y-78000D02*
X62250Y-77600D01*
X63250Y-78000D02*
X63250Y-77600D01*
X63250Y-77600D02*
X62850Y-77600D01*
X62850Y-77600D02*
X62850Y-74400D01*
X62850Y-74400D02*
X63650Y-74400D01*
X63650Y-74400D02*
X63650Y-77600D01*
X63650Y-77600D02*
X63250Y-77600D01*
X63250Y-74000D02*
X63250Y-74400D01*
X61250Y-74000D02*
X61250Y-74400D01*
X61250Y-74400D02*
X61650Y-74400D01*
X61650Y-74400D02*
X61650Y-77600D01*
X61650Y-77600D02*
X60850Y-77600D01*
X60850Y-77600D02*
X60850Y-74400D01*
X60850Y-74400D02*
X61250Y-74400D01*
X61250Y-78000D02*
X61250Y-77600D01*
G54D10*
X40900Y-68250D02*
X40900Y-67400D01*
X40900Y-67400D02*
X39100Y-67400D01*
X39100Y-67400D02*
X39100Y-68250D01*
X39100Y-68250D02*
G75*
G03X40000Y-69150I900J0D01*
G74*
G01*
X40000Y-69150D02*
G75*
G03X40900Y-68250I0J900D01*
G74*
G01*
X51900Y-68250D02*
X51900Y-67400D01*
X51900Y-67400D02*
X50100Y-67400D01*
X50100Y-67400D02*
X50100Y-68250D01*
X50100Y-68250D02*
G75*
G03X51000Y-69150I900J0D01*
G74*
G01*
X51000Y-69150D02*
G75*
G03X51900Y-68250I0J900D01*
G74*
G01*
X40900Y-74250D02*
X40900Y-73400D01*
X40900Y-73400D02*
X39100Y-73400D01*
X39100Y-73400D02*
X39100Y-74250D01*
X39100Y-74250D02*
G75*
G03X40000Y-75150I900J0D01*
G74*
G01*
X40000Y-75150D02*
G75*
G03X40900Y-74250I0J900D01*
G74*
G01*
X51900Y-74250D02*
X51900Y-73400D01*
X51900Y-73400D02*
X50100Y-73400D01*
X50100Y-73400D02*
X50100Y-74250D01*
X50100Y-74250D02*
G75*
G03X51000Y-75150I900J0D01*
G74*
G01*
X51000Y-75150D02*
G75*
G03X51900Y-74250I0J900D01*
G74*
G01*
X51900Y-80250D02*
X51900Y-79400D01*
X51900Y-79400D02*
X50100Y-79400D01*
X50100Y-79400D02*
X50100Y-80250D01*
X50100Y-80250D02*
G75*
G03X51000Y-81150I900J0D01*
G74*
G01*
X51000Y-81150D02*
G75*
G03X51900Y-80250I0J900D01*
G74*
G01*
X51900Y-86250D02*
X51900Y-85400D01*
X51900Y-85400D02*
X50100Y-85400D01*
X50100Y-85400D02*
X50100Y-86250D01*
X50100Y-86250D02*
G75*
G03X51000Y-87150I900J0D01*
G74*
G01*
X51000Y-87150D02*
G75*
G03X51900Y-86250I0J900D01*
G74*
G01*
G54D13*
X61250Y-86250D02*
X61650Y-86250D01*
X61650Y-86250D02*
X61650Y-85850D01*
X61650Y-85850D02*
X64850Y-85850D01*
X64850Y-85850D02*
X64850Y-86650D01*
X64850Y-86650D02*
X61650Y-86650D01*
X61650Y-86650D02*
X61650Y-86250D01*
X65250Y-86250D02*
X64850Y-86250D01*
G54D17*
X57371Y-94721D02*
X57071Y-94721D01*
X57071Y-94650D01*
X57085Y-94607D01*
X57114Y-94578D01*
X57142Y-94564D01*
X57200Y-94550D01*
X57242Y-94550D01*
X57300Y-94564D01*
X57328Y-94578D01*
X57357Y-94607D01*
X57371Y-94650D01*
X57371Y-94721D01*
X57071Y-94278D02*
X57071Y-94421D01*
X57214Y-94435D01*
X57200Y-94421D01*
X57185Y-94392D01*
X57185Y-94321D01*
X57200Y-94292D01*
X57214Y-94278D01*
X57242Y-94264D01*
X57314Y-94264D01*
X57342Y-94278D01*
X57357Y-94292D01*
X57371Y-94321D01*
X57371Y-94392D01*
X57357Y-94421D01*
X57342Y-94435D01*
X58121Y-95142D02*
X58121Y-95314D01*
X58121Y-95228D02*
X57821Y-95228D01*
X57864Y-95257D01*
X57892Y-95285D01*
X57907Y-95314D01*
X58121Y-95014D02*
X57821Y-95014D01*
X58121Y-94842D01*
X57821Y-94842D01*
X57821Y-94557D02*
X57821Y-94699D01*
X57964Y-94714D01*
X57950Y-94699D01*
X57935Y-94671D01*
X57935Y-94599D01*
X57950Y-94571D01*
X57964Y-94557D01*
X57992Y-94542D01*
X58064Y-94542D01*
X58092Y-94557D01*
X58107Y-94571D01*
X58121Y-94599D01*
X58121Y-94671D01*
X58107Y-94699D01*
X58092Y-94714D01*
X57950Y-94371D02*
X57935Y-94400D01*
X57921Y-94414D01*
X57892Y-94428D01*
X57878Y-94428D01*
X57850Y-94414D01*
X57835Y-94400D01*
X57821Y-94371D01*
X57821Y-94314D01*
X57835Y-94285D01*
X57850Y-94271D01*
X57878Y-94257D01*
X57892Y-94257D01*
X57921Y-94271D01*
X57935Y-94285D01*
X57950Y-94314D01*
X57950Y-94371D01*
X57964Y-94400D01*
X57978Y-94414D01*
X58007Y-94428D01*
X58064Y-94428D01*
X58092Y-94414D01*
X58107Y-94400D01*
X58121Y-94371D01*
X58121Y-94314D01*
X58107Y-94285D01*
X58092Y-94271D01*
X58064Y-94257D01*
X58007Y-94257D01*
X57978Y-94271D01*
X57964Y-94285D01*
X57950Y-94314D01*
X58121Y-93971D02*
X58121Y-94142D01*
X58121Y-94057D02*
X57821Y-94057D01*
X57864Y-94085D01*
X57892Y-94114D01*
X57907Y-94142D01*
X57821Y-93871D02*
X57821Y-93671D01*
X58121Y-93800D01*
X44000Y-68028D02*
X43985Y-68057D01*
X43957Y-68085D01*
X43914Y-68128D01*
X43900Y-68157D01*
X43900Y-68185D01*
X43971Y-68171D02*
X43957Y-68200D01*
X43928Y-68228D01*
X43871Y-68242D01*
X43771Y-68242D01*
X43714Y-68228D01*
X43685Y-68200D01*
X43671Y-68171D01*
X43671Y-68114D01*
X43685Y-68085D01*
X43714Y-68057D01*
X43771Y-68042D01*
X43871Y-68042D01*
X43928Y-68057D01*
X43957Y-68085D01*
X43971Y-68114D01*
X43971Y-68171D01*
X43771Y-67785D02*
X43971Y-67785D01*
X43657Y-67857D02*
X43871Y-67928D01*
X43871Y-67742D01*
G54D18*
X46025Y-68678D02*
X46013Y-68666D01*
X46001Y-68642D01*
X46001Y-68583D01*
X46013Y-68559D01*
X46025Y-68547D01*
X46048Y-68535D01*
X46072Y-68535D01*
X46108Y-68547D01*
X46251Y-68690D01*
X46251Y-68535D01*
X46251Y-68428D02*
X46001Y-68428D01*
X46251Y-68285D01*
X46001Y-68285D01*
X46001Y-68190D02*
X46001Y-68023D01*
X46251Y-68130D01*
X46001Y-67880D02*
X46001Y-67857D01*
X46013Y-67833D01*
X46025Y-67821D01*
X46048Y-67809D01*
X46096Y-67797D01*
X46155Y-67797D01*
X46203Y-67809D01*
X46227Y-67821D01*
X46239Y-67833D01*
X46251Y-67857D01*
X46251Y-67880D01*
X46239Y-67904D01*
X46227Y-67916D01*
X46203Y-67928D01*
X46155Y-67940D01*
X46096Y-67940D01*
X46048Y-67928D01*
X46025Y-67916D01*
X46013Y-67904D01*
X46001Y-67880D01*
X46001Y-67642D02*
X46001Y-67619D01*
X46013Y-67595D01*
X46025Y-67583D01*
X46048Y-67571D01*
X46096Y-67559D01*
X46155Y-67559D01*
X46203Y-67571D01*
X46227Y-67583D01*
X46239Y-67595D01*
X46251Y-67619D01*
X46251Y-67642D01*
X46239Y-67666D01*
X46227Y-67678D01*
X46203Y-67690D01*
X46155Y-67702D01*
X46096Y-67702D01*
X46048Y-67690D01*
X46025Y-67678D01*
X46013Y-67666D01*
X46001Y-67642D01*
X46001Y-67404D02*
X46001Y-67380D01*
X46013Y-67357D01*
X46025Y-67345D01*
X46048Y-67333D01*
X46096Y-67321D01*
X46155Y-67321D01*
X46203Y-67333D01*
X46227Y-67345D01*
X46239Y-67357D01*
X46251Y-67380D01*
X46251Y-67404D01*
X46239Y-67428D01*
X46227Y-67440D01*
X46203Y-67452D01*
X46155Y-67464D01*
X46096Y-67464D01*
X46048Y-67452D01*
X46025Y-67440D01*
X46013Y-67428D01*
X46001Y-67404D01*
X45428Y-68689D02*
X45464Y-68701D01*
X45523Y-68701D01*
X45547Y-68689D01*
X45559Y-68677D01*
X45571Y-68653D01*
X45571Y-68629D01*
X45559Y-68605D01*
X45547Y-68594D01*
X45523Y-68582D01*
X45476Y-68570D01*
X45452Y-68558D01*
X45440Y-68546D01*
X45428Y-68522D01*
X45428Y-68498D01*
X45440Y-68475D01*
X45452Y-68463D01*
X45476Y-68451D01*
X45535Y-68451D01*
X45571Y-68463D01*
X45065Y-67813D02*
X45041Y-67801D01*
X45005Y-67801D01*
X44970Y-67813D01*
X44946Y-67836D01*
X44934Y-67860D01*
X44922Y-67908D01*
X44922Y-67944D01*
X44934Y-67991D01*
X44946Y-68015D01*
X44970Y-68039D01*
X45005Y-68051D01*
X45029Y-68051D01*
X45065Y-68039D01*
X45077Y-68027D01*
X45077Y-67944D01*
X45029Y-67944D01*
X44434Y-68701D02*
X44434Y-68451D01*
X44494Y-68451D01*
X44529Y-68463D01*
X44553Y-68486D01*
X44565Y-68510D01*
X44577Y-68558D01*
X44577Y-68594D01*
X44565Y-68641D01*
X44553Y-68665D01*
X44529Y-68689D01*
X44494Y-68701D01*
X44434Y-68701D01*
G54D17*
X55000Y-86028D02*
X54985Y-86057D01*
X54957Y-86085D01*
X54914Y-86128D01*
X54900Y-86157D01*
X54900Y-86185D01*
X54971Y-86171D02*
X54957Y-86200D01*
X54928Y-86228D01*
X54871Y-86242D01*
X54771Y-86242D01*
X54714Y-86228D01*
X54685Y-86200D01*
X54671Y-86171D01*
X54671Y-86114D01*
X54685Y-86085D01*
X54714Y-86057D01*
X54771Y-86042D01*
X54871Y-86042D01*
X54928Y-86057D01*
X54957Y-86085D01*
X54971Y-86114D01*
X54971Y-86171D01*
X54800Y-85871D02*
X54785Y-85900D01*
X54771Y-85914D01*
X54742Y-85928D01*
X54728Y-85928D01*
X54700Y-85914D01*
X54685Y-85900D01*
X54671Y-85871D01*
X54671Y-85814D01*
X54685Y-85785D01*
X54700Y-85771D01*
X54728Y-85757D01*
X54742Y-85757D01*
X54771Y-85771D01*
X54785Y-85785D01*
X54800Y-85814D01*
X54800Y-85871D01*
X54814Y-85900D01*
X54828Y-85914D01*
X54857Y-85928D01*
X54914Y-85928D01*
X54942Y-85914D01*
X54957Y-85900D01*
X54971Y-85871D01*
X54971Y-85814D01*
X54957Y-85785D01*
X54942Y-85771D01*
X54914Y-85757D01*
X54857Y-85757D01*
X54828Y-85771D01*
X54814Y-85785D01*
X54800Y-85814D01*
G54D18*
X57025Y-86678D02*
X57013Y-86666D01*
X57001Y-86642D01*
X57001Y-86583D01*
X57013Y-86559D01*
X57025Y-86547D01*
X57048Y-86535D01*
X57072Y-86535D01*
X57108Y-86547D01*
X57251Y-86690D01*
X57251Y-86535D01*
X57251Y-86428D02*
X57001Y-86428D01*
X57251Y-86285D01*
X57001Y-86285D01*
X57001Y-86190D02*
X57001Y-86023D01*
X57251Y-86130D01*
X57001Y-85880D02*
X57001Y-85857D01*
X57013Y-85833D01*
X57025Y-85821D01*
X57048Y-85809D01*
X57096Y-85797D01*
X57155Y-85797D01*
X57203Y-85809D01*
X57227Y-85821D01*
X57239Y-85833D01*
X57251Y-85857D01*
X57251Y-85880D01*
X57239Y-85904D01*
X57227Y-85916D01*
X57203Y-85928D01*
X57155Y-85940D01*
X57096Y-85940D01*
X57048Y-85928D01*
X57025Y-85916D01*
X57013Y-85904D01*
X57001Y-85880D01*
X57001Y-85642D02*
X57001Y-85619D01*
X57013Y-85595D01*
X57025Y-85583D01*
X57048Y-85571D01*
X57096Y-85559D01*
X57155Y-85559D01*
X57203Y-85571D01*
X57227Y-85583D01*
X57239Y-85595D01*
X57251Y-85619D01*
X57251Y-85642D01*
X57239Y-85666D01*
X57227Y-85678D01*
X57203Y-85690D01*
X57155Y-85702D01*
X57096Y-85702D01*
X57048Y-85690D01*
X57025Y-85678D01*
X57013Y-85666D01*
X57001Y-85642D01*
X57001Y-85404D02*
X57001Y-85380D01*
X57013Y-85357D01*
X57025Y-85345D01*
X57048Y-85333D01*
X57096Y-85321D01*
X57155Y-85321D01*
X57203Y-85333D01*
X57227Y-85345D01*
X57239Y-85357D01*
X57251Y-85380D01*
X57251Y-85404D01*
X57239Y-85428D01*
X57227Y-85440D01*
X57203Y-85452D01*
X57155Y-85464D01*
X57096Y-85464D01*
X57048Y-85452D01*
X57025Y-85440D01*
X57013Y-85428D01*
X57001Y-85404D01*
X56428Y-86689D02*
X56464Y-86701D01*
X56523Y-86701D01*
X56547Y-86689D01*
X56559Y-86677D01*
X56571Y-86653D01*
X56571Y-86629D01*
X56559Y-86605D01*
X56547Y-86594D01*
X56523Y-86582D01*
X56476Y-86570D01*
X56452Y-86558D01*
X56440Y-86546D01*
X56428Y-86522D01*
X56428Y-86498D01*
X56440Y-86475D01*
X56452Y-86463D01*
X56476Y-86451D01*
X56535Y-86451D01*
X56571Y-86463D01*
X56065Y-85813D02*
X56041Y-85801D01*
X56005Y-85801D01*
X55970Y-85813D01*
X55946Y-85836D01*
X55934Y-85860D01*
X55922Y-85908D01*
X55922Y-85944D01*
X55934Y-85991D01*
X55946Y-86015D01*
X55970Y-86039D01*
X56005Y-86051D01*
X56029Y-86051D01*
X56065Y-86039D01*
X56077Y-86027D01*
X56077Y-85944D01*
X56029Y-85944D01*
X55434Y-86701D02*
X55434Y-86451D01*
X55494Y-86451D01*
X55529Y-86463D01*
X55553Y-86486D01*
X55565Y-86510D01*
X55577Y-86558D01*
X55577Y-86594D01*
X55565Y-86641D01*
X55553Y-86665D01*
X55529Y-86689D01*
X55494Y-86701D01*
X55434Y-86701D01*
G54D17*
X55000Y-74028D02*
X54985Y-74057D01*
X54957Y-74085D01*
X54914Y-74128D01*
X54900Y-74157D01*
X54900Y-74185D01*
X54971Y-74171D02*
X54957Y-74200D01*
X54928Y-74228D01*
X54871Y-74242D01*
X54771Y-74242D01*
X54714Y-74228D01*
X54685Y-74200D01*
X54671Y-74171D01*
X54671Y-74114D01*
X54685Y-74085D01*
X54714Y-74057D01*
X54771Y-74042D01*
X54871Y-74042D01*
X54928Y-74057D01*
X54957Y-74085D01*
X54971Y-74114D01*
X54971Y-74171D01*
X54700Y-73928D02*
X54685Y-73914D01*
X54671Y-73885D01*
X54671Y-73814D01*
X54685Y-73785D01*
X54700Y-73771D01*
X54728Y-73757D01*
X54757Y-73757D01*
X54800Y-73771D01*
X54971Y-73942D01*
X54971Y-73757D01*
G54D18*
X57025Y-74678D02*
X57013Y-74666D01*
X57001Y-74642D01*
X57001Y-74583D01*
X57013Y-74559D01*
X57025Y-74547D01*
X57048Y-74535D01*
X57072Y-74535D01*
X57108Y-74547D01*
X57251Y-74690D01*
X57251Y-74535D01*
X57251Y-74428D02*
X57001Y-74428D01*
X57251Y-74285D01*
X57001Y-74285D01*
X57001Y-74190D02*
X57001Y-74023D01*
X57251Y-74130D01*
X57001Y-73880D02*
X57001Y-73857D01*
X57013Y-73833D01*
X57025Y-73821D01*
X57048Y-73809D01*
X57096Y-73797D01*
X57155Y-73797D01*
X57203Y-73809D01*
X57227Y-73821D01*
X57239Y-73833D01*
X57251Y-73857D01*
X57251Y-73880D01*
X57239Y-73904D01*
X57227Y-73916D01*
X57203Y-73928D01*
X57155Y-73940D01*
X57096Y-73940D01*
X57048Y-73928D01*
X57025Y-73916D01*
X57013Y-73904D01*
X57001Y-73880D01*
X57001Y-73642D02*
X57001Y-73619D01*
X57013Y-73595D01*
X57025Y-73583D01*
X57048Y-73571D01*
X57096Y-73559D01*
X57155Y-73559D01*
X57203Y-73571D01*
X57227Y-73583D01*
X57239Y-73595D01*
X57251Y-73619D01*
X57251Y-73642D01*
X57239Y-73666D01*
X57227Y-73678D01*
X57203Y-73690D01*
X57155Y-73702D01*
X57096Y-73702D01*
X57048Y-73690D01*
X57025Y-73678D01*
X57013Y-73666D01*
X57001Y-73642D01*
X57001Y-73404D02*
X57001Y-73380D01*
X57013Y-73357D01*
X57025Y-73345D01*
X57048Y-73333D01*
X57096Y-73321D01*
X57155Y-73321D01*
X57203Y-73333D01*
X57227Y-73345D01*
X57239Y-73357D01*
X57251Y-73380D01*
X57251Y-73404D01*
X57239Y-73428D01*
X57227Y-73440D01*
X57203Y-73452D01*
X57155Y-73464D01*
X57096Y-73464D01*
X57048Y-73452D01*
X57025Y-73440D01*
X57013Y-73428D01*
X57001Y-73404D01*
X56428Y-74689D02*
X56464Y-74701D01*
X56523Y-74701D01*
X56547Y-74689D01*
X56559Y-74677D01*
X56571Y-74653D01*
X56571Y-74629D01*
X56559Y-74605D01*
X56547Y-74594D01*
X56523Y-74582D01*
X56476Y-74570D01*
X56452Y-74558D01*
X56440Y-74546D01*
X56428Y-74522D01*
X56428Y-74498D01*
X56440Y-74475D01*
X56452Y-74463D01*
X56476Y-74451D01*
X56535Y-74451D01*
X56571Y-74463D01*
X56065Y-73813D02*
X56041Y-73801D01*
X56005Y-73801D01*
X55970Y-73813D01*
X55946Y-73836D01*
X55934Y-73860D01*
X55922Y-73908D01*
X55922Y-73944D01*
X55934Y-73991D01*
X55946Y-74015D01*
X55970Y-74039D01*
X56005Y-74051D01*
X56029Y-74051D01*
X56065Y-74039D01*
X56077Y-74027D01*
X56077Y-73944D01*
X56029Y-73944D01*
X55434Y-74701D02*
X55434Y-74451D01*
X55494Y-74451D01*
X55529Y-74463D01*
X55553Y-74486D01*
X55565Y-74510D01*
X55577Y-74558D01*
X55577Y-74594D01*
X55565Y-74641D01*
X55553Y-74665D01*
X55529Y-74689D01*
X55494Y-74701D01*
X55434Y-74701D01*
G54D17*
X55000Y-80028D02*
X54985Y-80057D01*
X54957Y-80085D01*
X54914Y-80128D01*
X54900Y-80157D01*
X54900Y-80185D01*
X54971Y-80171D02*
X54957Y-80200D01*
X54928Y-80228D01*
X54871Y-80242D01*
X54771Y-80242D01*
X54714Y-80228D01*
X54685Y-80200D01*
X54671Y-80171D01*
X54671Y-80114D01*
X54685Y-80085D01*
X54714Y-80057D01*
X54771Y-80042D01*
X54871Y-80042D01*
X54928Y-80057D01*
X54957Y-80085D01*
X54971Y-80114D01*
X54971Y-80171D01*
X54671Y-79785D02*
X54671Y-79842D01*
X54685Y-79871D01*
X54700Y-79885D01*
X54742Y-79914D01*
X54800Y-79928D01*
X54914Y-79928D01*
X54942Y-79914D01*
X54957Y-79900D01*
X54971Y-79871D01*
X54971Y-79814D01*
X54957Y-79785D01*
X54942Y-79771D01*
X54914Y-79757D01*
X54842Y-79757D01*
X54814Y-79771D01*
X54800Y-79785D01*
X54785Y-79814D01*
X54785Y-79871D01*
X54800Y-79900D01*
X54814Y-79914D01*
X54842Y-79928D01*
G54D18*
X57025Y-80678D02*
X57013Y-80666D01*
X57001Y-80642D01*
X57001Y-80583D01*
X57013Y-80559D01*
X57025Y-80547D01*
X57048Y-80535D01*
X57072Y-80535D01*
X57108Y-80547D01*
X57251Y-80690D01*
X57251Y-80535D01*
X57251Y-80428D02*
X57001Y-80428D01*
X57251Y-80285D01*
X57001Y-80285D01*
X57001Y-80190D02*
X57001Y-80023D01*
X57251Y-80130D01*
X57001Y-79880D02*
X57001Y-79857D01*
X57013Y-79833D01*
X57025Y-79821D01*
X57048Y-79809D01*
X57096Y-79797D01*
X57155Y-79797D01*
X57203Y-79809D01*
X57227Y-79821D01*
X57239Y-79833D01*
X57251Y-79857D01*
X57251Y-79880D01*
X57239Y-79904D01*
X57227Y-79916D01*
X57203Y-79928D01*
X57155Y-79940D01*
X57096Y-79940D01*
X57048Y-79928D01*
X57025Y-79916D01*
X57013Y-79904D01*
X57001Y-79880D01*
X57001Y-79642D02*
X57001Y-79619D01*
X57013Y-79595D01*
X57025Y-79583D01*
X57048Y-79571D01*
X57096Y-79559D01*
X57155Y-79559D01*
X57203Y-79571D01*
X57227Y-79583D01*
X57239Y-79595D01*
X57251Y-79619D01*
X57251Y-79642D01*
X57239Y-79666D01*
X57227Y-79678D01*
X57203Y-79690D01*
X57155Y-79702D01*
X57096Y-79702D01*
X57048Y-79690D01*
X57025Y-79678D01*
X57013Y-79666D01*
X57001Y-79642D01*
X57001Y-79404D02*
X57001Y-79380D01*
X57013Y-79357D01*
X57025Y-79345D01*
X57048Y-79333D01*
X57096Y-79321D01*
X57155Y-79321D01*
X57203Y-79333D01*
X57227Y-79345D01*
X57239Y-79357D01*
X57251Y-79380D01*
X57251Y-79404D01*
X57239Y-79428D01*
X57227Y-79440D01*
X57203Y-79452D01*
X57155Y-79464D01*
X57096Y-79464D01*
X57048Y-79452D01*
X57025Y-79440D01*
X57013Y-79428D01*
X57001Y-79404D01*
X56428Y-80689D02*
X56464Y-80701D01*
X56523Y-80701D01*
X56547Y-80689D01*
X56559Y-80677D01*
X56571Y-80653D01*
X56571Y-80629D01*
X56559Y-80605D01*
X56547Y-80594D01*
X56523Y-80582D01*
X56476Y-80570D01*
X56452Y-80558D01*
X56440Y-80546D01*
X56428Y-80522D01*
X56428Y-80498D01*
X56440Y-80475D01*
X56452Y-80463D01*
X56476Y-80451D01*
X56535Y-80451D01*
X56571Y-80463D01*
X56065Y-79813D02*
X56041Y-79801D01*
X56005Y-79801D01*
X55970Y-79813D01*
X55946Y-79836D01*
X55934Y-79860D01*
X55922Y-79908D01*
X55922Y-79944D01*
X55934Y-79991D01*
X55946Y-80015D01*
X55970Y-80039D01*
X56005Y-80051D01*
X56029Y-80051D01*
X56065Y-80039D01*
X56077Y-80027D01*
X56077Y-79944D01*
X56029Y-79944D01*
X55434Y-80701D02*
X55434Y-80451D01*
X55494Y-80451D01*
X55529Y-80463D01*
X55553Y-80486D01*
X55565Y-80510D01*
X55577Y-80558D01*
X55577Y-80594D01*
X55565Y-80641D01*
X55553Y-80665D01*
X55529Y-80689D01*
X55494Y-80701D01*
X55434Y-80701D01*
G54D17*
X55000Y-68171D02*
X54985Y-68200D01*
X54957Y-68228D01*
X54914Y-68271D01*
X54900Y-68300D01*
X54900Y-68328D01*
X54971Y-68314D02*
X54957Y-68342D01*
X54928Y-68371D01*
X54871Y-68385D01*
X54771Y-68385D01*
X54714Y-68371D01*
X54685Y-68342D01*
X54671Y-68314D01*
X54671Y-68257D01*
X54685Y-68228D01*
X54714Y-68200D01*
X54771Y-68185D01*
X54871Y-68185D01*
X54928Y-68200D01*
X54957Y-68228D01*
X54971Y-68257D01*
X54971Y-68314D01*
X54971Y-67900D02*
X54971Y-68071D01*
X54971Y-67985D02*
X54671Y-67985D01*
X54714Y-68014D01*
X54742Y-68042D01*
X54757Y-68071D01*
X54671Y-67714D02*
X54671Y-67685D01*
X54685Y-67657D01*
X54700Y-67642D01*
X54728Y-67628D01*
X54785Y-67614D01*
X54857Y-67614D01*
X54914Y-67628D01*
X54942Y-67642D01*
X54957Y-67657D01*
X54971Y-67685D01*
X54971Y-67714D01*
X54957Y-67742D01*
X54942Y-67757D01*
X54914Y-67771D01*
X54857Y-67785D01*
X54785Y-67785D01*
X54728Y-67771D01*
X54700Y-67757D01*
X54685Y-67742D01*
X54671Y-67714D01*
G54D18*
X57025Y-68678D02*
X57013Y-68666D01*
X57001Y-68642D01*
X57001Y-68583D01*
X57013Y-68559D01*
X57025Y-68547D01*
X57048Y-68535D01*
X57072Y-68535D01*
X57108Y-68547D01*
X57251Y-68690D01*
X57251Y-68535D01*
X57251Y-68428D02*
X57001Y-68428D01*
X57251Y-68285D01*
X57001Y-68285D01*
X57001Y-68190D02*
X57001Y-68023D01*
X57251Y-68130D01*
X57001Y-67880D02*
X57001Y-67857D01*
X57013Y-67833D01*
X57025Y-67821D01*
X57048Y-67809D01*
X57096Y-67797D01*
X57155Y-67797D01*
X57203Y-67809D01*
X57227Y-67821D01*
X57239Y-67833D01*
X57251Y-67857D01*
X57251Y-67880D01*
X57239Y-67904D01*
X57227Y-67916D01*
X57203Y-67928D01*
X57155Y-67940D01*
X57096Y-67940D01*
X57048Y-67928D01*
X57025Y-67916D01*
X57013Y-67904D01*
X57001Y-67880D01*
X57001Y-67642D02*
X57001Y-67619D01*
X57013Y-67595D01*
X57025Y-67583D01*
X57048Y-67571D01*
X57096Y-67559D01*
X57155Y-67559D01*
X57203Y-67571D01*
X57227Y-67583D01*
X57239Y-67595D01*
X57251Y-67619D01*
X57251Y-67642D01*
X57239Y-67666D01*
X57227Y-67678D01*
X57203Y-67690D01*
X57155Y-67702D01*
X57096Y-67702D01*
X57048Y-67690D01*
X57025Y-67678D01*
X57013Y-67666D01*
X57001Y-67642D01*
X57001Y-67404D02*
X57001Y-67380D01*
X57013Y-67357D01*
X57025Y-67345D01*
X57048Y-67333D01*
X57096Y-67321D01*
X57155Y-67321D01*
X57203Y-67333D01*
X57227Y-67345D01*
X57239Y-67357D01*
X57251Y-67380D01*
X57251Y-67404D01*
X57239Y-67428D01*
X57227Y-67440D01*
X57203Y-67452D01*
X57155Y-67464D01*
X57096Y-67464D01*
X57048Y-67452D01*
X57025Y-67440D01*
X57013Y-67428D01*
X57001Y-67404D01*
X56428Y-68689D02*
X56464Y-68701D01*
X56523Y-68701D01*
X56547Y-68689D01*
X56559Y-68677D01*
X56571Y-68653D01*
X56571Y-68629D01*
X56559Y-68605D01*
X56547Y-68594D01*
X56523Y-68582D01*
X56476Y-68570D01*
X56452Y-68558D01*
X56440Y-68546D01*
X56428Y-68522D01*
X56428Y-68498D01*
X56440Y-68475D01*
X56452Y-68463D01*
X56476Y-68451D01*
X56535Y-68451D01*
X56571Y-68463D01*
X56065Y-67813D02*
X56041Y-67801D01*
X56005Y-67801D01*
X55970Y-67813D01*
X55946Y-67836D01*
X55934Y-67860D01*
X55922Y-67908D01*
X55922Y-67944D01*
X55934Y-67991D01*
X55946Y-68015D01*
X55970Y-68039D01*
X56005Y-68051D01*
X56029Y-68051D01*
X56065Y-68039D01*
X56077Y-68027D01*
X56077Y-67944D01*
X56029Y-67944D01*
X55434Y-68701D02*
X55434Y-68451D01*
X55494Y-68451D01*
X55529Y-68463D01*
X55553Y-68486D01*
X55565Y-68510D01*
X55577Y-68558D01*
X55577Y-68594D01*
X55565Y-68641D01*
X55553Y-68665D01*
X55529Y-68689D01*
X55494Y-68701D01*
X55434Y-68701D01*
G54D17*
X44000Y-74171D02*
X43985Y-74200D01*
X43957Y-74228D01*
X43914Y-74271D01*
X43900Y-74300D01*
X43900Y-74328D01*
X43971Y-74314D02*
X43957Y-74342D01*
X43928Y-74371D01*
X43871Y-74385D01*
X43771Y-74385D01*
X43714Y-74371D01*
X43685Y-74342D01*
X43671Y-74314D01*
X43671Y-74257D01*
X43685Y-74228D01*
X43714Y-74200D01*
X43771Y-74185D01*
X43871Y-74185D01*
X43928Y-74200D01*
X43957Y-74228D01*
X43971Y-74257D01*
X43971Y-74314D01*
X43971Y-73900D02*
X43971Y-74071D01*
X43971Y-73985D02*
X43671Y-73985D01*
X43714Y-74014D01*
X43742Y-74042D01*
X43757Y-74071D01*
X43700Y-73785D02*
X43685Y-73771D01*
X43671Y-73742D01*
X43671Y-73671D01*
X43685Y-73642D01*
X43700Y-73628D01*
X43728Y-73614D01*
X43757Y-73614D01*
X43800Y-73628D01*
X43971Y-73800D01*
X43971Y-73614D01*
G54D18*
X46025Y-74678D02*
X46013Y-74666D01*
X46001Y-74642D01*
X46001Y-74583D01*
X46013Y-74559D01*
X46025Y-74547D01*
X46048Y-74535D01*
X46072Y-74535D01*
X46108Y-74547D01*
X46251Y-74690D01*
X46251Y-74535D01*
X46251Y-74428D02*
X46001Y-74428D01*
X46251Y-74285D01*
X46001Y-74285D01*
X46001Y-74190D02*
X46001Y-74023D01*
X46251Y-74130D01*
X46001Y-73880D02*
X46001Y-73857D01*
X46013Y-73833D01*
X46025Y-73821D01*
X46048Y-73809D01*
X46096Y-73797D01*
X46155Y-73797D01*
X46203Y-73809D01*
X46227Y-73821D01*
X46239Y-73833D01*
X46251Y-73857D01*
X46251Y-73880D01*
X46239Y-73904D01*
X46227Y-73916D01*
X46203Y-73928D01*
X46155Y-73940D01*
X46096Y-73940D01*
X46048Y-73928D01*
X46025Y-73916D01*
X46013Y-73904D01*
X46001Y-73880D01*
X46001Y-73642D02*
X46001Y-73619D01*
X46013Y-73595D01*
X46025Y-73583D01*
X46048Y-73571D01*
X46096Y-73559D01*
X46155Y-73559D01*
X46203Y-73571D01*
X46227Y-73583D01*
X46239Y-73595D01*
X46251Y-73619D01*
X46251Y-73642D01*
X46239Y-73666D01*
X46227Y-73678D01*
X46203Y-73690D01*
X46155Y-73702D01*
X46096Y-73702D01*
X46048Y-73690D01*
X46025Y-73678D01*
X46013Y-73666D01*
X46001Y-73642D01*
X46001Y-73404D02*
X46001Y-73380D01*
X46013Y-73357D01*
X46025Y-73345D01*
X46048Y-73333D01*
X46096Y-73321D01*
X46155Y-73321D01*
X46203Y-73333D01*
X46227Y-73345D01*
X46239Y-73357D01*
X46251Y-73380D01*
X46251Y-73404D01*
X46239Y-73428D01*
X46227Y-73440D01*
X46203Y-73452D01*
X46155Y-73464D01*
X46096Y-73464D01*
X46048Y-73452D01*
X46025Y-73440D01*
X46013Y-73428D01*
X46001Y-73404D01*
X45428Y-74689D02*
X45464Y-74701D01*
X45523Y-74701D01*
X45547Y-74689D01*
X45559Y-74677D01*
X45571Y-74653D01*
X45571Y-74629D01*
X45559Y-74605D01*
X45547Y-74594D01*
X45523Y-74582D01*
X45476Y-74570D01*
X45452Y-74558D01*
X45440Y-74546D01*
X45428Y-74522D01*
X45428Y-74498D01*
X45440Y-74475D01*
X45452Y-74463D01*
X45476Y-74451D01*
X45535Y-74451D01*
X45571Y-74463D01*
X45065Y-73813D02*
X45041Y-73801D01*
X45005Y-73801D01*
X44970Y-73813D01*
X44946Y-73836D01*
X44934Y-73860D01*
X44922Y-73908D01*
X44922Y-73944D01*
X44934Y-73991D01*
X44946Y-74015D01*
X44970Y-74039D01*
X45005Y-74051D01*
X45029Y-74051D01*
X45065Y-74039D01*
X45077Y-74027D01*
X45077Y-73944D01*
X45029Y-73944D01*
X44434Y-74701D02*
X44434Y-74451D01*
X44494Y-74451D01*
X44529Y-74463D01*
X44553Y-74486D01*
X44565Y-74510D01*
X44577Y-74558D01*
X44577Y-74594D01*
X44565Y-74641D01*
X44553Y-74665D01*
X44529Y-74689D01*
X44494Y-74701D01*
X44434Y-74701D01*
G54D17*
X34342Y-97864D02*
X34357Y-97878D01*
X34371Y-97921D01*
X34371Y-97950D01*
X34357Y-97992D01*
X34328Y-98021D01*
X34300Y-98035D01*
X34242Y-98050D01*
X34200Y-98050D01*
X34142Y-98035D01*
X34114Y-98021D01*
X34085Y-97992D01*
X34071Y-97950D01*
X34071Y-97921D01*
X34085Y-97878D01*
X34100Y-97864D01*
X34071Y-97678D02*
X34071Y-97621D01*
X34085Y-97592D01*
X34114Y-97564D01*
X34171Y-97550D01*
X34271Y-97550D01*
X34328Y-97564D01*
X34357Y-97592D01*
X34371Y-97621D01*
X34371Y-97678D01*
X34357Y-97707D01*
X34328Y-97735D01*
X34271Y-97750D01*
X34171Y-97750D01*
X34114Y-97735D01*
X34085Y-97707D01*
X34071Y-97678D01*
X34371Y-97421D02*
X34071Y-97421D01*
X34371Y-97250D01*
X34071Y-97250D01*
X34071Y-97135D02*
X34071Y-96950D01*
X34185Y-97050D01*
X34185Y-97007D01*
X34200Y-96978D01*
X34214Y-96964D01*
X34242Y-96950D01*
X34314Y-96950D01*
X34342Y-96964D01*
X34357Y-96978D01*
X34371Y-97007D01*
X34371Y-97092D01*
X34357Y-97121D01*
X34342Y-97135D01*
X36397Y-96184D02*
X36397Y-95884D01*
X36511Y-95884D01*
X36540Y-95898D01*
X36554Y-95912D01*
X36569Y-95941D01*
X36569Y-95984D01*
X36554Y-96012D01*
X36540Y-96027D01*
X36511Y-96041D01*
X36397Y-96041D01*
X36783Y-95884D02*
X36783Y-96098D01*
X36769Y-96141D01*
X36740Y-96170D01*
X36697Y-96184D01*
X36669Y-96184D01*
X36926Y-96070D02*
X37154Y-96070D01*
X37269Y-95884D02*
X37454Y-95884D01*
X37354Y-95998D01*
X37397Y-95998D01*
X37426Y-96012D01*
X37440Y-96027D01*
X37454Y-96055D01*
X37454Y-96127D01*
X37440Y-96155D01*
X37426Y-96170D01*
X37397Y-96184D01*
X37311Y-96184D01*
X37283Y-96170D01*
X37269Y-96155D01*
X37640Y-95884D02*
X37669Y-95884D01*
X37697Y-95898D01*
X37711Y-95912D01*
X37726Y-95941D01*
X37740Y-95998D01*
X37740Y-96070D01*
X37726Y-96127D01*
X37711Y-96155D01*
X37697Y-96170D01*
X37669Y-96184D01*
X37640Y-96184D01*
X37611Y-96170D01*
X37597Y-96155D01*
X37583Y-96127D01*
X37569Y-96070D01*
X37569Y-95998D01*
X37583Y-95941D01*
X37597Y-95912D01*
X37611Y-95898D01*
X37640Y-95884D01*
X37840Y-95884D02*
X38040Y-95884D01*
X37911Y-96184D01*
X55007Y-76121D02*
X54907Y-75978D01*
X54835Y-76121D02*
X54835Y-75821D01*
X54950Y-75821D01*
X54978Y-75835D01*
X54992Y-75850D01*
X55007Y-75878D01*
X55007Y-75921D01*
X54992Y-75950D01*
X54978Y-75964D01*
X54950Y-75978D01*
X54835Y-75978D01*
X55292Y-76121D02*
X55121Y-76121D01*
X55207Y-76121D02*
X55207Y-75821D01*
X55178Y-75864D01*
X55150Y-75892D01*
X55121Y-75907D01*
X55435Y-76121D02*
X55492Y-76121D01*
X55521Y-76107D01*
X55535Y-76092D01*
X55564Y-76050D01*
X55578Y-75992D01*
X55578Y-75878D01*
X55564Y-75850D01*
X55550Y-75835D01*
X55521Y-75821D01*
X55464Y-75821D01*
X55435Y-75835D01*
X55421Y-75850D01*
X55407Y-75878D01*
X55407Y-75950D01*
X55421Y-75978D01*
X55435Y-75992D01*
X55464Y-76007D01*
X55521Y-76007D01*
X55550Y-75992D01*
X55564Y-75978D01*
X55578Y-75950D01*
X56478Y-76121D02*
X56307Y-76121D01*
X56392Y-76121D02*
X56392Y-75821D01*
X56364Y-75864D01*
X56335Y-75892D01*
X56307Y-75907D01*
X56664Y-75821D02*
X56692Y-75821D01*
X56721Y-75835D01*
X56735Y-75850D01*
X56750Y-75878D01*
X56764Y-75935D01*
X56764Y-76007D01*
X56750Y-76064D01*
X56735Y-76092D01*
X56721Y-76107D01*
X56692Y-76121D01*
X56664Y-76121D01*
X56635Y-76107D01*
X56621Y-76092D01*
X56607Y-76064D01*
X56592Y-76007D01*
X56592Y-75935D01*
X56607Y-75878D01*
X56621Y-75850D01*
X56635Y-75835D01*
X56664Y-75821D01*
X56950Y-75821D02*
X56978Y-75821D01*
X57007Y-75835D01*
X57021Y-75850D01*
X57035Y-75878D01*
X57050Y-75935D01*
X57050Y-76007D01*
X57035Y-76064D01*
X57021Y-76092D01*
X57007Y-76107D01*
X56978Y-76121D01*
X56950Y-76121D01*
X56921Y-76107D01*
X56907Y-76092D01*
X56892Y-76064D01*
X56878Y-76007D01*
X56878Y-75935D01*
X56892Y-75878D01*
X56907Y-75850D01*
X56921Y-75835D01*
X56950Y-75821D01*
X57178Y-76121D02*
X57178Y-75821D01*
X57207Y-76007D02*
X57292Y-76121D01*
X57292Y-75921D02*
X57178Y-76035D01*
X40607Y-70121D02*
X40507Y-69978D01*
X40435Y-70121D02*
X40435Y-69821D01*
X40550Y-69821D01*
X40578Y-69835D01*
X40592Y-69850D01*
X40607Y-69878D01*
X40607Y-69921D01*
X40592Y-69950D01*
X40578Y-69964D01*
X40550Y-69978D01*
X40435Y-69978D01*
X40892Y-70121D02*
X40721Y-70121D01*
X40807Y-70121D02*
X40807Y-69821D01*
X40778Y-69864D01*
X40750Y-69892D01*
X40721Y-69907D01*
X41150Y-69821D02*
X41092Y-69821D01*
X41064Y-69835D01*
X41050Y-69850D01*
X41021Y-69892D01*
X41007Y-69950D01*
X41007Y-70064D01*
X41021Y-70092D01*
X41035Y-70107D01*
X41064Y-70121D01*
X41121Y-70121D01*
X41150Y-70107D01*
X41164Y-70092D01*
X41178Y-70064D01*
X41178Y-69992D01*
X41164Y-69964D01*
X41150Y-69950D01*
X41121Y-69935D01*
X41064Y-69935D01*
X41035Y-69950D01*
X41021Y-69964D01*
X41007Y-69992D01*
X38878Y-70121D02*
X38707Y-70121D01*
X38792Y-70121D02*
X38792Y-69821D01*
X38764Y-69864D01*
X38735Y-69892D01*
X38707Y-69907D01*
X39064Y-69821D02*
X39092Y-69821D01*
X39121Y-69835D01*
X39135Y-69850D01*
X39150Y-69878D01*
X39164Y-69935D01*
X39164Y-70007D01*
X39150Y-70064D01*
X39135Y-70092D01*
X39121Y-70107D01*
X39092Y-70121D01*
X39064Y-70121D01*
X39035Y-70107D01*
X39021Y-70092D01*
X39007Y-70064D01*
X38992Y-70007D01*
X38992Y-69935D01*
X39007Y-69878D01*
X39021Y-69850D01*
X39035Y-69835D01*
X39064Y-69821D01*
X39350Y-69821D02*
X39378Y-69821D01*
X39407Y-69835D01*
X39421Y-69850D01*
X39435Y-69878D01*
X39450Y-69935D01*
X39450Y-70007D01*
X39435Y-70064D01*
X39421Y-70092D01*
X39407Y-70107D01*
X39378Y-70121D01*
X39350Y-70121D01*
X39321Y-70107D01*
X39307Y-70092D01*
X39292Y-70064D01*
X39278Y-70007D01*
X39278Y-69935D01*
X39292Y-69878D01*
X39307Y-69850D01*
X39321Y-69835D01*
X39350Y-69821D01*
X39578Y-70121D02*
X39578Y-69821D01*
X39607Y-70007D02*
X39692Y-70121D01*
X39692Y-69921D02*
X39578Y-70035D01*
X51607Y-76121D02*
X51507Y-75978D01*
X51435Y-76121D02*
X51435Y-75821D01*
X51550Y-75821D01*
X51578Y-75835D01*
X51592Y-75850D01*
X51607Y-75878D01*
X51607Y-75921D01*
X51592Y-75950D01*
X51578Y-75964D01*
X51550Y-75978D01*
X51435Y-75978D01*
X51892Y-76121D02*
X51721Y-76121D01*
X51807Y-76121D02*
X51807Y-75821D01*
X51778Y-75864D01*
X51750Y-75892D01*
X51721Y-75907D01*
X52064Y-75950D02*
X52035Y-75935D01*
X52021Y-75921D01*
X52007Y-75892D01*
X52007Y-75878D01*
X52021Y-75850D01*
X52035Y-75835D01*
X52064Y-75821D01*
X52121Y-75821D01*
X52150Y-75835D01*
X52164Y-75850D01*
X52178Y-75878D01*
X52178Y-75892D01*
X52164Y-75921D01*
X52150Y-75935D01*
X52121Y-75950D01*
X52064Y-75950D01*
X52035Y-75964D01*
X52021Y-75978D01*
X52007Y-76007D01*
X52007Y-76064D01*
X52021Y-76092D01*
X52035Y-76107D01*
X52064Y-76121D01*
X52121Y-76121D01*
X52150Y-76107D01*
X52164Y-76092D01*
X52178Y-76064D01*
X52178Y-76007D01*
X52164Y-75978D01*
X52150Y-75964D01*
X52121Y-75950D01*
X49878Y-76121D02*
X49707Y-76121D01*
X49792Y-76121D02*
X49792Y-75821D01*
X49764Y-75864D01*
X49735Y-75892D01*
X49707Y-75907D01*
X50064Y-75821D02*
X50092Y-75821D01*
X50121Y-75835D01*
X50135Y-75850D01*
X50150Y-75878D01*
X50164Y-75935D01*
X50164Y-76007D01*
X50150Y-76064D01*
X50135Y-76092D01*
X50121Y-76107D01*
X50092Y-76121D01*
X50064Y-76121D01*
X50035Y-76107D01*
X50021Y-76092D01*
X50007Y-76064D01*
X49992Y-76007D01*
X49992Y-75935D01*
X50007Y-75878D01*
X50021Y-75850D01*
X50035Y-75835D01*
X50064Y-75821D01*
X50350Y-75821D02*
X50378Y-75821D01*
X50407Y-75835D01*
X50421Y-75850D01*
X50435Y-75878D01*
X50450Y-75935D01*
X50450Y-76007D01*
X50435Y-76064D01*
X50421Y-76092D01*
X50407Y-76107D01*
X50378Y-76121D01*
X50350Y-76121D01*
X50321Y-76107D01*
X50307Y-76092D01*
X50292Y-76064D01*
X50278Y-76007D01*
X50278Y-75935D01*
X50292Y-75878D01*
X50307Y-75850D01*
X50321Y-75835D01*
X50350Y-75821D01*
X50578Y-76121D02*
X50578Y-75821D01*
X50607Y-76007D02*
X50692Y-76121D01*
X50692Y-75921D02*
X50578Y-76035D01*
X51607Y-82121D02*
X51507Y-81978D01*
X51435Y-82121D02*
X51435Y-81821D01*
X51550Y-81821D01*
X51578Y-81835D01*
X51592Y-81850D01*
X51607Y-81878D01*
X51607Y-81921D01*
X51592Y-81950D01*
X51578Y-81964D01*
X51550Y-81978D01*
X51435Y-81978D01*
X51892Y-82121D02*
X51721Y-82121D01*
X51807Y-82121D02*
X51807Y-81821D01*
X51778Y-81864D01*
X51750Y-81892D01*
X51721Y-81907D01*
X52007Y-81850D02*
X52021Y-81835D01*
X52050Y-81821D01*
X52121Y-81821D01*
X52150Y-81835D01*
X52164Y-81850D01*
X52178Y-81878D01*
X52178Y-81907D01*
X52164Y-81950D01*
X51992Y-82121D01*
X52178Y-82121D01*
X49878Y-82121D02*
X49707Y-82121D01*
X49792Y-82121D02*
X49792Y-81821D01*
X49764Y-81864D01*
X49735Y-81892D01*
X49707Y-81907D01*
X50064Y-81821D02*
X50092Y-81821D01*
X50121Y-81835D01*
X50135Y-81850D01*
X50150Y-81878D01*
X50164Y-81935D01*
X50164Y-82007D01*
X50150Y-82064D01*
X50135Y-82092D01*
X50121Y-82107D01*
X50092Y-82121D01*
X50064Y-82121D01*
X50035Y-82107D01*
X50021Y-82092D01*
X50007Y-82064D01*
X49992Y-82007D01*
X49992Y-81935D01*
X50007Y-81878D01*
X50021Y-81850D01*
X50035Y-81835D01*
X50064Y-81821D01*
X50350Y-81821D02*
X50378Y-81821D01*
X50407Y-81835D01*
X50421Y-81850D01*
X50435Y-81878D01*
X50450Y-81935D01*
X50450Y-82007D01*
X50435Y-82064D01*
X50421Y-82092D01*
X50407Y-82107D01*
X50378Y-82121D01*
X50350Y-82121D01*
X50321Y-82107D01*
X50307Y-82092D01*
X50292Y-82064D01*
X50278Y-82007D01*
X50278Y-81935D01*
X50292Y-81878D01*
X50307Y-81850D01*
X50321Y-81835D01*
X50350Y-81821D01*
X50578Y-82121D02*
X50578Y-81821D01*
X50607Y-82007D02*
X50692Y-82121D01*
X50692Y-81921D02*
X50578Y-82035D01*
X44007Y-70121D02*
X43907Y-69978D01*
X43835Y-70121D02*
X43835Y-69821D01*
X43950Y-69821D01*
X43978Y-69835D01*
X43992Y-69850D01*
X44007Y-69878D01*
X44007Y-69921D01*
X43992Y-69950D01*
X43978Y-69964D01*
X43950Y-69978D01*
X43835Y-69978D01*
X44292Y-70121D02*
X44121Y-70121D01*
X44207Y-70121D02*
X44207Y-69821D01*
X44178Y-69864D01*
X44150Y-69892D01*
X44121Y-69907D01*
X44392Y-69821D02*
X44592Y-69821D01*
X44464Y-70121D01*
X45478Y-70121D02*
X45307Y-70121D01*
X45392Y-70121D02*
X45392Y-69821D01*
X45364Y-69864D01*
X45335Y-69892D01*
X45307Y-69907D01*
X45664Y-69821D02*
X45692Y-69821D01*
X45721Y-69835D01*
X45735Y-69850D01*
X45750Y-69878D01*
X45764Y-69935D01*
X45764Y-70007D01*
X45750Y-70064D01*
X45735Y-70092D01*
X45721Y-70107D01*
X45692Y-70121D01*
X45664Y-70121D01*
X45635Y-70107D01*
X45621Y-70092D01*
X45607Y-70064D01*
X45592Y-70007D01*
X45592Y-69935D01*
X45607Y-69878D01*
X45621Y-69850D01*
X45635Y-69835D01*
X45664Y-69821D01*
X45950Y-69821D02*
X45978Y-69821D01*
X46007Y-69835D01*
X46021Y-69850D01*
X46035Y-69878D01*
X46050Y-69935D01*
X46050Y-70007D01*
X46035Y-70064D01*
X46021Y-70092D01*
X46007Y-70107D01*
X45978Y-70121D01*
X45950Y-70121D01*
X45921Y-70107D01*
X45907Y-70092D01*
X45892Y-70064D01*
X45878Y-70007D01*
X45878Y-69935D01*
X45892Y-69878D01*
X45907Y-69850D01*
X45921Y-69835D01*
X45950Y-69821D01*
X46178Y-70121D02*
X46178Y-69821D01*
X46207Y-70007D02*
X46292Y-70121D01*
X46292Y-69921D02*
X46178Y-70035D01*
X44150Y-76121D02*
X44050Y-75978D01*
X43978Y-76121D02*
X43978Y-75821D01*
X44092Y-75821D01*
X44121Y-75835D01*
X44135Y-75850D01*
X44150Y-75878D01*
X44150Y-75921D01*
X44135Y-75950D01*
X44121Y-75964D01*
X44092Y-75978D01*
X43978Y-75978D01*
X44292Y-76121D02*
X44350Y-76121D01*
X44378Y-76107D01*
X44392Y-76092D01*
X44421Y-76050D01*
X44435Y-75992D01*
X44435Y-75878D01*
X44421Y-75850D01*
X44407Y-75835D01*
X44378Y-75821D01*
X44321Y-75821D01*
X44292Y-75835D01*
X44278Y-75850D01*
X44264Y-75878D01*
X44264Y-75950D01*
X44278Y-75978D01*
X44292Y-75992D01*
X44321Y-76007D01*
X44378Y-76007D01*
X44407Y-75992D01*
X44421Y-75978D01*
X44435Y-75950D01*
X45478Y-76121D02*
X45307Y-76121D01*
X45392Y-76121D02*
X45392Y-75821D01*
X45364Y-75864D01*
X45335Y-75892D01*
X45307Y-75907D01*
X45664Y-75821D02*
X45692Y-75821D01*
X45721Y-75835D01*
X45735Y-75850D01*
X45750Y-75878D01*
X45764Y-75935D01*
X45764Y-76007D01*
X45750Y-76064D01*
X45735Y-76092D01*
X45721Y-76107D01*
X45692Y-76121D01*
X45664Y-76121D01*
X45635Y-76107D01*
X45621Y-76092D01*
X45607Y-76064D01*
X45592Y-76007D01*
X45592Y-75935D01*
X45607Y-75878D01*
X45621Y-75850D01*
X45635Y-75835D01*
X45664Y-75821D01*
X45950Y-75821D02*
X45978Y-75821D01*
X46007Y-75835D01*
X46021Y-75850D01*
X46035Y-75878D01*
X46050Y-75935D01*
X46050Y-76007D01*
X46035Y-76064D01*
X46021Y-76092D01*
X46007Y-76107D01*
X45978Y-76121D01*
X45950Y-76121D01*
X45921Y-76107D01*
X45907Y-76092D01*
X45892Y-76064D01*
X45878Y-76007D01*
X45878Y-75935D01*
X45892Y-75878D01*
X45907Y-75850D01*
X45921Y-75835D01*
X45950Y-75821D01*
X46178Y-76121D02*
X46178Y-75821D01*
X46207Y-76007D02*
X46292Y-76121D01*
X46292Y-75921D02*
X46178Y-76035D01*
X55007Y-82121D02*
X54907Y-81978D01*
X54835Y-82121D02*
X54835Y-81821D01*
X54950Y-81821D01*
X54978Y-81835D01*
X54992Y-81850D01*
X55007Y-81878D01*
X55007Y-81921D01*
X54992Y-81950D01*
X54978Y-81964D01*
X54950Y-81978D01*
X54835Y-81978D01*
X55292Y-82121D02*
X55121Y-82121D01*
X55207Y-82121D02*
X55207Y-81821D01*
X55178Y-81864D01*
X55150Y-81892D01*
X55121Y-81907D01*
X55392Y-81821D02*
X55578Y-81821D01*
X55478Y-81935D01*
X55521Y-81935D01*
X55550Y-81950D01*
X55564Y-81964D01*
X55578Y-81992D01*
X55578Y-82064D01*
X55564Y-82092D01*
X55550Y-82107D01*
X55521Y-82121D01*
X55435Y-82121D01*
X55407Y-82107D01*
X55392Y-82092D01*
X56478Y-82121D02*
X56307Y-82121D01*
X56392Y-82121D02*
X56392Y-81821D01*
X56364Y-81864D01*
X56335Y-81892D01*
X56307Y-81907D01*
X56664Y-81821D02*
X56692Y-81821D01*
X56721Y-81835D01*
X56735Y-81850D01*
X56750Y-81878D01*
X56764Y-81935D01*
X56764Y-82007D01*
X56750Y-82064D01*
X56735Y-82092D01*
X56721Y-82107D01*
X56692Y-82121D01*
X56664Y-82121D01*
X56635Y-82107D01*
X56621Y-82092D01*
X56607Y-82064D01*
X56592Y-82007D01*
X56592Y-81935D01*
X56607Y-81878D01*
X56621Y-81850D01*
X56635Y-81835D01*
X56664Y-81821D01*
X56950Y-81821D02*
X56978Y-81821D01*
X57007Y-81835D01*
X57021Y-81850D01*
X57035Y-81878D01*
X57050Y-81935D01*
X57050Y-82007D01*
X57035Y-82064D01*
X57021Y-82092D01*
X57007Y-82107D01*
X56978Y-82121D01*
X56950Y-82121D01*
X56921Y-82107D01*
X56907Y-82092D01*
X56892Y-82064D01*
X56878Y-82007D01*
X56878Y-81935D01*
X56892Y-81878D01*
X56907Y-81850D01*
X56921Y-81835D01*
X56950Y-81821D01*
X57178Y-82121D02*
X57178Y-81821D01*
X57207Y-82007D02*
X57292Y-82121D01*
X57292Y-81921D02*
X57178Y-82035D01*
X51607Y-88121D02*
X51507Y-87978D01*
X51435Y-88121D02*
X51435Y-87821D01*
X51550Y-87821D01*
X51578Y-87835D01*
X51592Y-87850D01*
X51607Y-87878D01*
X51607Y-87921D01*
X51592Y-87950D01*
X51578Y-87964D01*
X51550Y-87978D01*
X51435Y-87978D01*
X51892Y-88121D02*
X51721Y-88121D01*
X51807Y-88121D02*
X51807Y-87821D01*
X51778Y-87864D01*
X51750Y-87892D01*
X51721Y-87907D01*
X52150Y-87921D02*
X52150Y-88121D01*
X52078Y-87807D02*
X52007Y-88021D01*
X52192Y-88021D01*
X49878Y-88121D02*
X49707Y-88121D01*
X49792Y-88121D02*
X49792Y-87821D01*
X49764Y-87864D01*
X49735Y-87892D01*
X49707Y-87907D01*
X50064Y-87821D02*
X50092Y-87821D01*
X50121Y-87835D01*
X50135Y-87850D01*
X50150Y-87878D01*
X50164Y-87935D01*
X50164Y-88007D01*
X50150Y-88064D01*
X50135Y-88092D01*
X50121Y-88107D01*
X50092Y-88121D01*
X50064Y-88121D01*
X50035Y-88107D01*
X50021Y-88092D01*
X50007Y-88064D01*
X49992Y-88007D01*
X49992Y-87935D01*
X50007Y-87878D01*
X50021Y-87850D01*
X50035Y-87835D01*
X50064Y-87821D01*
X50350Y-87821D02*
X50378Y-87821D01*
X50407Y-87835D01*
X50421Y-87850D01*
X50435Y-87878D01*
X50450Y-87935D01*
X50450Y-88007D01*
X50435Y-88064D01*
X50421Y-88092D01*
X50407Y-88107D01*
X50378Y-88121D01*
X50350Y-88121D01*
X50321Y-88107D01*
X50307Y-88092D01*
X50292Y-88064D01*
X50278Y-88007D01*
X50278Y-87935D01*
X50292Y-87878D01*
X50307Y-87850D01*
X50321Y-87835D01*
X50350Y-87821D01*
X50578Y-88121D02*
X50578Y-87821D01*
X50607Y-88007D02*
X50692Y-88121D01*
X50692Y-87921D02*
X50578Y-88035D01*
X55007Y-88121D02*
X54907Y-87978D01*
X54835Y-88121D02*
X54835Y-87821D01*
X54950Y-87821D01*
X54978Y-87835D01*
X54992Y-87850D01*
X55007Y-87878D01*
X55007Y-87921D01*
X54992Y-87950D01*
X54978Y-87964D01*
X54950Y-87978D01*
X54835Y-87978D01*
X55292Y-88121D02*
X55121Y-88121D01*
X55207Y-88121D02*
X55207Y-87821D01*
X55178Y-87864D01*
X55150Y-87892D01*
X55121Y-87907D01*
X55564Y-87821D02*
X55421Y-87821D01*
X55407Y-87964D01*
X55421Y-87950D01*
X55450Y-87935D01*
X55521Y-87935D01*
X55550Y-87950D01*
X55564Y-87964D01*
X55578Y-87992D01*
X55578Y-88064D01*
X55564Y-88092D01*
X55550Y-88107D01*
X55521Y-88121D01*
X55450Y-88121D01*
X55421Y-88107D01*
X55407Y-88092D01*
X56478Y-88121D02*
X56307Y-88121D01*
X56392Y-88121D02*
X56392Y-87821D01*
X56364Y-87864D01*
X56335Y-87892D01*
X56307Y-87907D01*
X56664Y-87821D02*
X56692Y-87821D01*
X56721Y-87835D01*
X56735Y-87850D01*
X56750Y-87878D01*
X56764Y-87935D01*
X56764Y-88007D01*
X56750Y-88064D01*
X56735Y-88092D01*
X56721Y-88107D01*
X56692Y-88121D01*
X56664Y-88121D01*
X56635Y-88107D01*
X56621Y-88092D01*
X56607Y-88064D01*
X56592Y-88007D01*
X56592Y-87935D01*
X56607Y-87878D01*
X56621Y-87850D01*
X56635Y-87835D01*
X56664Y-87821D01*
X56950Y-87821D02*
X56978Y-87821D01*
X57007Y-87835D01*
X57021Y-87850D01*
X57035Y-87878D01*
X57050Y-87935D01*
X57050Y-88007D01*
X57035Y-88064D01*
X57021Y-88092D01*
X57007Y-88107D01*
X56978Y-88121D01*
X56950Y-88121D01*
X56921Y-88107D01*
X56907Y-88092D01*
X56892Y-88064D01*
X56878Y-88007D01*
X56878Y-87935D01*
X56892Y-87878D01*
X56907Y-87850D01*
X56921Y-87835D01*
X56950Y-87821D01*
X57178Y-88121D02*
X57178Y-87821D01*
X57207Y-88007D02*
X57292Y-88121D01*
X57292Y-87921D02*
X57178Y-88035D01*
X51607Y-70121D02*
X51507Y-69978D01*
X51435Y-70121D02*
X51435Y-69821D01*
X51550Y-69821D01*
X51578Y-69835D01*
X51592Y-69850D01*
X51607Y-69878D01*
X51607Y-69921D01*
X51592Y-69950D01*
X51578Y-69964D01*
X51550Y-69978D01*
X51435Y-69978D01*
X51892Y-70121D02*
X51721Y-70121D01*
X51807Y-70121D02*
X51807Y-69821D01*
X51778Y-69864D01*
X51750Y-69892D01*
X51721Y-69907D01*
X52078Y-69821D02*
X52107Y-69821D01*
X52135Y-69835D01*
X52150Y-69850D01*
X52164Y-69878D01*
X52178Y-69935D01*
X52178Y-70007D01*
X52164Y-70064D01*
X52150Y-70092D01*
X52135Y-70107D01*
X52107Y-70121D01*
X52078Y-70121D01*
X52050Y-70107D01*
X52035Y-70092D01*
X52021Y-70064D01*
X52007Y-70007D01*
X52007Y-69935D01*
X52021Y-69878D01*
X52035Y-69850D01*
X52050Y-69835D01*
X52078Y-69821D01*
X49878Y-70121D02*
X49707Y-70121D01*
X49792Y-70121D02*
X49792Y-69821D01*
X49764Y-69864D01*
X49735Y-69892D01*
X49707Y-69907D01*
X50064Y-69821D02*
X50092Y-69821D01*
X50121Y-69835D01*
X50135Y-69850D01*
X50150Y-69878D01*
X50164Y-69935D01*
X50164Y-70007D01*
X50150Y-70064D01*
X50135Y-70092D01*
X50121Y-70107D01*
X50092Y-70121D01*
X50064Y-70121D01*
X50035Y-70107D01*
X50021Y-70092D01*
X50007Y-70064D01*
X49992Y-70007D01*
X49992Y-69935D01*
X50007Y-69878D01*
X50021Y-69850D01*
X50035Y-69835D01*
X50064Y-69821D01*
X50350Y-69821D02*
X50378Y-69821D01*
X50407Y-69835D01*
X50421Y-69850D01*
X50435Y-69878D01*
X50450Y-69935D01*
X50450Y-70007D01*
X50435Y-70064D01*
X50421Y-70092D01*
X50407Y-70107D01*
X50378Y-70121D01*
X50350Y-70121D01*
X50321Y-70107D01*
X50307Y-70092D01*
X50292Y-70064D01*
X50278Y-70007D01*
X50278Y-69935D01*
X50292Y-69878D01*
X50307Y-69850D01*
X50321Y-69835D01*
X50350Y-69821D01*
X50578Y-70121D02*
X50578Y-69821D01*
X50607Y-70007D02*
X50692Y-70121D01*
X50692Y-69921D02*
X50578Y-70035D01*
X55007Y-70121D02*
X54907Y-69978D01*
X54835Y-70121D02*
X54835Y-69821D01*
X54950Y-69821D01*
X54978Y-69835D01*
X54992Y-69850D01*
X55007Y-69878D01*
X55007Y-69921D01*
X54992Y-69950D01*
X54978Y-69964D01*
X54950Y-69978D01*
X54835Y-69978D01*
X55292Y-70121D02*
X55121Y-70121D01*
X55207Y-70121D02*
X55207Y-69821D01*
X55178Y-69864D01*
X55150Y-69892D01*
X55121Y-69907D01*
X55578Y-70121D02*
X55407Y-70121D01*
X55492Y-70121D02*
X55492Y-69821D01*
X55464Y-69864D01*
X55435Y-69892D01*
X55407Y-69907D01*
X56478Y-70121D02*
X56307Y-70121D01*
X56392Y-70121D02*
X56392Y-69821D01*
X56364Y-69864D01*
X56335Y-69892D01*
X56307Y-69907D01*
X56664Y-69821D02*
X56692Y-69821D01*
X56721Y-69835D01*
X56735Y-69850D01*
X56750Y-69878D01*
X56764Y-69935D01*
X56764Y-70007D01*
X56750Y-70064D01*
X56735Y-70092D01*
X56721Y-70107D01*
X56692Y-70121D01*
X56664Y-70121D01*
X56635Y-70107D01*
X56621Y-70092D01*
X56607Y-70064D01*
X56592Y-70007D01*
X56592Y-69935D01*
X56607Y-69878D01*
X56621Y-69850D01*
X56635Y-69835D01*
X56664Y-69821D01*
X56950Y-69821D02*
X56978Y-69821D01*
X57007Y-69835D01*
X57021Y-69850D01*
X57035Y-69878D01*
X57050Y-69935D01*
X57050Y-70007D01*
X57035Y-70064D01*
X57021Y-70092D01*
X57007Y-70107D01*
X56978Y-70121D01*
X56950Y-70121D01*
X56921Y-70107D01*
X56907Y-70092D01*
X56892Y-70064D01*
X56878Y-70007D01*
X56878Y-69935D01*
X56892Y-69878D01*
X56907Y-69850D01*
X56921Y-69835D01*
X56950Y-69821D01*
X57178Y-70121D02*
X57178Y-69821D01*
X57207Y-70007D02*
X57292Y-70121D01*
X57292Y-69921D02*
X57178Y-70035D01*
X40750Y-76121D02*
X40650Y-75978D01*
X40578Y-76121D02*
X40578Y-75821D01*
X40692Y-75821D01*
X40721Y-75835D01*
X40735Y-75850D01*
X40750Y-75878D01*
X40750Y-75921D01*
X40735Y-75950D01*
X40721Y-75964D01*
X40692Y-75978D01*
X40578Y-75978D01*
X40921Y-75950D02*
X40892Y-75935D01*
X40878Y-75921D01*
X40864Y-75892D01*
X40864Y-75878D01*
X40878Y-75850D01*
X40892Y-75835D01*
X40921Y-75821D01*
X40978Y-75821D01*
X41007Y-75835D01*
X41021Y-75850D01*
X41035Y-75878D01*
X41035Y-75892D01*
X41021Y-75921D01*
X41007Y-75935D01*
X40978Y-75950D01*
X40921Y-75950D01*
X40892Y-75964D01*
X40878Y-75978D01*
X40864Y-76007D01*
X40864Y-76064D01*
X40878Y-76092D01*
X40892Y-76107D01*
X40921Y-76121D01*
X40978Y-76121D01*
X41007Y-76107D01*
X41021Y-76092D01*
X41035Y-76064D01*
X41035Y-76007D01*
X41021Y-75978D01*
X41007Y-75964D01*
X40978Y-75950D01*
X38878Y-76121D02*
X38707Y-76121D01*
X38792Y-76121D02*
X38792Y-75821D01*
X38764Y-75864D01*
X38735Y-75892D01*
X38707Y-75907D01*
X39064Y-75821D02*
X39092Y-75821D01*
X39121Y-75835D01*
X39135Y-75850D01*
X39150Y-75878D01*
X39164Y-75935D01*
X39164Y-76007D01*
X39150Y-76064D01*
X39135Y-76092D01*
X39121Y-76107D01*
X39092Y-76121D01*
X39064Y-76121D01*
X39035Y-76107D01*
X39021Y-76092D01*
X39007Y-76064D01*
X38992Y-76007D01*
X38992Y-75935D01*
X39007Y-75878D01*
X39021Y-75850D01*
X39035Y-75835D01*
X39064Y-75821D01*
X39350Y-75821D02*
X39378Y-75821D01*
X39407Y-75835D01*
X39421Y-75850D01*
X39435Y-75878D01*
X39450Y-75935D01*
X39450Y-76007D01*
X39435Y-76064D01*
X39421Y-76092D01*
X39407Y-76107D01*
X39378Y-76121D01*
X39350Y-76121D01*
X39321Y-76107D01*
X39307Y-76092D01*
X39292Y-76064D01*
X39278Y-76007D01*
X39278Y-75935D01*
X39292Y-75878D01*
X39307Y-75850D01*
X39321Y-75835D01*
X39350Y-75821D01*
X39578Y-76121D02*
X39578Y-75821D01*
X39607Y-76007D02*
X39692Y-76121D01*
X39692Y-75921D02*
X39578Y-76035D01*
X49121Y-95350D02*
X48978Y-95450D01*
X49121Y-95521D02*
X48821Y-95521D01*
X48821Y-95407D01*
X48835Y-95378D01*
X48850Y-95364D01*
X48878Y-95350D01*
X48921Y-95350D01*
X48950Y-95364D01*
X48964Y-95378D01*
X48978Y-95407D01*
X48978Y-95521D01*
X48821Y-95078D02*
X48821Y-95221D01*
X48964Y-95235D01*
X48950Y-95221D01*
X48935Y-95192D01*
X48935Y-95121D01*
X48950Y-95092D01*
X48964Y-95078D01*
X48992Y-95064D01*
X49064Y-95064D01*
X49092Y-95078D01*
X49107Y-95092D01*
X49121Y-95121D01*
X49121Y-95192D01*
X49107Y-95221D01*
X49092Y-95235D01*
X49121Y-94021D02*
X49121Y-94192D01*
X49121Y-94107D02*
X48821Y-94107D01*
X48864Y-94135D01*
X48892Y-94164D01*
X48907Y-94192D01*
X48821Y-93835D02*
X48821Y-93807D01*
X48835Y-93778D01*
X48850Y-93764D01*
X48878Y-93749D01*
X48935Y-93735D01*
X49007Y-93735D01*
X49064Y-93749D01*
X49092Y-93764D01*
X49107Y-93778D01*
X49121Y-93807D01*
X49121Y-93835D01*
X49107Y-93864D01*
X49092Y-93878D01*
X49064Y-93892D01*
X49007Y-93907D01*
X48935Y-93907D01*
X48878Y-93892D01*
X48850Y-93878D01*
X48835Y-93864D01*
X48821Y-93835D01*
X48821Y-93550D02*
X48821Y-93521D01*
X48835Y-93492D01*
X48850Y-93478D01*
X48878Y-93464D01*
X48935Y-93450D01*
X49007Y-93450D01*
X49064Y-93464D01*
X49092Y-93478D01*
X49107Y-93492D01*
X49121Y-93521D01*
X49121Y-93550D01*
X49107Y-93578D01*
X49092Y-93592D01*
X49064Y-93607D01*
X49007Y-93621D01*
X48935Y-93621D01*
X48878Y-93607D01*
X48850Y-93592D01*
X48835Y-93578D01*
X48821Y-93550D01*
X49121Y-93321D02*
X48821Y-93321D01*
X49007Y-93292D02*
X49121Y-93207D01*
X48921Y-93207D02*
X49035Y-93321D01*
X56621Y-95350D02*
X56478Y-95450D01*
X56621Y-95521D02*
X56321Y-95521D01*
X56321Y-95407D01*
X56335Y-95378D01*
X56350Y-95364D01*
X56378Y-95350D01*
X56421Y-95350D01*
X56450Y-95364D01*
X56464Y-95378D01*
X56478Y-95407D01*
X56478Y-95521D01*
X56321Y-95092D02*
X56321Y-95150D01*
X56335Y-95178D01*
X56350Y-95192D01*
X56392Y-95221D01*
X56450Y-95235D01*
X56564Y-95235D01*
X56592Y-95221D01*
X56607Y-95207D01*
X56621Y-95178D01*
X56621Y-95121D01*
X56607Y-95092D01*
X56592Y-95078D01*
X56564Y-95064D01*
X56492Y-95064D01*
X56464Y-95078D01*
X56450Y-95092D01*
X56435Y-95121D01*
X56435Y-95178D01*
X56450Y-95207D01*
X56464Y-95221D01*
X56492Y-95235D01*
X56621Y-94021D02*
X56621Y-94192D01*
X56621Y-94107D02*
X56321Y-94107D01*
X56364Y-94135D01*
X56392Y-94164D01*
X56407Y-94192D01*
X56321Y-93835D02*
X56321Y-93807D01*
X56335Y-93778D01*
X56350Y-93764D01*
X56378Y-93749D01*
X56435Y-93735D01*
X56507Y-93735D01*
X56564Y-93749D01*
X56592Y-93764D01*
X56607Y-93778D01*
X56621Y-93807D01*
X56621Y-93835D01*
X56607Y-93864D01*
X56592Y-93878D01*
X56564Y-93892D01*
X56507Y-93907D01*
X56435Y-93907D01*
X56378Y-93892D01*
X56350Y-93878D01*
X56335Y-93864D01*
X56321Y-93835D01*
X56321Y-93550D02*
X56321Y-93521D01*
X56335Y-93492D01*
X56350Y-93478D01*
X56378Y-93464D01*
X56435Y-93450D01*
X56507Y-93450D01*
X56564Y-93464D01*
X56592Y-93478D01*
X56607Y-93492D01*
X56621Y-93521D01*
X56621Y-93550D01*
X56607Y-93578D01*
X56592Y-93592D01*
X56564Y-93607D01*
X56507Y-93621D01*
X56435Y-93621D01*
X56378Y-93607D01*
X56350Y-93592D01*
X56335Y-93578D01*
X56321Y-93550D01*
X56621Y-93321D02*
X56321Y-93321D01*
X56507Y-93292D02*
X56621Y-93207D01*
X56421Y-93207D02*
X56535Y-93321D01*
X64121Y-91350D02*
X63978Y-91450D01*
X64121Y-91521D02*
X63821Y-91521D01*
X63821Y-91407D01*
X63835Y-91378D01*
X63850Y-91364D01*
X63878Y-91350D01*
X63921Y-91350D01*
X63950Y-91364D01*
X63964Y-91378D01*
X63978Y-91407D01*
X63978Y-91521D01*
X63821Y-91250D02*
X63821Y-91050D01*
X64121Y-91178D01*
X64121Y-90021D02*
X64121Y-90192D01*
X64121Y-90107D02*
X63821Y-90107D01*
X63864Y-90135D01*
X63892Y-90164D01*
X63907Y-90192D01*
X63821Y-89835D02*
X63821Y-89807D01*
X63835Y-89778D01*
X63850Y-89764D01*
X63878Y-89749D01*
X63935Y-89735D01*
X64007Y-89735D01*
X64064Y-89749D01*
X64092Y-89764D01*
X64107Y-89778D01*
X64121Y-89807D01*
X64121Y-89835D01*
X64107Y-89864D01*
X64092Y-89878D01*
X64064Y-89892D01*
X64007Y-89907D01*
X63935Y-89907D01*
X63878Y-89892D01*
X63850Y-89878D01*
X63835Y-89864D01*
X63821Y-89835D01*
X63821Y-89550D02*
X63821Y-89521D01*
X63835Y-89492D01*
X63850Y-89478D01*
X63878Y-89464D01*
X63935Y-89450D01*
X64007Y-89450D01*
X64064Y-89464D01*
X64092Y-89478D01*
X64107Y-89492D01*
X64121Y-89521D01*
X64121Y-89550D01*
X64107Y-89578D01*
X64092Y-89592D01*
X64064Y-89607D01*
X64007Y-89621D01*
X63935Y-89621D01*
X63878Y-89607D01*
X63850Y-89592D01*
X63835Y-89578D01*
X63821Y-89550D01*
X64121Y-89321D02*
X63821Y-89321D01*
X64007Y-89292D02*
X64121Y-89207D01*
X63921Y-89207D02*
X64035Y-89321D01*
X40871Y-94100D02*
X40728Y-94200D01*
X40871Y-94271D02*
X40571Y-94271D01*
X40571Y-94157D01*
X40585Y-94128D01*
X40600Y-94114D01*
X40628Y-94100D01*
X40671Y-94100D01*
X40700Y-94114D01*
X40714Y-94128D01*
X40728Y-94157D01*
X40728Y-94271D01*
X40571Y-94000D02*
X40571Y-93814D01*
X40685Y-93914D01*
X40685Y-93871D01*
X40700Y-93842D01*
X40714Y-93828D01*
X40742Y-93814D01*
X40814Y-93814D01*
X40842Y-93828D01*
X40857Y-93842D01*
X40871Y-93871D01*
X40871Y-93957D01*
X40857Y-93985D01*
X40842Y-94000D01*
X40600Y-92821D02*
X40585Y-92807D01*
X40571Y-92778D01*
X40571Y-92707D01*
X40585Y-92678D01*
X40600Y-92664D01*
X40628Y-92650D01*
X40657Y-92650D01*
X40700Y-92664D01*
X40871Y-92835D01*
X40871Y-92650D01*
X40600Y-92535D02*
X40585Y-92521D01*
X40571Y-92492D01*
X40571Y-92421D01*
X40585Y-92392D01*
X40600Y-92378D01*
X40628Y-92364D01*
X40657Y-92364D01*
X40700Y-92378D01*
X40871Y-92550D01*
X40871Y-92364D01*
X40571Y-92178D02*
X40571Y-92150D01*
X40585Y-92121D01*
X40600Y-92107D01*
X40628Y-92092D01*
X40685Y-92078D01*
X40757Y-92078D01*
X40814Y-92092D01*
X40842Y-92107D01*
X40857Y-92121D01*
X40871Y-92150D01*
X40871Y-92178D01*
X40857Y-92207D01*
X40842Y-92221D01*
X40814Y-92235D01*
X40757Y-92250D01*
X40685Y-92250D01*
X40628Y-92235D01*
X40600Y-92221D01*
X40585Y-92207D01*
X40571Y-92178D01*
X41871Y-94100D02*
X41728Y-94200D01*
X41871Y-94271D02*
X41571Y-94271D01*
X41571Y-94157D01*
X41585Y-94128D01*
X41600Y-94114D01*
X41628Y-94100D01*
X41671Y-94100D01*
X41700Y-94114D01*
X41714Y-94128D01*
X41728Y-94157D01*
X41728Y-94271D01*
X41671Y-93842D02*
X41871Y-93842D01*
X41557Y-93914D02*
X41771Y-93985D01*
X41771Y-93800D01*
X41600Y-92821D02*
X41585Y-92807D01*
X41571Y-92778D01*
X41571Y-92707D01*
X41585Y-92678D01*
X41600Y-92664D01*
X41628Y-92650D01*
X41657Y-92650D01*
X41700Y-92664D01*
X41871Y-92835D01*
X41871Y-92650D01*
X41600Y-92535D02*
X41585Y-92521D01*
X41571Y-92492D01*
X41571Y-92421D01*
X41585Y-92392D01*
X41600Y-92378D01*
X41628Y-92364D01*
X41657Y-92364D01*
X41700Y-92378D01*
X41871Y-92550D01*
X41871Y-92364D01*
X41571Y-92178D02*
X41571Y-92150D01*
X41585Y-92121D01*
X41600Y-92107D01*
X41628Y-92092D01*
X41685Y-92078D01*
X41757Y-92078D01*
X41814Y-92092D01*
X41842Y-92107D01*
X41857Y-92121D01*
X41871Y-92150D01*
X41871Y-92178D01*
X41857Y-92207D01*
X41842Y-92221D01*
X41814Y-92235D01*
X41757Y-92250D01*
X41685Y-92250D01*
X41628Y-92235D01*
X41600Y-92221D01*
X41585Y-92207D01*
X41571Y-92178D01*
X33621Y-94100D02*
X33478Y-94200D01*
X33621Y-94271D02*
X33321Y-94271D01*
X33321Y-94157D01*
X33335Y-94128D01*
X33350Y-94114D01*
X33378Y-94100D01*
X33421Y-94100D01*
X33450Y-94114D01*
X33464Y-94128D01*
X33478Y-94157D01*
X33478Y-94271D01*
X33350Y-93985D02*
X33335Y-93971D01*
X33321Y-93942D01*
X33321Y-93871D01*
X33335Y-93842D01*
X33350Y-93828D01*
X33378Y-93814D01*
X33407Y-93814D01*
X33450Y-93828D01*
X33621Y-94000D01*
X33621Y-93814D01*
X33350Y-92821D02*
X33335Y-92807D01*
X33321Y-92778D01*
X33321Y-92707D01*
X33335Y-92678D01*
X33350Y-92664D01*
X33378Y-92650D01*
X33407Y-92650D01*
X33450Y-92664D01*
X33621Y-92835D01*
X33621Y-92650D01*
X33350Y-92535D02*
X33335Y-92521D01*
X33321Y-92492D01*
X33321Y-92421D01*
X33335Y-92392D01*
X33350Y-92378D01*
X33378Y-92364D01*
X33407Y-92364D01*
X33450Y-92378D01*
X33621Y-92550D01*
X33621Y-92364D01*
X33321Y-92178D02*
X33321Y-92150D01*
X33335Y-92121D01*
X33350Y-92107D01*
X33378Y-92092D01*
X33435Y-92078D01*
X33507Y-92078D01*
X33564Y-92092D01*
X33592Y-92107D01*
X33607Y-92121D01*
X33621Y-92150D01*
X33621Y-92178D01*
X33607Y-92207D01*
X33592Y-92221D01*
X33564Y-92235D01*
X33507Y-92250D01*
X33435Y-92250D01*
X33378Y-92235D01*
X33350Y-92221D01*
X33335Y-92207D01*
X33321Y-92178D01*
X32621Y-94100D02*
X32478Y-94200D01*
X32621Y-94271D02*
X32321Y-94271D01*
X32321Y-94157D01*
X32335Y-94128D01*
X32350Y-94114D01*
X32378Y-94100D01*
X32421Y-94100D01*
X32450Y-94114D01*
X32464Y-94128D01*
X32478Y-94157D01*
X32478Y-94271D01*
X32621Y-93814D02*
X32621Y-93985D01*
X32621Y-93900D02*
X32321Y-93900D01*
X32364Y-93928D01*
X32392Y-93957D01*
X32407Y-93985D01*
X32350Y-92821D02*
X32335Y-92807D01*
X32321Y-92778D01*
X32321Y-92707D01*
X32335Y-92678D01*
X32350Y-92664D01*
X32378Y-92650D01*
X32407Y-92650D01*
X32450Y-92664D01*
X32621Y-92835D01*
X32621Y-92650D01*
X32350Y-92535D02*
X32335Y-92521D01*
X32321Y-92492D01*
X32321Y-92421D01*
X32335Y-92392D01*
X32350Y-92378D01*
X32378Y-92364D01*
X32407Y-92364D01*
X32450Y-92378D01*
X32621Y-92550D01*
X32621Y-92364D01*
X32321Y-92178D02*
X32321Y-92150D01*
X32335Y-92121D01*
X32350Y-92107D01*
X32378Y-92092D01*
X32435Y-92078D01*
X32507Y-92078D01*
X32564Y-92092D01*
X32592Y-92107D01*
X32607Y-92121D01*
X32621Y-92150D01*
X32621Y-92178D01*
X32607Y-92207D01*
X32592Y-92221D01*
X32564Y-92235D01*
X32507Y-92250D01*
X32435Y-92250D01*
X32378Y-92235D01*
X32350Y-92221D01*
X32335Y-92207D01*
X32321Y-92178D01*
X33671Y-89471D02*
X33371Y-89471D01*
X33371Y-89400D01*
X33385Y-89357D01*
X33414Y-89328D01*
X33442Y-89314D01*
X33500Y-89300D01*
X33542Y-89300D01*
X33600Y-89314D01*
X33628Y-89328D01*
X33657Y-89357D01*
X33671Y-89400D01*
X33671Y-89471D01*
X33500Y-89128D02*
X33485Y-89157D01*
X33471Y-89171D01*
X33442Y-89185D01*
X33428Y-89185D01*
X33400Y-89171D01*
X33385Y-89157D01*
X33371Y-89128D01*
X33371Y-89071D01*
X33385Y-89042D01*
X33400Y-89028D01*
X33428Y-89014D01*
X33442Y-89014D01*
X33471Y-89028D01*
X33485Y-89042D01*
X33500Y-89071D01*
X33500Y-89128D01*
X33514Y-89157D01*
X33528Y-89171D01*
X33557Y-89185D01*
X33614Y-89185D01*
X33642Y-89171D01*
X33657Y-89157D01*
X33671Y-89128D01*
X33671Y-89071D01*
X33657Y-89042D01*
X33642Y-89028D01*
X33614Y-89014D01*
X33557Y-89014D01*
X33528Y-89028D01*
X33514Y-89042D01*
X33500Y-89071D01*
X37921Y-89471D02*
X37621Y-89471D01*
X37621Y-89400D01*
X37635Y-89357D01*
X37664Y-89328D01*
X37692Y-89314D01*
X37750Y-89300D01*
X37792Y-89300D01*
X37850Y-89314D01*
X37878Y-89328D01*
X37907Y-89357D01*
X37921Y-89400D01*
X37921Y-89471D01*
X37921Y-89157D02*
X37921Y-89100D01*
X37907Y-89071D01*
X37892Y-89057D01*
X37850Y-89028D01*
X37792Y-89014D01*
X37678Y-89014D01*
X37650Y-89028D01*
X37635Y-89042D01*
X37621Y-89071D01*
X37621Y-89128D01*
X37635Y-89157D01*
X37650Y-89171D01*
X37678Y-89185D01*
X37750Y-89185D01*
X37778Y-89171D01*
X37792Y-89157D01*
X37807Y-89128D01*
X37807Y-89071D01*
X37792Y-89042D01*
X37778Y-89028D01*
X37750Y-89014D01*
X41921Y-89614D02*
X41621Y-89614D01*
X41621Y-89542D01*
X41635Y-89500D01*
X41664Y-89471D01*
X41692Y-89457D01*
X41750Y-89442D01*
X41792Y-89442D01*
X41850Y-89457D01*
X41878Y-89471D01*
X41907Y-89500D01*
X41921Y-89542D01*
X41921Y-89614D01*
X41921Y-89157D02*
X41921Y-89328D01*
X41921Y-89242D02*
X41621Y-89242D01*
X41664Y-89271D01*
X41692Y-89300D01*
X41707Y-89328D01*
X41621Y-88971D02*
X41621Y-88942D01*
X41635Y-88914D01*
X41650Y-88900D01*
X41678Y-88885D01*
X41735Y-88871D01*
X41807Y-88871D01*
X41864Y-88885D01*
X41892Y-88900D01*
X41907Y-88914D01*
X41921Y-88942D01*
X41921Y-88971D01*
X41907Y-89000D01*
X41892Y-89014D01*
X41864Y-89028D01*
X41807Y-89042D01*
X41735Y-89042D01*
X41678Y-89028D01*
X41650Y-89014D01*
X41635Y-89000D01*
X41621Y-88971D01*
X29671Y-89471D02*
X29371Y-89471D01*
X29371Y-89400D01*
X29385Y-89357D01*
X29414Y-89328D01*
X29442Y-89314D01*
X29500Y-89300D01*
X29542Y-89300D01*
X29600Y-89314D01*
X29628Y-89328D01*
X29657Y-89357D01*
X29671Y-89400D01*
X29671Y-89471D01*
X29371Y-89200D02*
X29371Y-89000D01*
X29671Y-89128D01*
X64871Y-90721D02*
X64571Y-90721D01*
X64571Y-90650D01*
X64585Y-90607D01*
X64614Y-90578D01*
X64642Y-90564D01*
X64700Y-90550D01*
X64742Y-90550D01*
X64800Y-90564D01*
X64828Y-90578D01*
X64857Y-90607D01*
X64871Y-90650D01*
X64871Y-90721D01*
X64671Y-90292D02*
X64871Y-90292D01*
X64557Y-90364D02*
X64771Y-90435D01*
X64771Y-90250D01*
X65621Y-91142D02*
X65621Y-91314D01*
X65621Y-91228D02*
X65321Y-91228D01*
X65364Y-91257D01*
X65392Y-91285D01*
X65407Y-91314D01*
X65621Y-91014D02*
X65321Y-91014D01*
X65621Y-90842D01*
X65321Y-90842D01*
X65321Y-90557D02*
X65321Y-90699D01*
X65464Y-90714D01*
X65450Y-90699D01*
X65435Y-90671D01*
X65435Y-90599D01*
X65450Y-90571D01*
X65464Y-90557D01*
X65492Y-90542D01*
X65564Y-90542D01*
X65592Y-90557D01*
X65607Y-90571D01*
X65621Y-90599D01*
X65621Y-90671D01*
X65607Y-90699D01*
X65592Y-90714D01*
X65450Y-90371D02*
X65435Y-90400D01*
X65421Y-90414D01*
X65392Y-90428D01*
X65378Y-90428D01*
X65350Y-90414D01*
X65335Y-90400D01*
X65321Y-90371D01*
X65321Y-90314D01*
X65335Y-90285D01*
X65350Y-90271D01*
X65378Y-90257D01*
X65392Y-90257D01*
X65421Y-90271D01*
X65435Y-90285D01*
X65450Y-90314D01*
X65450Y-90371D01*
X65464Y-90400D01*
X65478Y-90414D01*
X65507Y-90428D01*
X65564Y-90428D01*
X65592Y-90414D01*
X65607Y-90400D01*
X65621Y-90371D01*
X65621Y-90314D01*
X65607Y-90285D01*
X65592Y-90271D01*
X65564Y-90257D01*
X65507Y-90257D01*
X65478Y-90271D01*
X65464Y-90285D01*
X65450Y-90314D01*
X65621Y-89971D02*
X65621Y-90142D01*
X65621Y-90057D02*
X65321Y-90057D01*
X65364Y-90085D01*
X65392Y-90114D01*
X65407Y-90142D01*
X65321Y-89871D02*
X65321Y-89671D01*
X65621Y-89800D01*
X49871Y-94721D02*
X49571Y-94721D01*
X49571Y-94650D01*
X49585Y-94607D01*
X49614Y-94578D01*
X49642Y-94564D01*
X49700Y-94550D01*
X49742Y-94550D01*
X49800Y-94564D01*
X49828Y-94578D01*
X49857Y-94607D01*
X49871Y-94650D01*
X49871Y-94721D01*
X49571Y-94292D02*
X49571Y-94350D01*
X49585Y-94378D01*
X49600Y-94392D01*
X49642Y-94421D01*
X49700Y-94435D01*
X49814Y-94435D01*
X49842Y-94421D01*
X49857Y-94407D01*
X49871Y-94378D01*
X49871Y-94321D01*
X49857Y-94292D01*
X49842Y-94278D01*
X49814Y-94264D01*
X49742Y-94264D01*
X49714Y-94278D01*
X49700Y-94292D01*
X49685Y-94321D01*
X49685Y-94378D01*
X49700Y-94407D01*
X49714Y-94421D01*
X49742Y-94435D01*
X50621Y-95142D02*
X50621Y-95314D01*
X50621Y-95228D02*
X50321Y-95228D01*
X50364Y-95257D01*
X50392Y-95285D01*
X50407Y-95314D01*
X50621Y-95014D02*
X50321Y-95014D01*
X50621Y-94842D01*
X50321Y-94842D01*
X50321Y-94557D02*
X50321Y-94699D01*
X50464Y-94714D01*
X50450Y-94699D01*
X50435Y-94671D01*
X50435Y-94599D01*
X50450Y-94571D01*
X50464Y-94557D01*
X50492Y-94542D01*
X50564Y-94542D01*
X50592Y-94557D01*
X50607Y-94571D01*
X50621Y-94599D01*
X50621Y-94671D01*
X50607Y-94699D01*
X50592Y-94714D01*
X50450Y-94371D02*
X50435Y-94400D01*
X50421Y-94414D01*
X50392Y-94428D01*
X50378Y-94428D01*
X50350Y-94414D01*
X50335Y-94400D01*
X50321Y-94371D01*
X50321Y-94314D01*
X50335Y-94285D01*
X50350Y-94271D01*
X50378Y-94257D01*
X50392Y-94257D01*
X50421Y-94271D01*
X50435Y-94285D01*
X50450Y-94314D01*
X50450Y-94371D01*
X50464Y-94400D01*
X50478Y-94414D01*
X50507Y-94428D01*
X50564Y-94428D01*
X50592Y-94414D01*
X50607Y-94400D01*
X50621Y-94371D01*
X50621Y-94314D01*
X50607Y-94285D01*
X50592Y-94271D01*
X50564Y-94257D01*
X50507Y-94257D01*
X50478Y-94271D01*
X50464Y-94285D01*
X50450Y-94314D01*
X50621Y-93971D02*
X50621Y-94142D01*
X50621Y-94057D02*
X50321Y-94057D01*
X50364Y-94085D01*
X50392Y-94114D01*
X50407Y-94142D01*
X50321Y-93871D02*
X50321Y-93671D01*
X50621Y-93800D01*
X39635Y-71371D02*
X39635Y-71071D01*
X39707Y-71071D01*
X39750Y-71085D01*
X39778Y-71114D01*
X39792Y-71142D01*
X39807Y-71200D01*
X39807Y-71242D01*
X39792Y-71300D01*
X39778Y-71328D01*
X39750Y-71357D01*
X39707Y-71371D01*
X39635Y-71371D01*
X40092Y-71371D02*
X39921Y-71371D01*
X40007Y-71371D02*
X40007Y-71071D01*
X39978Y-71114D01*
X39950Y-71142D01*
X39921Y-71157D01*
X40378Y-71371D02*
X40207Y-71371D01*
X40292Y-71371D02*
X40292Y-71071D01*
X40264Y-71114D01*
X40235Y-71142D01*
X40207Y-71157D01*
X39357Y-72121D02*
X39185Y-72121D01*
X39271Y-72121D02*
X39271Y-71821D01*
X39242Y-71864D01*
X39214Y-71892D01*
X39185Y-71907D01*
X39485Y-72121D02*
X39485Y-71821D01*
X39657Y-72121D01*
X39657Y-71821D01*
X39928Y-71921D02*
X39928Y-72121D01*
X39857Y-71807D02*
X39785Y-72021D01*
X39971Y-72021D01*
X40242Y-72121D02*
X40071Y-72121D01*
X40157Y-72121D02*
X40157Y-71821D01*
X40128Y-71864D01*
X40100Y-71892D01*
X40071Y-71907D01*
X40500Y-71921D02*
X40500Y-72121D01*
X40428Y-71807D02*
X40357Y-72021D01*
X40542Y-72021D01*
X40700Y-71950D02*
X40671Y-71935D01*
X40657Y-71921D01*
X40642Y-71892D01*
X40642Y-71878D01*
X40657Y-71850D01*
X40671Y-71835D01*
X40700Y-71821D01*
X40757Y-71821D01*
X40785Y-71835D01*
X40800Y-71850D01*
X40814Y-71878D01*
X40814Y-71892D01*
X40800Y-71921D01*
X40785Y-71935D01*
X40757Y-71950D01*
X40700Y-71950D01*
X40671Y-71964D01*
X40657Y-71978D01*
X40642Y-72007D01*
X40642Y-72064D01*
X40657Y-72092D01*
X40671Y-72107D01*
X40700Y-72121D01*
X40757Y-72121D01*
X40785Y-72107D01*
X40800Y-72092D01*
X40814Y-72064D01*
X40814Y-72007D01*
X40800Y-71978D01*
X40785Y-71964D01*
X40757Y-71950D01*
X44635Y-72871D02*
X44635Y-72571D01*
X44707Y-72571D01*
X44750Y-72585D01*
X44778Y-72614D01*
X44792Y-72642D01*
X44807Y-72700D01*
X44807Y-72742D01*
X44792Y-72800D01*
X44778Y-72828D01*
X44750Y-72857D01*
X44707Y-72871D01*
X44635Y-72871D01*
X45092Y-72871D02*
X44921Y-72871D01*
X45007Y-72871D02*
X45007Y-72571D01*
X44978Y-72614D01*
X44950Y-72642D01*
X44921Y-72657D01*
X45207Y-72600D02*
X45221Y-72585D01*
X45250Y-72571D01*
X45321Y-72571D01*
X45350Y-72585D01*
X45364Y-72600D01*
X45378Y-72628D01*
X45378Y-72657D01*
X45364Y-72700D01*
X45192Y-72871D01*
X45378Y-72871D01*
X44357Y-72121D02*
X44185Y-72121D01*
X44271Y-72121D02*
X44271Y-71821D01*
X44242Y-71864D01*
X44214Y-71892D01*
X44185Y-71907D01*
X44485Y-72121D02*
X44485Y-71821D01*
X44657Y-72121D01*
X44657Y-71821D01*
X44928Y-71921D02*
X44928Y-72121D01*
X44857Y-71807D02*
X44785Y-72021D01*
X44971Y-72021D01*
X45242Y-72121D02*
X45071Y-72121D01*
X45157Y-72121D02*
X45157Y-71821D01*
X45128Y-71864D01*
X45100Y-71892D01*
X45071Y-71907D01*
X45500Y-71921D02*
X45500Y-72121D01*
X45428Y-71807D02*
X45357Y-72021D01*
X45542Y-72021D01*
X45700Y-71950D02*
X45671Y-71935D01*
X45657Y-71921D01*
X45642Y-71892D01*
X45642Y-71878D01*
X45657Y-71850D01*
X45671Y-71835D01*
X45700Y-71821D01*
X45757Y-71821D01*
X45785Y-71835D01*
X45800Y-71850D01*
X45814Y-71878D01*
X45814Y-71892D01*
X45800Y-71921D01*
X45785Y-71935D01*
X45757Y-71950D01*
X45700Y-71950D01*
X45671Y-71964D01*
X45657Y-71978D01*
X45642Y-72007D01*
X45642Y-72064D01*
X45657Y-72092D01*
X45671Y-72107D01*
X45700Y-72121D01*
X45757Y-72121D01*
X45785Y-72107D01*
X45800Y-72092D01*
X45814Y-72064D01*
X45814Y-72007D01*
X45800Y-71978D01*
X45785Y-71964D01*
X45757Y-71950D01*
X55635Y-66871D02*
X55635Y-66571D01*
X55707Y-66571D01*
X55750Y-66585D01*
X55778Y-66614D01*
X55792Y-66642D01*
X55807Y-66700D01*
X55807Y-66742D01*
X55792Y-66800D01*
X55778Y-66828D01*
X55750Y-66857D01*
X55707Y-66871D01*
X55635Y-66871D01*
X56092Y-66871D02*
X55921Y-66871D01*
X56007Y-66871D02*
X56007Y-66571D01*
X55978Y-66614D01*
X55950Y-66642D01*
X55921Y-66657D01*
X56350Y-66671D02*
X56350Y-66871D01*
X56278Y-66557D02*
X56207Y-66771D01*
X56392Y-66771D01*
X55357Y-66121D02*
X55185Y-66121D01*
X55271Y-66121D02*
X55271Y-65821D01*
X55242Y-65864D01*
X55214Y-65892D01*
X55185Y-65907D01*
X55485Y-66121D02*
X55485Y-65821D01*
X55657Y-66121D01*
X55657Y-65821D01*
X55928Y-65921D02*
X55928Y-66121D01*
X55857Y-65807D02*
X55785Y-66021D01*
X55971Y-66021D01*
X56242Y-66121D02*
X56071Y-66121D01*
X56157Y-66121D02*
X56157Y-65821D01*
X56128Y-65864D01*
X56100Y-65892D01*
X56071Y-65907D01*
X56500Y-65921D02*
X56500Y-66121D01*
X56428Y-65807D02*
X56357Y-66021D01*
X56542Y-66021D01*
X56700Y-65950D02*
X56671Y-65935D01*
X56657Y-65921D01*
X56642Y-65892D01*
X56642Y-65878D01*
X56657Y-65850D01*
X56671Y-65835D01*
X56700Y-65821D01*
X56757Y-65821D01*
X56785Y-65835D01*
X56800Y-65850D01*
X56814Y-65878D01*
X56814Y-65892D01*
X56800Y-65921D01*
X56785Y-65935D01*
X56757Y-65950D01*
X56700Y-65950D01*
X56671Y-65964D01*
X56657Y-65978D01*
X56642Y-66007D01*
X56642Y-66064D01*
X56657Y-66092D01*
X56671Y-66107D01*
X56700Y-66121D01*
X56757Y-66121D01*
X56785Y-66107D01*
X56800Y-66092D01*
X56814Y-66064D01*
X56814Y-66007D01*
X56800Y-65978D01*
X56785Y-65964D01*
X56757Y-65950D01*
X50635Y-65371D02*
X50635Y-65071D01*
X50707Y-65071D01*
X50750Y-65085D01*
X50778Y-65114D01*
X50792Y-65142D01*
X50807Y-65200D01*
X50807Y-65242D01*
X50792Y-65300D01*
X50778Y-65328D01*
X50750Y-65357D01*
X50707Y-65371D01*
X50635Y-65371D01*
X51092Y-65371D02*
X50921Y-65371D01*
X51007Y-65371D02*
X51007Y-65071D01*
X50978Y-65114D01*
X50950Y-65142D01*
X50921Y-65157D01*
X51192Y-65071D02*
X51378Y-65071D01*
X51278Y-65185D01*
X51321Y-65185D01*
X51350Y-65200D01*
X51364Y-65214D01*
X51378Y-65242D01*
X51378Y-65314D01*
X51364Y-65342D01*
X51350Y-65357D01*
X51321Y-65371D01*
X51235Y-65371D01*
X51207Y-65357D01*
X51192Y-65342D01*
X50357Y-66121D02*
X50185Y-66121D01*
X50271Y-66121D02*
X50271Y-65821D01*
X50242Y-65864D01*
X50214Y-65892D01*
X50185Y-65907D01*
X50485Y-66121D02*
X50485Y-65821D01*
X50657Y-66121D01*
X50657Y-65821D01*
X50928Y-65921D02*
X50928Y-66121D01*
X50857Y-65807D02*
X50785Y-66021D01*
X50971Y-66021D01*
X51242Y-66121D02*
X51071Y-66121D01*
X51157Y-66121D02*
X51157Y-65821D01*
X51128Y-65864D01*
X51100Y-65892D01*
X51071Y-65907D01*
X51500Y-65921D02*
X51500Y-66121D01*
X51428Y-65807D02*
X51357Y-66021D01*
X51542Y-66021D01*
X51700Y-65950D02*
X51671Y-65935D01*
X51657Y-65921D01*
X51642Y-65892D01*
X51642Y-65878D01*
X51657Y-65850D01*
X51671Y-65835D01*
X51700Y-65821D01*
X51757Y-65821D01*
X51785Y-65835D01*
X51800Y-65850D01*
X51814Y-65878D01*
X51814Y-65892D01*
X51800Y-65921D01*
X51785Y-65935D01*
X51757Y-65950D01*
X51700Y-65950D01*
X51671Y-65964D01*
X51657Y-65978D01*
X51642Y-66007D01*
X51642Y-66064D01*
X51657Y-66092D01*
X51671Y-66107D01*
X51700Y-66121D01*
X51757Y-66121D01*
X51785Y-66107D01*
X51800Y-66092D01*
X51814Y-66064D01*
X51814Y-66007D01*
X51800Y-65978D01*
X51785Y-65964D01*
X51757Y-65950D01*
X44635Y-66871D02*
X44635Y-66571D01*
X44707Y-66571D01*
X44750Y-66585D01*
X44778Y-66614D01*
X44792Y-66642D01*
X44807Y-66700D01*
X44807Y-66742D01*
X44792Y-66800D01*
X44778Y-66828D01*
X44750Y-66857D01*
X44707Y-66871D01*
X44635Y-66871D01*
X44921Y-66600D02*
X44935Y-66585D01*
X44964Y-66571D01*
X45035Y-66571D01*
X45064Y-66585D01*
X45078Y-66600D01*
X45092Y-66628D01*
X45092Y-66657D01*
X45078Y-66700D01*
X44907Y-66871D01*
X45092Y-66871D01*
X45278Y-66571D02*
X45307Y-66571D01*
X45335Y-66585D01*
X45350Y-66600D01*
X45364Y-66628D01*
X45378Y-66685D01*
X45378Y-66757D01*
X45364Y-66814D01*
X45350Y-66842D01*
X45335Y-66857D01*
X45307Y-66871D01*
X45278Y-66871D01*
X45250Y-66857D01*
X45235Y-66842D01*
X45221Y-66814D01*
X45207Y-66757D01*
X45207Y-66685D01*
X45221Y-66628D01*
X45235Y-66600D01*
X45250Y-66585D01*
X45278Y-66571D01*
X44357Y-66121D02*
X44185Y-66121D01*
X44271Y-66121D02*
X44271Y-65821D01*
X44242Y-65864D01*
X44214Y-65892D01*
X44185Y-65907D01*
X44485Y-66121D02*
X44485Y-65821D01*
X44657Y-66121D01*
X44657Y-65821D01*
X44928Y-65921D02*
X44928Y-66121D01*
X44857Y-65807D02*
X44785Y-66021D01*
X44971Y-66021D01*
X45242Y-66121D02*
X45071Y-66121D01*
X45157Y-66121D02*
X45157Y-65821D01*
X45128Y-65864D01*
X45100Y-65892D01*
X45071Y-65907D01*
X45500Y-65921D02*
X45500Y-66121D01*
X45428Y-65807D02*
X45357Y-66021D01*
X45542Y-66021D01*
X45700Y-65950D02*
X45671Y-65935D01*
X45657Y-65921D01*
X45642Y-65892D01*
X45642Y-65878D01*
X45657Y-65850D01*
X45671Y-65835D01*
X45700Y-65821D01*
X45757Y-65821D01*
X45785Y-65835D01*
X45800Y-65850D01*
X45814Y-65878D01*
X45814Y-65892D01*
X45800Y-65921D01*
X45785Y-65935D01*
X45757Y-65950D01*
X45700Y-65950D01*
X45671Y-65964D01*
X45657Y-65978D01*
X45642Y-66007D01*
X45642Y-66064D01*
X45657Y-66092D01*
X45671Y-66107D01*
X45700Y-66121D01*
X45757Y-66121D01*
X45785Y-66107D01*
X45800Y-66092D01*
X45814Y-66064D01*
X45814Y-66007D01*
X45800Y-65978D01*
X45785Y-65964D01*
X45757Y-65950D01*
X39635Y-65371D02*
X39635Y-65071D01*
X39707Y-65071D01*
X39750Y-65085D01*
X39778Y-65114D01*
X39792Y-65142D01*
X39807Y-65200D01*
X39807Y-65242D01*
X39792Y-65300D01*
X39778Y-65328D01*
X39750Y-65357D01*
X39707Y-65371D01*
X39635Y-65371D01*
X40092Y-65371D02*
X39921Y-65371D01*
X40007Y-65371D02*
X40007Y-65071D01*
X39978Y-65114D01*
X39950Y-65142D01*
X39921Y-65157D01*
X40235Y-65371D02*
X40292Y-65371D01*
X40321Y-65357D01*
X40335Y-65342D01*
X40364Y-65300D01*
X40378Y-65242D01*
X40378Y-65128D01*
X40364Y-65100D01*
X40350Y-65085D01*
X40321Y-65071D01*
X40264Y-65071D01*
X40235Y-65085D01*
X40221Y-65100D01*
X40207Y-65128D01*
X40207Y-65200D01*
X40221Y-65228D01*
X40235Y-65242D01*
X40264Y-65257D01*
X40321Y-65257D01*
X40350Y-65242D01*
X40364Y-65228D01*
X40378Y-65200D01*
X39357Y-66121D02*
X39185Y-66121D01*
X39271Y-66121D02*
X39271Y-65821D01*
X39242Y-65864D01*
X39214Y-65892D01*
X39185Y-65907D01*
X39485Y-66121D02*
X39485Y-65821D01*
X39657Y-66121D01*
X39657Y-65821D01*
X39928Y-65921D02*
X39928Y-66121D01*
X39857Y-65807D02*
X39785Y-66021D01*
X39971Y-66021D01*
X40242Y-66121D02*
X40071Y-66121D01*
X40157Y-66121D02*
X40157Y-65821D01*
X40128Y-65864D01*
X40100Y-65892D01*
X40071Y-65907D01*
X40500Y-65921D02*
X40500Y-66121D01*
X40428Y-65807D02*
X40357Y-66021D01*
X40542Y-66021D01*
X40700Y-65950D02*
X40671Y-65935D01*
X40657Y-65921D01*
X40642Y-65892D01*
X40642Y-65878D01*
X40657Y-65850D01*
X40671Y-65835D01*
X40700Y-65821D01*
X40757Y-65821D01*
X40785Y-65835D01*
X40800Y-65850D01*
X40814Y-65878D01*
X40814Y-65892D01*
X40800Y-65921D01*
X40785Y-65935D01*
X40757Y-65950D01*
X40700Y-65950D01*
X40671Y-65964D01*
X40657Y-65978D01*
X40642Y-66007D01*
X40642Y-66064D01*
X40657Y-66092D01*
X40671Y-66107D01*
X40700Y-66121D01*
X40757Y-66121D01*
X40785Y-66107D01*
X40800Y-66092D01*
X40814Y-66064D01*
X40814Y-66007D01*
X40800Y-65978D01*
X40785Y-65964D01*
X40757Y-65950D01*
X50635Y-83371D02*
X50635Y-83071D01*
X50707Y-83071D01*
X50750Y-83085D01*
X50778Y-83114D01*
X50792Y-83142D01*
X50807Y-83200D01*
X50807Y-83242D01*
X50792Y-83300D01*
X50778Y-83328D01*
X50750Y-83357D01*
X50707Y-83371D01*
X50635Y-83371D01*
X51092Y-83371D02*
X50921Y-83371D01*
X51007Y-83371D02*
X51007Y-83071D01*
X50978Y-83114D01*
X50950Y-83142D01*
X50921Y-83157D01*
X51192Y-83071D02*
X51392Y-83071D01*
X51264Y-83371D01*
X50357Y-84121D02*
X50185Y-84121D01*
X50271Y-84121D02*
X50271Y-83821D01*
X50242Y-83864D01*
X50214Y-83892D01*
X50185Y-83907D01*
X50485Y-84121D02*
X50485Y-83821D01*
X50657Y-84121D01*
X50657Y-83821D01*
X50928Y-83921D02*
X50928Y-84121D01*
X50857Y-83807D02*
X50785Y-84021D01*
X50971Y-84021D01*
X51242Y-84121D02*
X51071Y-84121D01*
X51157Y-84121D02*
X51157Y-83821D01*
X51128Y-83864D01*
X51100Y-83892D01*
X51071Y-83907D01*
X51500Y-83921D02*
X51500Y-84121D01*
X51428Y-83807D02*
X51357Y-84021D01*
X51542Y-84021D01*
X51700Y-83950D02*
X51671Y-83935D01*
X51657Y-83921D01*
X51642Y-83892D01*
X51642Y-83878D01*
X51657Y-83850D01*
X51671Y-83835D01*
X51700Y-83821D01*
X51757Y-83821D01*
X51785Y-83835D01*
X51800Y-83850D01*
X51814Y-83878D01*
X51814Y-83892D01*
X51800Y-83921D01*
X51785Y-83935D01*
X51757Y-83950D01*
X51700Y-83950D01*
X51671Y-83964D01*
X51657Y-83978D01*
X51642Y-84007D01*
X51642Y-84064D01*
X51657Y-84092D01*
X51671Y-84107D01*
X51700Y-84121D01*
X51757Y-84121D01*
X51785Y-84107D01*
X51800Y-84092D01*
X51814Y-84064D01*
X51814Y-84007D01*
X51800Y-83978D01*
X51785Y-83964D01*
X51757Y-83950D01*
X55635Y-84871D02*
X55635Y-84571D01*
X55707Y-84571D01*
X55750Y-84585D01*
X55778Y-84614D01*
X55792Y-84642D01*
X55807Y-84700D01*
X55807Y-84742D01*
X55792Y-84800D01*
X55778Y-84828D01*
X55750Y-84857D01*
X55707Y-84871D01*
X55635Y-84871D01*
X56092Y-84871D02*
X55921Y-84871D01*
X56007Y-84871D02*
X56007Y-84571D01*
X55978Y-84614D01*
X55950Y-84642D01*
X55921Y-84657D01*
X56264Y-84700D02*
X56235Y-84685D01*
X56221Y-84671D01*
X56207Y-84642D01*
X56207Y-84628D01*
X56221Y-84600D01*
X56235Y-84585D01*
X56264Y-84571D01*
X56321Y-84571D01*
X56350Y-84585D01*
X56364Y-84600D01*
X56378Y-84628D01*
X56378Y-84642D01*
X56364Y-84671D01*
X56350Y-84685D01*
X56321Y-84700D01*
X56264Y-84700D01*
X56235Y-84714D01*
X56221Y-84728D01*
X56207Y-84757D01*
X56207Y-84814D01*
X56221Y-84842D01*
X56235Y-84857D01*
X56264Y-84871D01*
X56321Y-84871D01*
X56350Y-84857D01*
X56364Y-84842D01*
X56378Y-84814D01*
X56378Y-84757D01*
X56364Y-84728D01*
X56350Y-84714D01*
X56321Y-84700D01*
X55357Y-84121D02*
X55185Y-84121D01*
X55271Y-84121D02*
X55271Y-83821D01*
X55242Y-83864D01*
X55214Y-83892D01*
X55185Y-83907D01*
X55485Y-84121D02*
X55485Y-83821D01*
X55657Y-84121D01*
X55657Y-83821D01*
X55928Y-83921D02*
X55928Y-84121D01*
X55857Y-83807D02*
X55785Y-84021D01*
X55971Y-84021D01*
X56242Y-84121D02*
X56071Y-84121D01*
X56157Y-84121D02*
X56157Y-83821D01*
X56128Y-83864D01*
X56100Y-83892D01*
X56071Y-83907D01*
X56500Y-83921D02*
X56500Y-84121D01*
X56428Y-83807D02*
X56357Y-84021D01*
X56542Y-84021D01*
X56700Y-83950D02*
X56671Y-83935D01*
X56657Y-83921D01*
X56642Y-83892D01*
X56642Y-83878D01*
X56657Y-83850D01*
X56671Y-83835D01*
X56700Y-83821D01*
X56757Y-83821D01*
X56785Y-83835D01*
X56800Y-83850D01*
X56814Y-83878D01*
X56814Y-83892D01*
X56800Y-83921D01*
X56785Y-83935D01*
X56757Y-83950D01*
X56700Y-83950D01*
X56671Y-83964D01*
X56657Y-83978D01*
X56642Y-84007D01*
X56642Y-84064D01*
X56657Y-84092D01*
X56671Y-84107D01*
X56700Y-84121D01*
X56757Y-84121D01*
X56785Y-84107D01*
X56800Y-84092D01*
X56814Y-84064D01*
X56814Y-84007D01*
X56800Y-83978D01*
X56785Y-83964D01*
X56757Y-83950D01*
X55635Y-72871D02*
X55635Y-72571D01*
X55707Y-72571D01*
X55750Y-72585D01*
X55778Y-72614D01*
X55792Y-72642D01*
X55807Y-72700D01*
X55807Y-72742D01*
X55792Y-72800D01*
X55778Y-72828D01*
X55750Y-72857D01*
X55707Y-72871D01*
X55635Y-72871D01*
X55921Y-72600D02*
X55935Y-72585D01*
X55964Y-72571D01*
X56035Y-72571D01*
X56064Y-72585D01*
X56078Y-72600D01*
X56092Y-72628D01*
X56092Y-72657D01*
X56078Y-72700D01*
X55907Y-72871D01*
X56092Y-72871D01*
X56207Y-72600D02*
X56221Y-72585D01*
X56250Y-72571D01*
X56321Y-72571D01*
X56350Y-72585D01*
X56364Y-72600D01*
X56378Y-72628D01*
X56378Y-72657D01*
X56364Y-72700D01*
X56192Y-72871D01*
X56378Y-72871D01*
X55357Y-72121D02*
X55185Y-72121D01*
X55271Y-72121D02*
X55271Y-71821D01*
X55242Y-71864D01*
X55214Y-71892D01*
X55185Y-71907D01*
X55485Y-72121D02*
X55485Y-71821D01*
X55657Y-72121D01*
X55657Y-71821D01*
X55928Y-71921D02*
X55928Y-72121D01*
X55857Y-71807D02*
X55785Y-72021D01*
X55971Y-72021D01*
X56242Y-72121D02*
X56071Y-72121D01*
X56157Y-72121D02*
X56157Y-71821D01*
X56128Y-71864D01*
X56100Y-71892D01*
X56071Y-71907D01*
X56500Y-71921D02*
X56500Y-72121D01*
X56428Y-71807D02*
X56357Y-72021D01*
X56542Y-72021D01*
X56700Y-71950D02*
X56671Y-71935D01*
X56657Y-71921D01*
X56642Y-71892D01*
X56642Y-71878D01*
X56657Y-71850D01*
X56671Y-71835D01*
X56700Y-71821D01*
X56757Y-71821D01*
X56785Y-71835D01*
X56800Y-71850D01*
X56814Y-71878D01*
X56814Y-71892D01*
X56800Y-71921D01*
X56785Y-71935D01*
X56757Y-71950D01*
X56700Y-71950D01*
X56671Y-71964D01*
X56657Y-71978D01*
X56642Y-72007D01*
X56642Y-72064D01*
X56657Y-72092D01*
X56671Y-72107D01*
X56700Y-72121D01*
X56757Y-72121D01*
X56785Y-72107D01*
X56800Y-72092D01*
X56814Y-72064D01*
X56814Y-72007D01*
X56800Y-71978D01*
X56785Y-71964D01*
X56757Y-71950D01*
X50635Y-71371D02*
X50635Y-71071D01*
X50707Y-71071D01*
X50750Y-71085D01*
X50778Y-71114D01*
X50792Y-71142D01*
X50807Y-71200D01*
X50807Y-71242D01*
X50792Y-71300D01*
X50778Y-71328D01*
X50750Y-71357D01*
X50707Y-71371D01*
X50635Y-71371D01*
X50921Y-71100D02*
X50935Y-71085D01*
X50964Y-71071D01*
X51035Y-71071D01*
X51064Y-71085D01*
X51078Y-71100D01*
X51092Y-71128D01*
X51092Y-71157D01*
X51078Y-71200D01*
X50907Y-71371D01*
X51092Y-71371D01*
X51378Y-71371D02*
X51207Y-71371D01*
X51292Y-71371D02*
X51292Y-71071D01*
X51264Y-71114D01*
X51235Y-71142D01*
X51207Y-71157D01*
X50357Y-72121D02*
X50185Y-72121D01*
X50271Y-72121D02*
X50271Y-71821D01*
X50242Y-71864D01*
X50214Y-71892D01*
X50185Y-71907D01*
X50485Y-72121D02*
X50485Y-71821D01*
X50657Y-72121D01*
X50657Y-71821D01*
X50928Y-71921D02*
X50928Y-72121D01*
X50857Y-71807D02*
X50785Y-72021D01*
X50971Y-72021D01*
X51242Y-72121D02*
X51071Y-72121D01*
X51157Y-72121D02*
X51157Y-71821D01*
X51128Y-71864D01*
X51100Y-71892D01*
X51071Y-71907D01*
X51500Y-71921D02*
X51500Y-72121D01*
X51428Y-71807D02*
X51357Y-72021D01*
X51542Y-72021D01*
X51700Y-71950D02*
X51671Y-71935D01*
X51657Y-71921D01*
X51642Y-71892D01*
X51642Y-71878D01*
X51657Y-71850D01*
X51671Y-71835D01*
X51700Y-71821D01*
X51757Y-71821D01*
X51785Y-71835D01*
X51800Y-71850D01*
X51814Y-71878D01*
X51814Y-71892D01*
X51800Y-71921D01*
X51785Y-71935D01*
X51757Y-71950D01*
X51700Y-71950D01*
X51671Y-71964D01*
X51657Y-71978D01*
X51642Y-72007D01*
X51642Y-72064D01*
X51657Y-72092D01*
X51671Y-72107D01*
X51700Y-72121D01*
X51757Y-72121D01*
X51785Y-72107D01*
X51800Y-72092D01*
X51814Y-72064D01*
X51814Y-72007D01*
X51800Y-71978D01*
X51785Y-71964D01*
X51757Y-71950D01*
X50635Y-77371D02*
X50635Y-77071D01*
X50707Y-77071D01*
X50750Y-77085D01*
X50778Y-77114D01*
X50792Y-77142D01*
X50807Y-77200D01*
X50807Y-77242D01*
X50792Y-77300D01*
X50778Y-77328D01*
X50750Y-77357D01*
X50707Y-77371D01*
X50635Y-77371D01*
X51092Y-77371D02*
X50921Y-77371D01*
X51007Y-77371D02*
X51007Y-77071D01*
X50978Y-77114D01*
X50950Y-77142D01*
X50921Y-77157D01*
X51364Y-77071D02*
X51221Y-77071D01*
X51207Y-77214D01*
X51221Y-77200D01*
X51250Y-77185D01*
X51321Y-77185D01*
X51350Y-77200D01*
X51364Y-77214D01*
X51378Y-77242D01*
X51378Y-77314D01*
X51364Y-77342D01*
X51350Y-77357D01*
X51321Y-77371D01*
X51250Y-77371D01*
X51221Y-77357D01*
X51207Y-77342D01*
X50357Y-78121D02*
X50185Y-78121D01*
X50271Y-78121D02*
X50271Y-77821D01*
X50242Y-77864D01*
X50214Y-77892D01*
X50185Y-77907D01*
X50485Y-78121D02*
X50485Y-77821D01*
X50657Y-78121D01*
X50657Y-77821D01*
X50928Y-77921D02*
X50928Y-78121D01*
X50857Y-77807D02*
X50785Y-78021D01*
X50971Y-78021D01*
X51242Y-78121D02*
X51071Y-78121D01*
X51157Y-78121D02*
X51157Y-77821D01*
X51128Y-77864D01*
X51100Y-77892D01*
X51071Y-77907D01*
X51500Y-77921D02*
X51500Y-78121D01*
X51428Y-77807D02*
X51357Y-78021D01*
X51542Y-78021D01*
X51700Y-77950D02*
X51671Y-77935D01*
X51657Y-77921D01*
X51642Y-77892D01*
X51642Y-77878D01*
X51657Y-77850D01*
X51671Y-77835D01*
X51700Y-77821D01*
X51757Y-77821D01*
X51785Y-77835D01*
X51800Y-77850D01*
X51814Y-77878D01*
X51814Y-77892D01*
X51800Y-77921D01*
X51785Y-77935D01*
X51757Y-77950D01*
X51700Y-77950D01*
X51671Y-77964D01*
X51657Y-77978D01*
X51642Y-78007D01*
X51642Y-78064D01*
X51657Y-78092D01*
X51671Y-78107D01*
X51700Y-78121D01*
X51757Y-78121D01*
X51785Y-78107D01*
X51800Y-78092D01*
X51814Y-78064D01*
X51814Y-78007D01*
X51800Y-77978D01*
X51785Y-77964D01*
X51757Y-77950D01*
X55635Y-78871D02*
X55635Y-78571D01*
X55707Y-78571D01*
X55750Y-78585D01*
X55778Y-78614D01*
X55792Y-78642D01*
X55807Y-78700D01*
X55807Y-78742D01*
X55792Y-78800D01*
X55778Y-78828D01*
X55750Y-78857D01*
X55707Y-78871D01*
X55635Y-78871D01*
X56092Y-78871D02*
X55921Y-78871D01*
X56007Y-78871D02*
X56007Y-78571D01*
X55978Y-78614D01*
X55950Y-78642D01*
X55921Y-78657D01*
X56350Y-78571D02*
X56292Y-78571D01*
X56264Y-78585D01*
X56250Y-78600D01*
X56221Y-78642D01*
X56207Y-78700D01*
X56207Y-78814D01*
X56221Y-78842D01*
X56235Y-78857D01*
X56264Y-78871D01*
X56321Y-78871D01*
X56350Y-78857D01*
X56364Y-78842D01*
X56378Y-78814D01*
X56378Y-78742D01*
X56364Y-78714D01*
X56350Y-78700D01*
X56321Y-78685D01*
X56264Y-78685D01*
X56235Y-78700D01*
X56221Y-78714D01*
X56207Y-78742D01*
X55357Y-78121D02*
X55185Y-78121D01*
X55271Y-78121D02*
X55271Y-77821D01*
X55242Y-77864D01*
X55214Y-77892D01*
X55185Y-77907D01*
X55485Y-78121D02*
X55485Y-77821D01*
X55657Y-78121D01*
X55657Y-77821D01*
X55928Y-77921D02*
X55928Y-78121D01*
X55857Y-77807D02*
X55785Y-78021D01*
X55971Y-78021D01*
X56242Y-78121D02*
X56071Y-78121D01*
X56157Y-78121D02*
X56157Y-77821D01*
X56128Y-77864D01*
X56100Y-77892D01*
X56071Y-77907D01*
X56500Y-77921D02*
X56500Y-78121D01*
X56428Y-77807D02*
X56357Y-78021D01*
X56542Y-78021D01*
X56700Y-77950D02*
X56671Y-77935D01*
X56657Y-77921D01*
X56642Y-77892D01*
X56642Y-77878D01*
X56657Y-77850D01*
X56671Y-77835D01*
X56700Y-77821D01*
X56757Y-77821D01*
X56785Y-77835D01*
X56800Y-77850D01*
X56814Y-77878D01*
X56814Y-77892D01*
X56800Y-77921D01*
X56785Y-77935D01*
X56757Y-77950D01*
X56700Y-77950D01*
X56671Y-77964D01*
X56657Y-77978D01*
X56642Y-78007D01*
X56642Y-78064D01*
X56657Y-78092D01*
X56671Y-78107D01*
X56700Y-78121D01*
X56757Y-78121D01*
X56785Y-78107D01*
X56800Y-78092D01*
X56814Y-78064D01*
X56814Y-78007D01*
X56800Y-77978D01*
X56785Y-77964D01*
X56757Y-77950D01*
G54D11*
X62609Y-83161D02*
X62609Y-82761D01*
X63028Y-83123D02*
X63009Y-83142D01*
X62952Y-83161D01*
X62914Y-83161D01*
X62857Y-83142D01*
X62819Y-83104D01*
X62800Y-83066D01*
X62780Y-82990D01*
X62780Y-82933D01*
X62800Y-82857D01*
X62819Y-82819D01*
X62857Y-82780D01*
X62914Y-82761D01*
X62952Y-82761D01*
X63009Y-82780D01*
X63028Y-82800D01*
X63409Y-83161D02*
X63180Y-83161D01*
X63295Y-83161D02*
X63295Y-82761D01*
X63257Y-82819D01*
X63219Y-82857D01*
X63180Y-82876D01*
X60828Y-68047D02*
X61019Y-68047D01*
X60790Y-68161D02*
X60923Y-67761D01*
X61057Y-68161D01*
X61419Y-68161D02*
X61285Y-67971D01*
X61190Y-68161D02*
X61190Y-67761D01*
X61342Y-67761D01*
X61380Y-67780D01*
X61400Y-67800D01*
X61419Y-67838D01*
X61419Y-67895D01*
X61400Y-67933D01*
X61380Y-67952D01*
X61342Y-67971D01*
X61190Y-67971D01*
X61590Y-68161D02*
X61590Y-67761D01*
X61685Y-67761D01*
X61742Y-67780D01*
X61780Y-67819D01*
X61800Y-67857D01*
X61819Y-67933D01*
X61819Y-67990D01*
X61800Y-68066D01*
X61780Y-68104D01*
X61742Y-68142D01*
X61685Y-68161D01*
X61590Y-68161D01*
X61990Y-67761D02*
X61990Y-68085D01*
X62009Y-68123D01*
X62028Y-68142D01*
X62066Y-68161D01*
X62142Y-68161D01*
X62180Y-68142D01*
X62200Y-68123D01*
X62219Y-68085D01*
X62219Y-67761D01*
X62409Y-68161D02*
X62409Y-67761D01*
X62600Y-68161D02*
X62600Y-67761D01*
X62828Y-68161D01*
X62828Y-67761D01*
X63095Y-67761D02*
X63171Y-67761D01*
X63209Y-67780D01*
X63247Y-67819D01*
X63266Y-67895D01*
X63266Y-68028D01*
X63247Y-68104D01*
X63209Y-68142D01*
X63171Y-68161D01*
X63095Y-68161D01*
X63057Y-68142D01*
X63019Y-68104D01*
X63000Y-68028D01*
X63000Y-67895D01*
X63019Y-67819D01*
X63057Y-67780D01*
X63095Y-67761D01*
X63342Y-68200D02*
X63647Y-68200D01*
X63742Y-68161D02*
X63742Y-67761D01*
X63971Y-68161D01*
X63971Y-67761D01*
X64142Y-68047D02*
X64333Y-68047D01*
X64104Y-68161D02*
X64238Y-67761D01*
X64371Y-68161D01*
X64504Y-68161D02*
X64504Y-67761D01*
X64733Y-68161D01*
X64733Y-67761D01*
X65000Y-67761D02*
X65076Y-67761D01*
X65114Y-67780D01*
X65152Y-67819D01*
X65171Y-67895D01*
X65171Y-68028D01*
X65152Y-68104D01*
X65114Y-68142D01*
X65076Y-68161D01*
X65000Y-68161D01*
X64961Y-68142D01*
X64923Y-68104D01*
X64904Y-68028D01*
X64904Y-67895D01*
X64923Y-67819D01*
X64961Y-67780D01*
X65000Y-67761D01*
G54D17*
X64821Y-84371D02*
X64821Y-84199D01*
X65121Y-84285D02*
X64821Y-84285D01*
X64821Y-84128D02*
X65121Y-83928D01*
X64821Y-83928D02*
X65121Y-84128D01*
X65121Y-83657D02*
X65121Y-83828D01*
X65121Y-83742D02*
X64821Y-83742D01*
X64864Y-83771D01*
X64892Y-83800D01*
X64907Y-83828D01*
X59850Y-91654D02*
X59892Y-91668D01*
X59964Y-91668D01*
X59992Y-91654D01*
X60007Y-91640D01*
X60021Y-91611D01*
X60021Y-91582D01*
X60007Y-91554D01*
X59992Y-91540D01*
X59964Y-91525D01*
X59907Y-91511D01*
X59878Y-91497D01*
X59864Y-91482D01*
X59850Y-91454D01*
X59850Y-91425D01*
X59864Y-91397D01*
X59878Y-91382D01*
X59907Y-91368D01*
X59978Y-91368D01*
X60021Y-91382D01*
X60121Y-91368D02*
X60192Y-91668D01*
X60250Y-91454D01*
X60307Y-91668D01*
X60378Y-91368D01*
X60650Y-91668D02*
X60478Y-91668D01*
X60564Y-91668D02*
X60564Y-91368D01*
X60535Y-91411D01*
X60507Y-91440D01*
X60478Y-91454D01*
G54D12*
X58750Y-97964D02*
X58835Y-97992D01*
X58978Y-97992D01*
X59035Y-97964D01*
X59064Y-97935D01*
X59092Y-97878D01*
X59092Y-97821D01*
X59064Y-97764D01*
X59035Y-97735D01*
X58978Y-97707D01*
X58864Y-97678D01*
X58807Y-97650D01*
X58778Y-97621D01*
X58750Y-97564D01*
X58750Y-97507D01*
X58778Y-97450D01*
X58807Y-97421D01*
X58864Y-97392D01*
X59007Y-97392D01*
X59092Y-97421D01*
X59292Y-97392D02*
X59435Y-97992D01*
X59550Y-97564D01*
X59664Y-97992D01*
X59807Y-97392D01*
X60035Y-97992D02*
X60035Y-97392D01*
X60235Y-97392D02*
X60578Y-97392D01*
X60407Y-97992D02*
X60407Y-97392D01*
X61121Y-97935D02*
X61092Y-97964D01*
X61007Y-97992D01*
X60950Y-97992D01*
X60864Y-97964D01*
X60807Y-97907D01*
X60778Y-97850D01*
X60750Y-97735D01*
X60750Y-97650D01*
X60778Y-97535D01*
X60807Y-97478D01*
X60864Y-97421D01*
X60950Y-97392D01*
X61007Y-97392D01*
X61092Y-97421D01*
X61121Y-97450D01*
X61378Y-97992D02*
X61378Y-97392D01*
X61378Y-97678D02*
X61721Y-97678D01*
X61721Y-97992D02*
X61721Y-97392D01*
G54D17*
X59584Y-96701D02*
X59284Y-96701D01*
X59498Y-96601D01*
X59284Y-96501D01*
X59584Y-96501D01*
X59284Y-96387D02*
X59584Y-96187D01*
X59284Y-96187D02*
X59584Y-96387D01*
X59584Y-95915D02*
X59584Y-96087D01*
X59584Y-96001D02*
X59284Y-96001D01*
X59326Y-96030D01*
X59355Y-96058D01*
X59369Y-96087D01*
X59284Y-95815D02*
X59284Y-95630D01*
X59398Y-95730D01*
X59398Y-95687D01*
X59412Y-95658D01*
X59426Y-95644D01*
X59455Y-95630D01*
X59526Y-95630D01*
X59555Y-95644D01*
X59569Y-95658D01*
X59584Y-95687D01*
X59584Y-95773D01*
X59569Y-95801D01*
X59555Y-95815D01*
X59412Y-95458D02*
X59398Y-95487D01*
X59384Y-95501D01*
X59355Y-95515D01*
X59341Y-95515D01*
X59312Y-95501D01*
X59298Y-95487D01*
X59284Y-95458D01*
X59284Y-95401D01*
X59298Y-95373D01*
X59312Y-95358D01*
X59341Y-95344D01*
X59355Y-95344D01*
X59384Y-95358D01*
X59398Y-95373D01*
X59412Y-95401D01*
X59412Y-95458D01*
X59426Y-95487D01*
X59441Y-95501D01*
X59469Y-95515D01*
X59526Y-95515D01*
X59555Y-95501D01*
X59569Y-95487D01*
X59584Y-95458D01*
X59584Y-95401D01*
X59569Y-95373D01*
X59555Y-95358D01*
X59526Y-95344D01*
X59469Y-95344D01*
X59441Y-95358D01*
X59426Y-95373D01*
X59412Y-95401D01*
X59312Y-95230D02*
X59298Y-95215D01*
X59284Y-95187D01*
X59284Y-95115D01*
X59298Y-95087D01*
X59312Y-95073D01*
X59341Y-95058D01*
X59369Y-95058D01*
X59412Y-95073D01*
X59584Y-95244D01*
X59584Y-95058D01*
X59469Y-94930D02*
X59469Y-94701D01*
X59426Y-94458D02*
X59426Y-94558D01*
X59584Y-94558D02*
X59284Y-94558D01*
X59284Y-94415D01*
X59584Y-94287D02*
X59584Y-94230D01*
X59569Y-94201D01*
X59555Y-94187D01*
X59512Y-94158D01*
X59455Y-94144D01*
X59341Y-94144D01*
X59312Y-94158D01*
X59298Y-94173D01*
X59284Y-94201D01*
X59284Y-94258D01*
X59298Y-94287D01*
X59312Y-94301D01*
X59341Y-94315D01*
X59412Y-94315D01*
X59441Y-94301D01*
X59455Y-94287D01*
X59469Y-94258D01*
X59469Y-94201D01*
X59455Y-94173D01*
X59441Y-94158D01*
X59412Y-94144D01*
X59584Y-93858D02*
X59584Y-94030D01*
X59584Y-93944D02*
X59284Y-93944D01*
X59326Y-93973D01*
X59355Y-94001D01*
X59369Y-94030D01*
X52350Y-91654D02*
X52392Y-91668D01*
X52464Y-91668D01*
X52492Y-91654D01*
X52507Y-91640D01*
X52521Y-91611D01*
X52521Y-91582D01*
X52507Y-91554D01*
X52492Y-91540D01*
X52464Y-91525D01*
X52407Y-91511D01*
X52378Y-91497D01*
X52364Y-91482D01*
X52350Y-91454D01*
X52350Y-91425D01*
X52364Y-91397D01*
X52378Y-91382D01*
X52407Y-91368D01*
X52478Y-91368D01*
X52521Y-91382D01*
X52621Y-91368D02*
X52692Y-91668D01*
X52750Y-91454D01*
X52807Y-91668D01*
X52878Y-91368D01*
X52978Y-91397D02*
X52992Y-91382D01*
X53021Y-91368D01*
X53092Y-91368D01*
X53121Y-91382D01*
X53135Y-91397D01*
X53150Y-91425D01*
X53150Y-91454D01*
X53135Y-91497D01*
X52964Y-91668D01*
X53150Y-91668D01*
G54D12*
X51635Y-97992D02*
X51435Y-97707D01*
X51292Y-97992D02*
X51292Y-97392D01*
X51521Y-97392D01*
X51578Y-97421D01*
X51607Y-97450D01*
X51635Y-97507D01*
X51635Y-97592D01*
X51607Y-97650D01*
X51578Y-97678D01*
X51521Y-97707D01*
X51292Y-97707D01*
X51892Y-97678D02*
X52092Y-97678D01*
X52178Y-97992D02*
X51892Y-97992D01*
X51892Y-97392D01*
X52178Y-97392D01*
X52350Y-97392D02*
X52550Y-97992D01*
X52750Y-97392D01*
X52950Y-97678D02*
X53150Y-97678D01*
X53235Y-97992D02*
X52950Y-97992D01*
X52950Y-97392D01*
X53235Y-97392D01*
X53464Y-97821D02*
X53750Y-97821D01*
X53407Y-97992D02*
X53607Y-97392D01*
X53807Y-97992D01*
X54292Y-97992D02*
X54007Y-97992D01*
X54007Y-97392D01*
G54D17*
X52084Y-96701D02*
X51784Y-96701D01*
X51998Y-96601D01*
X51784Y-96501D01*
X52084Y-96501D01*
X51784Y-96387D02*
X52084Y-96187D01*
X51784Y-96187D02*
X52084Y-96387D01*
X52084Y-95915D02*
X52084Y-96087D01*
X52084Y-96001D02*
X51784Y-96001D01*
X51826Y-96030D01*
X51855Y-96058D01*
X51869Y-96087D01*
X51784Y-95815D02*
X51784Y-95630D01*
X51898Y-95730D01*
X51898Y-95687D01*
X51912Y-95658D01*
X51926Y-95644D01*
X51955Y-95630D01*
X52026Y-95630D01*
X52055Y-95644D01*
X52069Y-95658D01*
X52084Y-95687D01*
X52084Y-95773D01*
X52069Y-95801D01*
X52055Y-95815D01*
X51912Y-95458D02*
X51898Y-95487D01*
X51884Y-95501D01*
X51855Y-95515D01*
X51841Y-95515D01*
X51812Y-95501D01*
X51798Y-95487D01*
X51784Y-95458D01*
X51784Y-95401D01*
X51798Y-95373D01*
X51812Y-95358D01*
X51841Y-95344D01*
X51855Y-95344D01*
X51884Y-95358D01*
X51898Y-95373D01*
X51912Y-95401D01*
X51912Y-95458D01*
X51926Y-95487D01*
X51941Y-95501D01*
X51969Y-95515D01*
X52026Y-95515D01*
X52055Y-95501D01*
X52069Y-95487D01*
X52084Y-95458D01*
X52084Y-95401D01*
X52069Y-95373D01*
X52055Y-95358D01*
X52026Y-95344D01*
X51969Y-95344D01*
X51941Y-95358D01*
X51926Y-95373D01*
X51912Y-95401D01*
X51812Y-95230D02*
X51798Y-95215D01*
X51784Y-95187D01*
X51784Y-95115D01*
X51798Y-95087D01*
X51812Y-95073D01*
X51841Y-95058D01*
X51869Y-95058D01*
X51912Y-95073D01*
X52084Y-95244D01*
X52084Y-95058D01*
X51969Y-94930D02*
X51969Y-94701D01*
X51926Y-94458D02*
X51926Y-94558D01*
X52084Y-94558D02*
X51784Y-94558D01*
X51784Y-94415D01*
X52084Y-94287D02*
X52084Y-94230D01*
X52069Y-94201D01*
X52055Y-94187D01*
X52012Y-94158D01*
X51955Y-94144D01*
X51841Y-94144D01*
X51812Y-94158D01*
X51798Y-94173D01*
X51784Y-94201D01*
X51784Y-94258D01*
X51798Y-94287D01*
X51812Y-94301D01*
X51841Y-94315D01*
X51912Y-94315D01*
X51941Y-94301D01*
X51955Y-94287D01*
X51969Y-94258D01*
X51969Y-94201D01*
X51955Y-94173D01*
X51941Y-94158D01*
X51912Y-94144D01*
X52084Y-93858D02*
X52084Y-94030D01*
X52084Y-93944D02*
X51784Y-93944D01*
X51826Y-93973D01*
X51855Y-94001D01*
X51869Y-94030D01*
X44850Y-91654D02*
X44892Y-91668D01*
X44964Y-91668D01*
X44992Y-91654D01*
X45007Y-91640D01*
X45021Y-91611D01*
X45021Y-91582D01*
X45007Y-91554D01*
X44992Y-91540D01*
X44964Y-91525D01*
X44907Y-91511D01*
X44878Y-91497D01*
X44864Y-91482D01*
X44850Y-91454D01*
X44850Y-91425D01*
X44864Y-91397D01*
X44878Y-91382D01*
X44907Y-91368D01*
X44978Y-91368D01*
X45021Y-91382D01*
X45121Y-91368D02*
X45192Y-91668D01*
X45250Y-91454D01*
X45307Y-91668D01*
X45378Y-91368D01*
X45464Y-91368D02*
X45650Y-91368D01*
X45550Y-91482D01*
X45592Y-91482D01*
X45621Y-91497D01*
X45635Y-91511D01*
X45650Y-91540D01*
X45650Y-91611D01*
X45635Y-91640D01*
X45621Y-91654D01*
X45592Y-91668D01*
X45507Y-91668D01*
X45478Y-91654D01*
X45464Y-91640D01*
G54D12*
X44064Y-97992D02*
X43864Y-97707D01*
X43721Y-97992D02*
X43721Y-97392D01*
X43950Y-97392D01*
X44007Y-97421D01*
X44035Y-97450D01*
X44064Y-97507D01*
X44064Y-97592D01*
X44035Y-97650D01*
X44007Y-97678D01*
X43950Y-97707D01*
X43721Y-97707D01*
X44321Y-97678D02*
X44521Y-97678D01*
X44607Y-97992D02*
X44321Y-97992D01*
X44321Y-97392D01*
X44607Y-97392D01*
X45207Y-97992D02*
X45007Y-97707D01*
X44864Y-97992D02*
X44864Y-97392D01*
X45092Y-97392D01*
X45150Y-97421D01*
X45178Y-97450D01*
X45207Y-97507D01*
X45207Y-97592D01*
X45178Y-97650D01*
X45150Y-97678D01*
X45092Y-97707D01*
X44864Y-97707D01*
X45578Y-97392D02*
X45692Y-97392D01*
X45750Y-97421D01*
X45807Y-97478D01*
X45835Y-97592D01*
X45835Y-97792D01*
X45807Y-97907D01*
X45750Y-97964D01*
X45692Y-97992D01*
X45578Y-97992D01*
X45521Y-97964D01*
X45464Y-97907D01*
X45435Y-97792D01*
X45435Y-97592D01*
X45464Y-97478D01*
X45521Y-97421D01*
X45578Y-97392D01*
X46378Y-97992D02*
X46092Y-97992D01*
X46092Y-97392D01*
X46864Y-97992D02*
X46578Y-97992D01*
X46578Y-97392D01*
G54D17*
X44584Y-96701D02*
X44284Y-96701D01*
X44498Y-96601D01*
X44284Y-96501D01*
X44584Y-96501D01*
X44284Y-96387D02*
X44584Y-96187D01*
X44284Y-96187D02*
X44584Y-96387D01*
X44584Y-95915D02*
X44584Y-96087D01*
X44584Y-96001D02*
X44284Y-96001D01*
X44326Y-96030D01*
X44355Y-96058D01*
X44369Y-96087D01*
X44284Y-95815D02*
X44284Y-95630D01*
X44398Y-95730D01*
X44398Y-95687D01*
X44412Y-95658D01*
X44426Y-95644D01*
X44455Y-95630D01*
X44526Y-95630D01*
X44555Y-95644D01*
X44569Y-95658D01*
X44584Y-95687D01*
X44584Y-95773D01*
X44569Y-95801D01*
X44555Y-95815D01*
X44412Y-95458D02*
X44398Y-95487D01*
X44384Y-95501D01*
X44355Y-95515D01*
X44341Y-95515D01*
X44312Y-95501D01*
X44298Y-95487D01*
X44284Y-95458D01*
X44284Y-95401D01*
X44298Y-95373D01*
X44312Y-95358D01*
X44341Y-95344D01*
X44355Y-95344D01*
X44384Y-95358D01*
X44398Y-95373D01*
X44412Y-95401D01*
X44412Y-95458D01*
X44426Y-95487D01*
X44441Y-95501D01*
X44469Y-95515D01*
X44526Y-95515D01*
X44555Y-95501D01*
X44569Y-95487D01*
X44584Y-95458D01*
X44584Y-95401D01*
X44569Y-95373D01*
X44555Y-95358D01*
X44526Y-95344D01*
X44469Y-95344D01*
X44441Y-95358D01*
X44426Y-95373D01*
X44412Y-95401D01*
X44312Y-95230D02*
X44298Y-95215D01*
X44284Y-95187D01*
X44284Y-95115D01*
X44298Y-95087D01*
X44312Y-95073D01*
X44341Y-95058D01*
X44369Y-95058D01*
X44412Y-95073D01*
X44584Y-95244D01*
X44584Y-95058D01*
X44469Y-94930D02*
X44469Y-94701D01*
X44426Y-94458D02*
X44426Y-94558D01*
X44584Y-94558D02*
X44284Y-94558D01*
X44284Y-94415D01*
X44584Y-94287D02*
X44584Y-94230D01*
X44569Y-94201D01*
X44555Y-94187D01*
X44512Y-94158D01*
X44455Y-94144D01*
X44341Y-94144D01*
X44312Y-94158D01*
X44298Y-94173D01*
X44284Y-94201D01*
X44284Y-94258D01*
X44298Y-94287D01*
X44312Y-94301D01*
X44341Y-94315D01*
X44412Y-94315D01*
X44441Y-94301D01*
X44455Y-94287D01*
X44469Y-94258D01*
X44469Y-94201D01*
X44455Y-94173D01*
X44441Y-94158D01*
X44412Y-94144D01*
X44584Y-93858D02*
X44584Y-94030D01*
X44584Y-93944D02*
X44284Y-93944D01*
X44326Y-93973D01*
X44355Y-94001D01*
X44369Y-94030D01*
X55385Y-59342D02*
X55371Y-59357D01*
X55328Y-59371D01*
X55300Y-59371D01*
X55257Y-59357D01*
X55228Y-59328D01*
X55214Y-59300D01*
X55200Y-59242D01*
X55200Y-59200D01*
X55214Y-59142D01*
X55228Y-59114D01*
X55257Y-59085D01*
X55300Y-59071D01*
X55328Y-59071D01*
X55371Y-59085D01*
X55385Y-59100D01*
X55571Y-59071D02*
X55628Y-59071D01*
X55657Y-59085D01*
X55685Y-59114D01*
X55700Y-59171D01*
X55700Y-59271D01*
X55685Y-59328D01*
X55657Y-59357D01*
X55628Y-59371D01*
X55571Y-59371D01*
X55542Y-59357D01*
X55514Y-59328D01*
X55500Y-59271D01*
X55500Y-59171D01*
X55514Y-59114D01*
X55542Y-59085D01*
X55571Y-59071D01*
X55828Y-59371D02*
X55828Y-59071D01*
X56000Y-59371D01*
X56000Y-59071D01*
X56271Y-59171D02*
X56271Y-59371D01*
X56200Y-59057D02*
X56128Y-59271D01*
X56314Y-59271D01*
X58666Y-64542D02*
X58652Y-64528D01*
X58638Y-64499D01*
X58638Y-64428D01*
X58652Y-64399D01*
X58666Y-64385D01*
X58695Y-64371D01*
X58724Y-64371D01*
X58766Y-64385D01*
X58938Y-64557D01*
X58938Y-64371D01*
X58909Y-64242D02*
X58924Y-64228D01*
X58938Y-64242D01*
X58924Y-64257D01*
X58909Y-64242D01*
X58938Y-64242D01*
X58938Y-63942D02*
X58938Y-64114D01*
X58938Y-64028D02*
X58638Y-64028D01*
X58681Y-64057D01*
X58709Y-64085D01*
X58724Y-64114D01*
X58938Y-63842D02*
X58738Y-63685D01*
X58738Y-63842D02*
X58938Y-63685D01*
X58638Y-63428D02*
X58638Y-63571D01*
X58781Y-63585D01*
X58766Y-63571D01*
X58752Y-63542D01*
X58752Y-63471D01*
X58766Y-63442D01*
X58781Y-63428D01*
X58809Y-63414D01*
X58881Y-63414D01*
X58909Y-63428D01*
X58924Y-63442D01*
X58938Y-63471D01*
X58938Y-63542D01*
X58924Y-63571D01*
X58909Y-63585D01*
X58909Y-63285D02*
X58924Y-63271D01*
X58938Y-63285D01*
X58924Y-63299D01*
X58909Y-63285D01*
X58938Y-63285D01*
X58638Y-62999D02*
X58638Y-63142D01*
X58781Y-63157D01*
X58766Y-63142D01*
X58752Y-63114D01*
X58752Y-63042D01*
X58766Y-63014D01*
X58781Y-62999D01*
X58809Y-62985D01*
X58881Y-62985D01*
X58909Y-62999D01*
X58924Y-63014D01*
X58938Y-63042D01*
X58938Y-63114D01*
X58924Y-63142D01*
X58909Y-63157D01*
X58938Y-62857D02*
X58738Y-62857D01*
X58766Y-62857D02*
X58752Y-62842D01*
X58738Y-62814D01*
X58738Y-62771D01*
X58752Y-62742D01*
X58781Y-62728D01*
X58938Y-62728D01*
X58781Y-62728D02*
X58752Y-62714D01*
X58738Y-62685D01*
X58738Y-62642D01*
X58752Y-62614D01*
X58781Y-62599D01*
X58938Y-62599D01*
X58938Y-62457D02*
X58738Y-62457D01*
X58766Y-62457D02*
X58752Y-62442D01*
X58738Y-62414D01*
X58738Y-62371D01*
X58752Y-62342D01*
X58781Y-62328D01*
X58938Y-62328D01*
X58781Y-62328D02*
X58752Y-62314D01*
X58738Y-62285D01*
X58738Y-62242D01*
X58752Y-62214D01*
X58781Y-62199D01*
X58938Y-62199D01*
X47621Y-93892D02*
X47478Y-93992D01*
X47621Y-94064D02*
X47321Y-94064D01*
X47321Y-93950D01*
X47335Y-93921D01*
X47350Y-93907D01*
X47378Y-93892D01*
X47421Y-93892D01*
X47450Y-93907D01*
X47464Y-93921D01*
X47478Y-93950D01*
X47478Y-94064D01*
X47350Y-93778D02*
X47335Y-93764D01*
X47321Y-93735D01*
X47321Y-93664D01*
X47335Y-93635D01*
X47350Y-93621D01*
X47378Y-93607D01*
X47407Y-93607D01*
X47450Y-93621D01*
X47621Y-93792D01*
X47621Y-93607D01*
X47321Y-93421D02*
X47321Y-93392D01*
X47335Y-93364D01*
X47350Y-93350D01*
X47378Y-93335D01*
X47435Y-93321D01*
X47507Y-93321D01*
X47564Y-93335D01*
X47592Y-93350D01*
X47607Y-93364D01*
X47621Y-93392D01*
X47621Y-93421D01*
X47607Y-93450D01*
X47592Y-93464D01*
X47564Y-93478D01*
X47507Y-93492D01*
X47435Y-93492D01*
X47378Y-93478D01*
X47350Y-93464D01*
X47335Y-93450D01*
X47321Y-93421D01*
X47621Y-95621D02*
X47621Y-95792D01*
X47621Y-95707D02*
X47321Y-95707D01*
X47364Y-95735D01*
X47392Y-95764D01*
X47407Y-95792D01*
X47321Y-95435D02*
X47321Y-95407D01*
X47335Y-95378D01*
X47350Y-95364D01*
X47378Y-95349D01*
X47435Y-95335D01*
X47507Y-95335D01*
X47564Y-95349D01*
X47592Y-95364D01*
X47607Y-95378D01*
X47621Y-95407D01*
X47621Y-95435D01*
X47607Y-95464D01*
X47592Y-95478D01*
X47564Y-95492D01*
X47507Y-95507D01*
X47435Y-95507D01*
X47378Y-95492D01*
X47350Y-95478D01*
X47335Y-95464D01*
X47321Y-95435D01*
X47321Y-95150D02*
X47321Y-95121D01*
X47335Y-95092D01*
X47350Y-95078D01*
X47378Y-95064D01*
X47435Y-95050D01*
X47507Y-95050D01*
X47564Y-95064D01*
X47592Y-95078D01*
X47607Y-95092D01*
X47621Y-95121D01*
X47621Y-95150D01*
X47607Y-95178D01*
X47592Y-95192D01*
X47564Y-95207D01*
X47507Y-95221D01*
X47435Y-95221D01*
X47378Y-95207D01*
X47350Y-95192D01*
X47335Y-95178D01*
X47321Y-95150D01*
X47621Y-94921D02*
X47321Y-94921D01*
X47507Y-94892D02*
X47621Y-94807D01*
X47421Y-94807D02*
X47535Y-94921D01*
X55121Y-93892D02*
X54978Y-93992D01*
X55121Y-94064D02*
X54821Y-94064D01*
X54821Y-93950D01*
X54835Y-93921D01*
X54850Y-93907D01*
X54878Y-93892D01*
X54921Y-93892D01*
X54950Y-93907D01*
X54964Y-93921D01*
X54978Y-93950D01*
X54978Y-94064D01*
X54850Y-93778D02*
X54835Y-93764D01*
X54821Y-93735D01*
X54821Y-93664D01*
X54835Y-93635D01*
X54850Y-93621D01*
X54878Y-93607D01*
X54907Y-93607D01*
X54950Y-93621D01*
X55121Y-93792D01*
X55121Y-93607D01*
X55121Y-93321D02*
X55121Y-93492D01*
X55121Y-93407D02*
X54821Y-93407D01*
X54864Y-93435D01*
X54892Y-93464D01*
X54907Y-93492D01*
X55121Y-95621D02*
X55121Y-95792D01*
X55121Y-95707D02*
X54821Y-95707D01*
X54864Y-95735D01*
X54892Y-95764D01*
X54907Y-95792D01*
X54821Y-95435D02*
X54821Y-95407D01*
X54835Y-95378D01*
X54850Y-95364D01*
X54878Y-95349D01*
X54935Y-95335D01*
X55007Y-95335D01*
X55064Y-95349D01*
X55092Y-95364D01*
X55107Y-95378D01*
X55121Y-95407D01*
X55121Y-95435D01*
X55107Y-95464D01*
X55092Y-95478D01*
X55064Y-95492D01*
X55007Y-95507D01*
X54935Y-95507D01*
X54878Y-95492D01*
X54850Y-95478D01*
X54835Y-95464D01*
X54821Y-95435D01*
X54821Y-95150D02*
X54821Y-95121D01*
X54835Y-95092D01*
X54850Y-95078D01*
X54878Y-95064D01*
X54935Y-95050D01*
X55007Y-95050D01*
X55064Y-95064D01*
X55092Y-95078D01*
X55107Y-95092D01*
X55121Y-95121D01*
X55121Y-95150D01*
X55107Y-95178D01*
X55092Y-95192D01*
X55064Y-95207D01*
X55007Y-95221D01*
X54935Y-95221D01*
X54878Y-95207D01*
X54850Y-95192D01*
X54835Y-95178D01*
X54821Y-95150D01*
X55121Y-94921D02*
X54821Y-94921D01*
X55007Y-94892D02*
X55121Y-94807D01*
X54921Y-94807D02*
X55035Y-94921D01*
X62621Y-89892D02*
X62478Y-89992D01*
X62621Y-90064D02*
X62321Y-90064D01*
X62321Y-89950D01*
X62335Y-89921D01*
X62350Y-89907D01*
X62378Y-89892D01*
X62421Y-89892D01*
X62450Y-89907D01*
X62464Y-89921D01*
X62478Y-89950D01*
X62478Y-90064D01*
X62350Y-89778D02*
X62335Y-89764D01*
X62321Y-89735D01*
X62321Y-89664D01*
X62335Y-89635D01*
X62350Y-89621D01*
X62378Y-89607D01*
X62407Y-89607D01*
X62450Y-89621D01*
X62621Y-89792D01*
X62621Y-89607D01*
X62350Y-89492D02*
X62335Y-89478D01*
X62321Y-89450D01*
X62321Y-89378D01*
X62335Y-89350D01*
X62350Y-89335D01*
X62378Y-89321D01*
X62407Y-89321D01*
X62450Y-89335D01*
X62621Y-89507D01*
X62621Y-89321D01*
X62621Y-91621D02*
X62621Y-91792D01*
X62621Y-91707D02*
X62321Y-91707D01*
X62364Y-91735D01*
X62392Y-91764D01*
X62407Y-91792D01*
X62321Y-91435D02*
X62321Y-91407D01*
X62335Y-91378D01*
X62350Y-91364D01*
X62378Y-91349D01*
X62435Y-91335D01*
X62507Y-91335D01*
X62564Y-91349D01*
X62592Y-91364D01*
X62607Y-91378D01*
X62621Y-91407D01*
X62621Y-91435D01*
X62607Y-91464D01*
X62592Y-91478D01*
X62564Y-91492D01*
X62507Y-91507D01*
X62435Y-91507D01*
X62378Y-91492D01*
X62350Y-91478D01*
X62335Y-91464D01*
X62321Y-91435D01*
X62321Y-91150D02*
X62321Y-91121D01*
X62335Y-91092D01*
X62350Y-91078D01*
X62378Y-91064D01*
X62435Y-91050D01*
X62507Y-91050D01*
X62564Y-91064D01*
X62592Y-91078D01*
X62607Y-91092D01*
X62621Y-91121D01*
X62621Y-91150D01*
X62607Y-91178D01*
X62592Y-91192D01*
X62564Y-91207D01*
X62507Y-91221D01*
X62435Y-91221D01*
X62378Y-91207D01*
X62350Y-91192D01*
X62335Y-91178D01*
X62321Y-91150D01*
X62621Y-90921D02*
X62321Y-90921D01*
X62507Y-90892D02*
X62621Y-90807D01*
X62421Y-90807D02*
X62535Y-90921D01*
X34528Y-87786D02*
X34528Y-87486D01*
X34700Y-87786D02*
X34571Y-87615D01*
X34700Y-87486D02*
X34528Y-87658D01*
X34957Y-87586D02*
X34957Y-87786D01*
X34885Y-87472D02*
X34814Y-87686D01*
X35000Y-87686D01*
X33178Y-82806D02*
X33078Y-82806D01*
X33078Y-82963D02*
X33078Y-82663D01*
X33221Y-82663D01*
X33292Y-82663D02*
X33464Y-82663D01*
X33378Y-82963D02*
X33378Y-82663D01*
X33735Y-82963D02*
X33635Y-82821D01*
X33564Y-82963D02*
X33564Y-82663D01*
X33678Y-82663D01*
X33707Y-82678D01*
X33721Y-82692D01*
X33735Y-82721D01*
X33735Y-82763D01*
X33721Y-82792D01*
X33707Y-82806D01*
X33678Y-82821D01*
X33564Y-82821D01*
X33864Y-82849D02*
X34092Y-82849D01*
X34335Y-82806D02*
X34378Y-82821D01*
X34392Y-82835D01*
X34407Y-82863D01*
X34407Y-82906D01*
X34392Y-82935D01*
X34378Y-82949D01*
X34350Y-82963D01*
X34235Y-82963D01*
X34235Y-82663D01*
X34335Y-82663D01*
X34364Y-82678D01*
X34378Y-82692D01*
X34392Y-82721D01*
X34392Y-82749D01*
X34378Y-82778D01*
X34364Y-82792D01*
X34335Y-82806D01*
X34235Y-82806D01*
X34507Y-82663D02*
X34692Y-82663D01*
X34592Y-82778D01*
X34635Y-82778D01*
X34664Y-82792D01*
X34678Y-82806D01*
X34692Y-82835D01*
X34692Y-82906D01*
X34678Y-82935D01*
X34664Y-82949D01*
X34635Y-82963D01*
X34550Y-82963D01*
X34521Y-82949D01*
X34507Y-82935D01*
X34978Y-82678D02*
X34950Y-82663D01*
X34907Y-82663D01*
X34864Y-82678D01*
X34835Y-82706D01*
X34821Y-82735D01*
X34807Y-82792D01*
X34807Y-82835D01*
X34821Y-82892D01*
X34835Y-82921D01*
X34864Y-82949D01*
X34907Y-82963D01*
X34935Y-82963D01*
X34978Y-82949D01*
X34992Y-82935D01*
X34992Y-82835D01*
X34935Y-82835D01*
X35221Y-82806D02*
X35264Y-82821D01*
X35278Y-82835D01*
X35292Y-82863D01*
X35292Y-82906D01*
X35278Y-82935D01*
X35264Y-82949D01*
X35235Y-82963D01*
X35121Y-82963D01*
X35121Y-82663D01*
X35221Y-82663D01*
X35250Y-82678D01*
X35264Y-82692D01*
X35278Y-82721D01*
X35278Y-82749D01*
X35264Y-82778D01*
X35250Y-82792D01*
X35221Y-82806D01*
X35121Y-82806D01*
X35478Y-82663D02*
X35507Y-82663D01*
X35535Y-82678D01*
X35550Y-82692D01*
X35564Y-82721D01*
X35578Y-82778D01*
X35578Y-82849D01*
X35564Y-82906D01*
X35550Y-82935D01*
X35535Y-82949D01*
X35507Y-82963D01*
X35478Y-82963D01*
X35450Y-82949D01*
X35435Y-82935D01*
X35421Y-82906D01*
X35407Y-82849D01*
X35407Y-82778D01*
X35421Y-82721D01*
X35435Y-82692D01*
X35450Y-82678D01*
X35478Y-82663D01*
X35764Y-82663D02*
X35792Y-82663D01*
X35821Y-82678D01*
X35835Y-82692D01*
X35850Y-82721D01*
X35864Y-82778D01*
X35864Y-82849D01*
X35850Y-82906D01*
X35835Y-82935D01*
X35821Y-82949D01*
X35792Y-82963D01*
X35764Y-82963D01*
X35735Y-82949D01*
X35721Y-82935D01*
X35707Y-82906D01*
X35692Y-82849D01*
X35692Y-82778D01*
X35707Y-82721D01*
X35721Y-82692D01*
X35735Y-82678D01*
X35764Y-82663D01*
X35964Y-82663D02*
X36150Y-82663D01*
X36050Y-82778D01*
X36092Y-82778D01*
X36121Y-82792D01*
X36135Y-82806D01*
X36150Y-82835D01*
X36150Y-82906D01*
X36135Y-82935D01*
X36121Y-82949D01*
X36092Y-82963D01*
X36007Y-82963D01*
X35978Y-82949D01*
X35964Y-82935D01*
X36250Y-82663D02*
X36450Y-82663D01*
X36250Y-82963D01*
X36450Y-82963D01*
X39528Y-87786D02*
X39528Y-87486D01*
X39700Y-87786D02*
X39571Y-87615D01*
X39700Y-87486D02*
X39528Y-87658D01*
X39800Y-87486D02*
X39985Y-87486D01*
X39885Y-87601D01*
X39928Y-87601D01*
X39957Y-87615D01*
X39971Y-87629D01*
X39985Y-87658D01*
X39985Y-87729D01*
X39971Y-87758D01*
X39957Y-87772D01*
X39928Y-87786D01*
X39842Y-87786D01*
X39814Y-87772D01*
X39800Y-87758D01*
X38178Y-82806D02*
X38078Y-82806D01*
X38078Y-82963D02*
X38078Y-82663D01*
X38221Y-82663D01*
X38292Y-82663D02*
X38464Y-82663D01*
X38378Y-82963D02*
X38378Y-82663D01*
X38735Y-82963D02*
X38635Y-82821D01*
X38564Y-82963D02*
X38564Y-82663D01*
X38678Y-82663D01*
X38707Y-82678D01*
X38721Y-82692D01*
X38735Y-82721D01*
X38735Y-82763D01*
X38721Y-82792D01*
X38707Y-82806D01*
X38678Y-82821D01*
X38564Y-82821D01*
X38864Y-82849D02*
X39092Y-82849D01*
X39335Y-82806D02*
X39378Y-82821D01*
X39392Y-82835D01*
X39407Y-82863D01*
X39407Y-82906D01*
X39392Y-82935D01*
X39378Y-82949D01*
X39350Y-82963D01*
X39235Y-82963D01*
X39235Y-82663D01*
X39335Y-82663D01*
X39364Y-82678D01*
X39378Y-82692D01*
X39392Y-82721D01*
X39392Y-82749D01*
X39378Y-82778D01*
X39364Y-82792D01*
X39335Y-82806D01*
X39235Y-82806D01*
X39507Y-82663D02*
X39692Y-82663D01*
X39592Y-82778D01*
X39635Y-82778D01*
X39664Y-82792D01*
X39678Y-82806D01*
X39692Y-82835D01*
X39692Y-82906D01*
X39678Y-82935D01*
X39664Y-82949D01*
X39635Y-82963D01*
X39550Y-82963D01*
X39521Y-82949D01*
X39507Y-82935D01*
X39978Y-82678D02*
X39950Y-82663D01*
X39907Y-82663D01*
X39864Y-82678D01*
X39835Y-82706D01*
X39821Y-82735D01*
X39807Y-82792D01*
X39807Y-82835D01*
X39821Y-82892D01*
X39835Y-82921D01*
X39864Y-82949D01*
X39907Y-82963D01*
X39935Y-82963D01*
X39978Y-82949D01*
X39992Y-82935D01*
X39992Y-82835D01*
X39935Y-82835D01*
X40221Y-82806D02*
X40264Y-82821D01*
X40278Y-82835D01*
X40292Y-82863D01*
X40292Y-82906D01*
X40278Y-82935D01*
X40264Y-82949D01*
X40235Y-82963D01*
X40121Y-82963D01*
X40121Y-82663D01*
X40221Y-82663D01*
X40250Y-82678D01*
X40264Y-82692D01*
X40278Y-82721D01*
X40278Y-82749D01*
X40264Y-82778D01*
X40250Y-82792D01*
X40221Y-82806D01*
X40121Y-82806D01*
X40478Y-82663D02*
X40507Y-82663D01*
X40535Y-82678D01*
X40550Y-82692D01*
X40564Y-82721D01*
X40578Y-82778D01*
X40578Y-82849D01*
X40564Y-82906D01*
X40550Y-82935D01*
X40535Y-82949D01*
X40507Y-82963D01*
X40478Y-82963D01*
X40450Y-82949D01*
X40435Y-82935D01*
X40421Y-82906D01*
X40407Y-82849D01*
X40407Y-82778D01*
X40421Y-82721D01*
X40435Y-82692D01*
X40450Y-82678D01*
X40478Y-82663D01*
X40764Y-82663D02*
X40792Y-82663D01*
X40821Y-82678D01*
X40835Y-82692D01*
X40850Y-82721D01*
X40864Y-82778D01*
X40864Y-82849D01*
X40850Y-82906D01*
X40835Y-82935D01*
X40821Y-82949D01*
X40792Y-82963D01*
X40764Y-82963D01*
X40735Y-82949D01*
X40721Y-82935D01*
X40707Y-82906D01*
X40692Y-82849D01*
X40692Y-82778D01*
X40707Y-82721D01*
X40721Y-82692D01*
X40735Y-82678D01*
X40764Y-82663D01*
X40964Y-82663D02*
X41150Y-82663D01*
X41050Y-82778D01*
X41092Y-82778D01*
X41121Y-82792D01*
X41135Y-82806D01*
X41150Y-82835D01*
X41150Y-82906D01*
X41135Y-82935D01*
X41121Y-82949D01*
X41092Y-82963D01*
X41007Y-82963D01*
X40978Y-82949D01*
X40964Y-82935D01*
X41250Y-82663D02*
X41450Y-82663D01*
X41250Y-82963D01*
X41450Y-82963D01*
X44528Y-82286D02*
X44528Y-81986D01*
X44700Y-82286D02*
X44571Y-82115D01*
X44700Y-81986D02*
X44528Y-82158D01*
X44957Y-81986D02*
X44900Y-81986D01*
X44871Y-82001D01*
X44857Y-82015D01*
X44828Y-82058D01*
X44814Y-82115D01*
X44814Y-82229D01*
X44828Y-82258D01*
X44842Y-82272D01*
X44871Y-82286D01*
X44928Y-82286D01*
X44957Y-82272D01*
X44971Y-82258D01*
X44985Y-82229D01*
X44985Y-82158D01*
X44971Y-82129D01*
X44957Y-82115D01*
X44928Y-82101D01*
X44871Y-82101D01*
X44842Y-82115D01*
X44828Y-82129D01*
X44814Y-82158D01*
X43178Y-77306D02*
X43078Y-77306D01*
X43078Y-77463D02*
X43078Y-77163D01*
X43221Y-77163D01*
X43292Y-77163D02*
X43464Y-77163D01*
X43378Y-77463D02*
X43378Y-77163D01*
X43735Y-77463D02*
X43635Y-77321D01*
X43564Y-77463D02*
X43564Y-77163D01*
X43678Y-77163D01*
X43707Y-77178D01*
X43721Y-77192D01*
X43735Y-77221D01*
X43735Y-77263D01*
X43721Y-77292D01*
X43707Y-77306D01*
X43678Y-77321D01*
X43564Y-77321D01*
X43864Y-77349D02*
X44092Y-77349D01*
X44335Y-77306D02*
X44378Y-77321D01*
X44392Y-77335D01*
X44407Y-77363D01*
X44407Y-77406D01*
X44392Y-77435D01*
X44378Y-77449D01*
X44350Y-77463D01*
X44235Y-77463D01*
X44235Y-77163D01*
X44335Y-77163D01*
X44364Y-77178D01*
X44378Y-77192D01*
X44392Y-77221D01*
X44392Y-77249D01*
X44378Y-77278D01*
X44364Y-77292D01*
X44335Y-77306D01*
X44235Y-77306D01*
X44507Y-77163D02*
X44692Y-77163D01*
X44592Y-77278D01*
X44635Y-77278D01*
X44664Y-77292D01*
X44678Y-77306D01*
X44692Y-77335D01*
X44692Y-77406D01*
X44678Y-77435D01*
X44664Y-77449D01*
X44635Y-77463D01*
X44550Y-77463D01*
X44521Y-77449D01*
X44507Y-77435D01*
X44978Y-77178D02*
X44950Y-77163D01*
X44907Y-77163D01*
X44864Y-77178D01*
X44835Y-77206D01*
X44821Y-77235D01*
X44807Y-77292D01*
X44807Y-77335D01*
X44821Y-77392D01*
X44835Y-77421D01*
X44864Y-77449D01*
X44907Y-77463D01*
X44935Y-77463D01*
X44978Y-77449D01*
X44992Y-77435D01*
X44992Y-77335D01*
X44935Y-77335D01*
X45221Y-77306D02*
X45264Y-77321D01*
X45278Y-77335D01*
X45292Y-77363D01*
X45292Y-77406D01*
X45278Y-77435D01*
X45264Y-77449D01*
X45235Y-77463D01*
X45121Y-77463D01*
X45121Y-77163D01*
X45221Y-77163D01*
X45250Y-77178D01*
X45264Y-77192D01*
X45278Y-77221D01*
X45278Y-77249D01*
X45264Y-77278D01*
X45250Y-77292D01*
X45221Y-77306D01*
X45121Y-77306D01*
X45478Y-77163D02*
X45507Y-77163D01*
X45535Y-77178D01*
X45550Y-77192D01*
X45564Y-77221D01*
X45578Y-77278D01*
X45578Y-77349D01*
X45564Y-77406D01*
X45550Y-77435D01*
X45535Y-77449D01*
X45507Y-77463D01*
X45478Y-77463D01*
X45450Y-77449D01*
X45435Y-77435D01*
X45421Y-77406D01*
X45407Y-77349D01*
X45407Y-77278D01*
X45421Y-77221D01*
X45435Y-77192D01*
X45450Y-77178D01*
X45478Y-77163D01*
X45764Y-77163D02*
X45792Y-77163D01*
X45821Y-77178D01*
X45835Y-77192D01*
X45850Y-77221D01*
X45864Y-77278D01*
X45864Y-77349D01*
X45850Y-77406D01*
X45835Y-77435D01*
X45821Y-77449D01*
X45792Y-77463D01*
X45764Y-77463D01*
X45735Y-77449D01*
X45721Y-77435D01*
X45707Y-77406D01*
X45692Y-77349D01*
X45692Y-77278D01*
X45707Y-77221D01*
X45721Y-77192D01*
X45735Y-77178D01*
X45764Y-77163D01*
X45964Y-77163D02*
X46150Y-77163D01*
X46050Y-77278D01*
X46092Y-77278D01*
X46121Y-77292D01*
X46135Y-77306D01*
X46150Y-77335D01*
X46150Y-77406D01*
X46135Y-77435D01*
X46121Y-77449D01*
X46092Y-77463D01*
X46007Y-77463D01*
X45978Y-77449D01*
X45964Y-77435D01*
X46250Y-77163D02*
X46450Y-77163D01*
X46250Y-77463D01*
X46450Y-77463D01*
X39528Y-82286D02*
X39528Y-81986D01*
X39700Y-82286D02*
X39571Y-82115D01*
X39700Y-81986D02*
X39528Y-82158D01*
X39985Y-82286D02*
X39814Y-82286D01*
X39900Y-82286D02*
X39900Y-81986D01*
X39871Y-82029D01*
X39842Y-82058D01*
X39814Y-82072D01*
X38178Y-77306D02*
X38078Y-77306D01*
X38078Y-77463D02*
X38078Y-77163D01*
X38221Y-77163D01*
X38292Y-77163D02*
X38464Y-77163D01*
X38378Y-77463D02*
X38378Y-77163D01*
X38735Y-77463D02*
X38635Y-77321D01*
X38564Y-77463D02*
X38564Y-77163D01*
X38678Y-77163D01*
X38707Y-77178D01*
X38721Y-77192D01*
X38735Y-77221D01*
X38735Y-77263D01*
X38721Y-77292D01*
X38707Y-77306D01*
X38678Y-77321D01*
X38564Y-77321D01*
X38864Y-77349D02*
X39092Y-77349D01*
X39335Y-77306D02*
X39378Y-77321D01*
X39392Y-77335D01*
X39407Y-77363D01*
X39407Y-77406D01*
X39392Y-77435D01*
X39378Y-77449D01*
X39350Y-77463D01*
X39235Y-77463D01*
X39235Y-77163D01*
X39335Y-77163D01*
X39364Y-77178D01*
X39378Y-77192D01*
X39392Y-77221D01*
X39392Y-77249D01*
X39378Y-77278D01*
X39364Y-77292D01*
X39335Y-77306D01*
X39235Y-77306D01*
X39507Y-77163D02*
X39692Y-77163D01*
X39592Y-77278D01*
X39635Y-77278D01*
X39664Y-77292D01*
X39678Y-77306D01*
X39692Y-77335D01*
X39692Y-77406D01*
X39678Y-77435D01*
X39664Y-77449D01*
X39635Y-77463D01*
X39550Y-77463D01*
X39521Y-77449D01*
X39507Y-77435D01*
X39978Y-77178D02*
X39950Y-77163D01*
X39907Y-77163D01*
X39864Y-77178D01*
X39835Y-77206D01*
X39821Y-77235D01*
X39807Y-77292D01*
X39807Y-77335D01*
X39821Y-77392D01*
X39835Y-77421D01*
X39864Y-77449D01*
X39907Y-77463D01*
X39935Y-77463D01*
X39978Y-77449D01*
X39992Y-77435D01*
X39992Y-77335D01*
X39935Y-77335D01*
X40221Y-77306D02*
X40264Y-77321D01*
X40278Y-77335D01*
X40292Y-77363D01*
X40292Y-77406D01*
X40278Y-77435D01*
X40264Y-77449D01*
X40235Y-77463D01*
X40121Y-77463D01*
X40121Y-77163D01*
X40221Y-77163D01*
X40250Y-77178D01*
X40264Y-77192D01*
X40278Y-77221D01*
X40278Y-77249D01*
X40264Y-77278D01*
X40250Y-77292D01*
X40221Y-77306D01*
X40121Y-77306D01*
X40478Y-77163D02*
X40507Y-77163D01*
X40535Y-77178D01*
X40550Y-77192D01*
X40564Y-77221D01*
X40578Y-77278D01*
X40578Y-77349D01*
X40564Y-77406D01*
X40550Y-77435D01*
X40535Y-77449D01*
X40507Y-77463D01*
X40478Y-77463D01*
X40450Y-77449D01*
X40435Y-77435D01*
X40421Y-77406D01*
X40407Y-77349D01*
X40407Y-77278D01*
X40421Y-77221D01*
X40435Y-77192D01*
X40450Y-77178D01*
X40478Y-77163D01*
X40764Y-77163D02*
X40792Y-77163D01*
X40821Y-77178D01*
X40835Y-77192D01*
X40850Y-77221D01*
X40864Y-77278D01*
X40864Y-77349D01*
X40850Y-77406D01*
X40835Y-77435D01*
X40821Y-77449D01*
X40792Y-77463D01*
X40764Y-77463D01*
X40735Y-77449D01*
X40721Y-77435D01*
X40707Y-77406D01*
X40692Y-77349D01*
X40692Y-77278D01*
X40707Y-77221D01*
X40721Y-77192D01*
X40735Y-77178D01*
X40764Y-77163D01*
X40964Y-77163D02*
X41150Y-77163D01*
X41050Y-77278D01*
X41092Y-77278D01*
X41121Y-77292D01*
X41135Y-77306D01*
X41150Y-77335D01*
X41150Y-77406D01*
X41135Y-77435D01*
X41121Y-77449D01*
X41092Y-77463D01*
X41007Y-77463D01*
X40978Y-77449D01*
X40964Y-77435D01*
X41250Y-77163D02*
X41450Y-77163D01*
X41250Y-77463D01*
X41450Y-77463D01*
X34528Y-82286D02*
X34528Y-81986D01*
X34700Y-82286D02*
X34571Y-82115D01*
X34700Y-81986D02*
X34528Y-82158D01*
X34814Y-82015D02*
X34828Y-82001D01*
X34857Y-81986D01*
X34928Y-81986D01*
X34957Y-82001D01*
X34971Y-82015D01*
X34985Y-82043D01*
X34985Y-82072D01*
X34971Y-82115D01*
X34800Y-82286D01*
X34985Y-82286D01*
X33178Y-77306D02*
X33078Y-77306D01*
X33078Y-77463D02*
X33078Y-77163D01*
X33221Y-77163D01*
X33292Y-77163D02*
X33464Y-77163D01*
X33378Y-77463D02*
X33378Y-77163D01*
X33735Y-77463D02*
X33635Y-77321D01*
X33564Y-77463D02*
X33564Y-77163D01*
X33678Y-77163D01*
X33707Y-77178D01*
X33721Y-77192D01*
X33735Y-77221D01*
X33735Y-77263D01*
X33721Y-77292D01*
X33707Y-77306D01*
X33678Y-77321D01*
X33564Y-77321D01*
X33864Y-77349D02*
X34092Y-77349D01*
X34335Y-77306D02*
X34378Y-77321D01*
X34392Y-77335D01*
X34407Y-77363D01*
X34407Y-77406D01*
X34392Y-77435D01*
X34378Y-77449D01*
X34350Y-77463D01*
X34235Y-77463D01*
X34235Y-77163D01*
X34335Y-77163D01*
X34364Y-77178D01*
X34378Y-77192D01*
X34392Y-77221D01*
X34392Y-77249D01*
X34378Y-77278D01*
X34364Y-77292D01*
X34335Y-77306D01*
X34235Y-77306D01*
X34507Y-77163D02*
X34692Y-77163D01*
X34592Y-77278D01*
X34635Y-77278D01*
X34664Y-77292D01*
X34678Y-77306D01*
X34692Y-77335D01*
X34692Y-77406D01*
X34678Y-77435D01*
X34664Y-77449D01*
X34635Y-77463D01*
X34550Y-77463D01*
X34521Y-77449D01*
X34507Y-77435D01*
X34978Y-77178D02*
X34950Y-77163D01*
X34907Y-77163D01*
X34864Y-77178D01*
X34835Y-77206D01*
X34821Y-77235D01*
X34807Y-77292D01*
X34807Y-77335D01*
X34821Y-77392D01*
X34835Y-77421D01*
X34864Y-77449D01*
X34907Y-77463D01*
X34935Y-77463D01*
X34978Y-77449D01*
X34992Y-77435D01*
X34992Y-77335D01*
X34935Y-77335D01*
X35221Y-77306D02*
X35264Y-77321D01*
X35278Y-77335D01*
X35292Y-77363D01*
X35292Y-77406D01*
X35278Y-77435D01*
X35264Y-77449D01*
X35235Y-77463D01*
X35121Y-77463D01*
X35121Y-77163D01*
X35221Y-77163D01*
X35250Y-77178D01*
X35264Y-77192D01*
X35278Y-77221D01*
X35278Y-77249D01*
X35264Y-77278D01*
X35250Y-77292D01*
X35221Y-77306D01*
X35121Y-77306D01*
X35478Y-77163D02*
X35507Y-77163D01*
X35535Y-77178D01*
X35550Y-77192D01*
X35564Y-77221D01*
X35578Y-77278D01*
X35578Y-77349D01*
X35564Y-77406D01*
X35550Y-77435D01*
X35535Y-77449D01*
X35507Y-77463D01*
X35478Y-77463D01*
X35450Y-77449D01*
X35435Y-77435D01*
X35421Y-77406D01*
X35407Y-77349D01*
X35407Y-77278D01*
X35421Y-77221D01*
X35435Y-77192D01*
X35450Y-77178D01*
X35478Y-77163D01*
X35764Y-77163D02*
X35792Y-77163D01*
X35821Y-77178D01*
X35835Y-77192D01*
X35850Y-77221D01*
X35864Y-77278D01*
X35864Y-77349D01*
X35850Y-77406D01*
X35835Y-77435D01*
X35821Y-77449D01*
X35792Y-77463D01*
X35764Y-77463D01*
X35735Y-77449D01*
X35721Y-77435D01*
X35707Y-77406D01*
X35692Y-77349D01*
X35692Y-77278D01*
X35707Y-77221D01*
X35721Y-77192D01*
X35735Y-77178D01*
X35764Y-77163D01*
X35964Y-77163D02*
X36150Y-77163D01*
X36050Y-77278D01*
X36092Y-77278D01*
X36121Y-77292D01*
X36135Y-77306D01*
X36150Y-77335D01*
X36150Y-77406D01*
X36135Y-77435D01*
X36121Y-77449D01*
X36092Y-77463D01*
X36007Y-77463D01*
X35978Y-77449D01*
X35964Y-77435D01*
X36250Y-77163D02*
X36450Y-77163D01*
X36250Y-77463D01*
X36450Y-77463D01*
X29528Y-82286D02*
X29528Y-81986D01*
X29700Y-82286D02*
X29571Y-82115D01*
X29700Y-81986D02*
X29528Y-82158D01*
X29971Y-81986D02*
X29828Y-81986D01*
X29814Y-82129D01*
X29828Y-82115D01*
X29857Y-82101D01*
X29928Y-82101D01*
X29957Y-82115D01*
X29971Y-82129D01*
X29985Y-82158D01*
X29985Y-82229D01*
X29971Y-82258D01*
X29957Y-82272D01*
X29928Y-82286D01*
X29857Y-82286D01*
X29828Y-82272D01*
X29814Y-82258D01*
X28178Y-77306D02*
X28078Y-77306D01*
X28078Y-77463D02*
X28078Y-77163D01*
X28221Y-77163D01*
X28292Y-77163D02*
X28464Y-77163D01*
X28378Y-77463D02*
X28378Y-77163D01*
X28735Y-77463D02*
X28635Y-77321D01*
X28564Y-77463D02*
X28564Y-77163D01*
X28678Y-77163D01*
X28707Y-77178D01*
X28721Y-77192D01*
X28735Y-77221D01*
X28735Y-77263D01*
X28721Y-77292D01*
X28707Y-77306D01*
X28678Y-77321D01*
X28564Y-77321D01*
X28864Y-77349D02*
X29092Y-77349D01*
X29335Y-77306D02*
X29378Y-77321D01*
X29392Y-77335D01*
X29407Y-77363D01*
X29407Y-77406D01*
X29392Y-77435D01*
X29378Y-77449D01*
X29350Y-77463D01*
X29235Y-77463D01*
X29235Y-77163D01*
X29335Y-77163D01*
X29364Y-77178D01*
X29378Y-77192D01*
X29392Y-77221D01*
X29392Y-77249D01*
X29378Y-77278D01*
X29364Y-77292D01*
X29335Y-77306D01*
X29235Y-77306D01*
X29507Y-77163D02*
X29692Y-77163D01*
X29592Y-77278D01*
X29635Y-77278D01*
X29664Y-77292D01*
X29678Y-77306D01*
X29692Y-77335D01*
X29692Y-77406D01*
X29678Y-77435D01*
X29664Y-77449D01*
X29635Y-77463D01*
X29550Y-77463D01*
X29521Y-77449D01*
X29507Y-77435D01*
X29978Y-77178D02*
X29950Y-77163D01*
X29907Y-77163D01*
X29864Y-77178D01*
X29835Y-77206D01*
X29821Y-77235D01*
X29807Y-77292D01*
X29807Y-77335D01*
X29821Y-77392D01*
X29835Y-77421D01*
X29864Y-77449D01*
X29907Y-77463D01*
X29935Y-77463D01*
X29978Y-77449D01*
X29992Y-77435D01*
X29992Y-77335D01*
X29935Y-77335D01*
X30221Y-77306D02*
X30264Y-77321D01*
X30278Y-77335D01*
X30292Y-77363D01*
X30292Y-77406D01*
X30278Y-77435D01*
X30264Y-77449D01*
X30235Y-77463D01*
X30121Y-77463D01*
X30121Y-77163D01*
X30221Y-77163D01*
X30250Y-77178D01*
X30264Y-77192D01*
X30278Y-77221D01*
X30278Y-77249D01*
X30264Y-77278D01*
X30250Y-77292D01*
X30221Y-77306D01*
X30121Y-77306D01*
X30478Y-77163D02*
X30507Y-77163D01*
X30535Y-77178D01*
X30550Y-77192D01*
X30564Y-77221D01*
X30578Y-77278D01*
X30578Y-77349D01*
X30564Y-77406D01*
X30550Y-77435D01*
X30535Y-77449D01*
X30507Y-77463D01*
X30478Y-77463D01*
X30450Y-77449D01*
X30435Y-77435D01*
X30421Y-77406D01*
X30407Y-77349D01*
X30407Y-77278D01*
X30421Y-77221D01*
X30435Y-77192D01*
X30450Y-77178D01*
X30478Y-77163D01*
X30764Y-77163D02*
X30792Y-77163D01*
X30821Y-77178D01*
X30835Y-77192D01*
X30850Y-77221D01*
X30864Y-77278D01*
X30864Y-77349D01*
X30850Y-77406D01*
X30835Y-77435D01*
X30821Y-77449D01*
X30792Y-77463D01*
X30764Y-77463D01*
X30735Y-77449D01*
X30721Y-77435D01*
X30707Y-77406D01*
X30692Y-77349D01*
X30692Y-77278D01*
X30707Y-77221D01*
X30721Y-77192D01*
X30735Y-77178D01*
X30764Y-77163D01*
X30964Y-77163D02*
X31150Y-77163D01*
X31050Y-77278D01*
X31092Y-77278D01*
X31121Y-77292D01*
X31135Y-77306D01*
X31150Y-77335D01*
X31150Y-77406D01*
X31135Y-77435D01*
X31121Y-77449D01*
X31092Y-77463D01*
X31007Y-77463D01*
X30978Y-77449D01*
X30964Y-77435D01*
X31250Y-77163D02*
X31450Y-77163D01*
X31250Y-77463D01*
X31450Y-77463D01*
X31814Y-62958D02*
X31514Y-62958D01*
X31814Y-62815D02*
X31514Y-62815D01*
X31814Y-62644D01*
X31514Y-62644D01*
X31842Y-62573D02*
X31842Y-62344D01*
X31514Y-62301D02*
X31814Y-62101D01*
X31514Y-62101D02*
X31814Y-62301D01*
X31814Y-61830D02*
X31814Y-62001D01*
X31814Y-61915D02*
X31514Y-61915D01*
X31557Y-61944D01*
X31585Y-61973D01*
X31600Y-62001D01*
X33838Y-61538D02*
X33838Y-61238D01*
X33952Y-61238D01*
X33981Y-61253D01*
X33995Y-61267D01*
X34009Y-61295D01*
X34009Y-61338D01*
X33995Y-61367D01*
X33981Y-61381D01*
X33952Y-61395D01*
X33838Y-61395D01*
X34224Y-61238D02*
X34224Y-61453D01*
X34209Y-61495D01*
X34181Y-61524D01*
X34138Y-61538D01*
X34109Y-61538D01*
X34367Y-61424D02*
X34595Y-61424D01*
X34709Y-61238D02*
X34895Y-61238D01*
X34795Y-61353D01*
X34838Y-61353D01*
X34867Y-61367D01*
X34881Y-61381D01*
X34895Y-61410D01*
X34895Y-61481D01*
X34881Y-61510D01*
X34867Y-61524D01*
X34838Y-61538D01*
X34752Y-61538D01*
X34724Y-61524D01*
X34709Y-61510D01*
X35081Y-61238D02*
X35109Y-61238D01*
X35138Y-61253D01*
X35152Y-61267D01*
X35167Y-61295D01*
X35181Y-61353D01*
X35181Y-61424D01*
X35167Y-61481D01*
X35152Y-61510D01*
X35138Y-61524D01*
X35109Y-61538D01*
X35081Y-61538D01*
X35052Y-61524D01*
X35038Y-61510D01*
X35024Y-61481D01*
X35009Y-61424D01*
X35009Y-61353D01*
X35024Y-61295D01*
X35038Y-61267D01*
X35052Y-61253D01*
X35081Y-61238D01*
X35281Y-61238D02*
X35481Y-61238D01*
X35352Y-61538D01*
X37719Y-62944D02*
X37419Y-62944D01*
X37719Y-62801D02*
X37419Y-62801D01*
X37719Y-62630D01*
X37419Y-62630D01*
X37748Y-62558D02*
X37748Y-62330D01*
X37576Y-62201D02*
X37719Y-62201D01*
X37419Y-62301D02*
X37576Y-62201D01*
X37419Y-62101D01*
X37719Y-61844D02*
X37719Y-62015D01*
X37719Y-61930D02*
X37419Y-61930D01*
X37462Y-61958D01*
X37491Y-61987D01*
X37505Y-62015D01*
X39744Y-61538D02*
X39744Y-61238D01*
X39858Y-61238D01*
X39886Y-61253D01*
X39901Y-61267D01*
X39915Y-61295D01*
X39915Y-61338D01*
X39901Y-61367D01*
X39886Y-61381D01*
X39858Y-61395D01*
X39744Y-61395D01*
X40129Y-61238D02*
X40129Y-61453D01*
X40115Y-61495D01*
X40086Y-61524D01*
X40044Y-61538D01*
X40015Y-61538D01*
X40272Y-61424D02*
X40501Y-61424D01*
X40615Y-61238D02*
X40801Y-61238D01*
X40701Y-61353D01*
X40744Y-61353D01*
X40772Y-61367D01*
X40786Y-61381D01*
X40801Y-61410D01*
X40801Y-61481D01*
X40786Y-61510D01*
X40772Y-61524D01*
X40744Y-61538D01*
X40658Y-61538D01*
X40629Y-61524D01*
X40615Y-61510D01*
X40986Y-61238D02*
X41015Y-61238D01*
X41044Y-61253D01*
X41058Y-61267D01*
X41072Y-61295D01*
X41086Y-61353D01*
X41086Y-61424D01*
X41072Y-61481D01*
X41058Y-61510D01*
X41044Y-61524D01*
X41015Y-61538D01*
X40986Y-61538D01*
X40958Y-61524D01*
X40944Y-61510D01*
X40929Y-61481D01*
X40915Y-61424D01*
X40915Y-61353D01*
X40929Y-61295D01*
X40944Y-61267D01*
X40958Y-61253D01*
X40986Y-61238D01*
X41186Y-61238D02*
X41386Y-61238D01*
X41258Y-61538D01*
X61371Y-70392D02*
X61228Y-70492D01*
X61371Y-70564D02*
X61071Y-70564D01*
X61071Y-70450D01*
X61085Y-70421D01*
X61100Y-70407D01*
X61128Y-70392D01*
X61171Y-70392D01*
X61200Y-70407D01*
X61214Y-70421D01*
X61228Y-70450D01*
X61228Y-70564D01*
X61100Y-70278D02*
X61085Y-70264D01*
X61071Y-70235D01*
X61071Y-70164D01*
X61085Y-70135D01*
X61100Y-70121D01*
X61128Y-70107D01*
X61157Y-70107D01*
X61200Y-70121D01*
X61371Y-70292D01*
X61371Y-70107D01*
X61071Y-70007D02*
X61071Y-69821D01*
X61185Y-69921D01*
X61185Y-69878D01*
X61200Y-69850D01*
X61214Y-69835D01*
X61242Y-69821D01*
X61314Y-69821D01*
X61342Y-69835D01*
X61357Y-69850D01*
X61371Y-69878D01*
X61371Y-69964D01*
X61357Y-69992D01*
X61342Y-70007D01*
X61371Y-71978D02*
X61371Y-72149D01*
X61371Y-72064D02*
X61071Y-72064D01*
X61114Y-72092D01*
X61142Y-72121D01*
X61157Y-72149D01*
X61071Y-71792D02*
X61071Y-71764D01*
X61085Y-71735D01*
X61100Y-71721D01*
X61128Y-71707D01*
X61185Y-71692D01*
X61257Y-71692D01*
X61314Y-71707D01*
X61342Y-71721D01*
X61357Y-71735D01*
X61371Y-71764D01*
X61371Y-71792D01*
X61357Y-71821D01*
X61342Y-71835D01*
X61314Y-71849D01*
X61257Y-71864D01*
X61185Y-71864D01*
X61128Y-71849D01*
X61100Y-71835D01*
X61085Y-71821D01*
X61071Y-71792D01*
X61371Y-71564D02*
X61071Y-71564D01*
X61257Y-71535D02*
X61371Y-71450D01*
X61171Y-71450D02*
X61285Y-71564D01*
X62007Y-66871D02*
X61907Y-66728D01*
X61835Y-66871D02*
X61835Y-66571D01*
X61950Y-66571D01*
X61978Y-66585D01*
X61992Y-66600D01*
X62007Y-66628D01*
X62007Y-66671D01*
X61992Y-66700D01*
X61978Y-66714D01*
X61950Y-66728D01*
X61835Y-66728D01*
X62121Y-66600D02*
X62135Y-66585D01*
X62164Y-66571D01*
X62235Y-66571D01*
X62264Y-66585D01*
X62278Y-66600D01*
X62292Y-66628D01*
X62292Y-66657D01*
X62278Y-66700D01*
X62107Y-66871D01*
X62292Y-66871D01*
X62550Y-66671D02*
X62550Y-66871D01*
X62478Y-66557D02*
X62407Y-66771D01*
X62592Y-66771D01*
X63621Y-66871D02*
X63450Y-66871D01*
X63535Y-66871D02*
X63535Y-66571D01*
X63507Y-66614D01*
X63478Y-66642D01*
X63450Y-66657D01*
X63807Y-66571D02*
X63835Y-66571D01*
X63864Y-66585D01*
X63878Y-66600D01*
X63892Y-66628D01*
X63907Y-66685D01*
X63907Y-66757D01*
X63892Y-66814D01*
X63878Y-66842D01*
X63864Y-66857D01*
X63835Y-66871D01*
X63807Y-66871D01*
X63778Y-66857D01*
X63764Y-66842D01*
X63750Y-66814D01*
X63735Y-66757D01*
X63735Y-66685D01*
X63750Y-66628D01*
X63764Y-66600D01*
X63778Y-66585D01*
X63807Y-66571D01*
X64035Y-66871D02*
X64035Y-66571D01*
X64064Y-66757D02*
X64150Y-66871D01*
X64150Y-66671D02*
X64035Y-66785D01*
X62371Y-75392D02*
X62228Y-75492D01*
X62371Y-75564D02*
X62071Y-75564D01*
X62071Y-75450D01*
X62085Y-75421D01*
X62100Y-75407D01*
X62128Y-75392D01*
X62171Y-75392D01*
X62200Y-75407D01*
X62214Y-75421D01*
X62228Y-75450D01*
X62228Y-75564D01*
X62100Y-75278D02*
X62085Y-75264D01*
X62071Y-75235D01*
X62071Y-75164D01*
X62085Y-75135D01*
X62100Y-75121D01*
X62128Y-75107D01*
X62157Y-75107D01*
X62200Y-75121D01*
X62371Y-75292D01*
X62371Y-75107D01*
X62071Y-74835D02*
X62071Y-74978D01*
X62214Y-74992D01*
X62200Y-74978D01*
X62185Y-74950D01*
X62185Y-74878D01*
X62200Y-74850D01*
X62214Y-74835D01*
X62242Y-74821D01*
X62314Y-74821D01*
X62342Y-74835D01*
X62357Y-74850D01*
X62371Y-74878D01*
X62371Y-74950D01*
X62357Y-74978D01*
X62342Y-74992D01*
X62371Y-76978D02*
X62371Y-77149D01*
X62371Y-77064D02*
X62071Y-77064D01*
X62114Y-77092D01*
X62142Y-77121D01*
X62157Y-77149D01*
X62071Y-76792D02*
X62071Y-76764D01*
X62085Y-76735D01*
X62100Y-76721D01*
X62128Y-76707D01*
X62185Y-76692D01*
X62257Y-76692D01*
X62314Y-76707D01*
X62342Y-76721D01*
X62357Y-76735D01*
X62371Y-76764D01*
X62371Y-76792D01*
X62357Y-76821D01*
X62342Y-76835D01*
X62314Y-76849D01*
X62257Y-76864D01*
X62185Y-76864D01*
X62128Y-76849D01*
X62100Y-76835D01*
X62085Y-76821D01*
X62071Y-76792D01*
X62371Y-76564D02*
X62071Y-76564D01*
X62257Y-76535D02*
X62371Y-76450D01*
X62171Y-76450D02*
X62285Y-76564D01*
X63371Y-76992D02*
X63228Y-77092D01*
X63371Y-77164D02*
X63071Y-77164D01*
X63071Y-77050D01*
X63085Y-77021D01*
X63100Y-77007D01*
X63128Y-76992D01*
X63171Y-76992D01*
X63200Y-77007D01*
X63214Y-77021D01*
X63228Y-77050D01*
X63228Y-77164D01*
X63100Y-76878D02*
X63085Y-76864D01*
X63071Y-76835D01*
X63071Y-76764D01*
X63085Y-76735D01*
X63100Y-76721D01*
X63128Y-76707D01*
X63157Y-76707D01*
X63200Y-76721D01*
X63371Y-76892D01*
X63371Y-76707D01*
X63071Y-76450D02*
X63071Y-76507D01*
X63085Y-76535D01*
X63100Y-76550D01*
X63142Y-76578D01*
X63200Y-76592D01*
X63314Y-76592D01*
X63342Y-76578D01*
X63357Y-76564D01*
X63371Y-76535D01*
X63371Y-76478D01*
X63357Y-76450D01*
X63342Y-76435D01*
X63314Y-76421D01*
X63242Y-76421D01*
X63214Y-76435D01*
X63200Y-76450D01*
X63185Y-76478D01*
X63185Y-76535D01*
X63200Y-76564D01*
X63214Y-76578D01*
X63242Y-76592D01*
X63371Y-75378D02*
X63371Y-75549D01*
X63371Y-75464D02*
X63071Y-75464D01*
X63114Y-75492D01*
X63142Y-75521D01*
X63157Y-75549D01*
X63071Y-75192D02*
X63071Y-75164D01*
X63085Y-75135D01*
X63100Y-75121D01*
X63128Y-75107D01*
X63185Y-75092D01*
X63257Y-75092D01*
X63314Y-75107D01*
X63342Y-75121D01*
X63357Y-75135D01*
X63371Y-75164D01*
X63371Y-75192D01*
X63357Y-75221D01*
X63342Y-75235D01*
X63314Y-75249D01*
X63257Y-75264D01*
X63185Y-75264D01*
X63128Y-75249D01*
X63100Y-75235D01*
X63085Y-75221D01*
X63071Y-75192D01*
X63371Y-74964D02*
X63071Y-74964D01*
X63257Y-74935D02*
X63371Y-74850D01*
X63171Y-74850D02*
X63285Y-74964D01*
X61371Y-75392D02*
X61228Y-75492D01*
X61371Y-75564D02*
X61071Y-75564D01*
X61071Y-75450D01*
X61085Y-75421D01*
X61100Y-75407D01*
X61128Y-75392D01*
X61171Y-75392D01*
X61200Y-75407D01*
X61214Y-75421D01*
X61228Y-75450D01*
X61228Y-75564D01*
X61100Y-75278D02*
X61085Y-75264D01*
X61071Y-75235D01*
X61071Y-75164D01*
X61085Y-75135D01*
X61100Y-75121D01*
X61128Y-75107D01*
X61157Y-75107D01*
X61200Y-75121D01*
X61371Y-75292D01*
X61371Y-75107D01*
X61071Y-75007D02*
X61071Y-74807D01*
X61371Y-74935D01*
X61371Y-76978D02*
X61371Y-77149D01*
X61371Y-77064D02*
X61071Y-77064D01*
X61114Y-77092D01*
X61142Y-77121D01*
X61157Y-77149D01*
X61071Y-76792D02*
X61071Y-76764D01*
X61085Y-76735D01*
X61100Y-76721D01*
X61128Y-76707D01*
X61185Y-76692D01*
X61257Y-76692D01*
X61314Y-76707D01*
X61342Y-76721D01*
X61357Y-76735D01*
X61371Y-76764D01*
X61371Y-76792D01*
X61357Y-76821D01*
X61342Y-76835D01*
X61314Y-76849D01*
X61257Y-76864D01*
X61185Y-76864D01*
X61128Y-76849D01*
X61100Y-76835D01*
X61085Y-76821D01*
X61071Y-76792D01*
X61371Y-76564D02*
X61071Y-76564D01*
X61257Y-76535D02*
X61371Y-76450D01*
X61171Y-76450D02*
X61285Y-76564D01*
X39000Y-68028D02*
X38985Y-68057D01*
X38957Y-68085D01*
X38914Y-68128D01*
X38900Y-68157D01*
X38900Y-68185D01*
X38971Y-68171D02*
X38957Y-68200D01*
X38928Y-68228D01*
X38871Y-68242D01*
X38771Y-68242D01*
X38714Y-68228D01*
X38685Y-68200D01*
X38671Y-68171D01*
X38671Y-68114D01*
X38685Y-68085D01*
X38714Y-68057D01*
X38771Y-68042D01*
X38871Y-68042D01*
X38928Y-68057D01*
X38957Y-68085D01*
X38971Y-68114D01*
X38971Y-68171D01*
X38671Y-67942D02*
X38671Y-67757D01*
X38785Y-67857D01*
X38785Y-67814D01*
X38800Y-67785D01*
X38814Y-67771D01*
X38842Y-67757D01*
X38914Y-67757D01*
X38942Y-67771D01*
X38957Y-67785D01*
X38971Y-67814D01*
X38971Y-67900D01*
X38957Y-67928D01*
X38942Y-67942D01*
G54D18*
X41025Y-68678D02*
X41013Y-68666D01*
X41001Y-68642D01*
X41001Y-68583D01*
X41013Y-68559D01*
X41025Y-68547D01*
X41048Y-68535D01*
X41072Y-68535D01*
X41108Y-68547D01*
X41251Y-68690D01*
X41251Y-68535D01*
X41251Y-68428D02*
X41001Y-68428D01*
X41251Y-68285D01*
X41001Y-68285D01*
X41001Y-68190D02*
X41001Y-68035D01*
X41096Y-68119D01*
X41096Y-68083D01*
X41108Y-68059D01*
X41120Y-68047D01*
X41144Y-68035D01*
X41203Y-68035D01*
X41227Y-68047D01*
X41239Y-68059D01*
X41251Y-68083D01*
X41251Y-68154D01*
X41239Y-68178D01*
X41227Y-68190D01*
X41251Y-67916D02*
X41251Y-67869D01*
X41239Y-67845D01*
X41227Y-67833D01*
X41191Y-67809D01*
X41144Y-67797D01*
X41048Y-67797D01*
X41025Y-67809D01*
X41013Y-67821D01*
X41001Y-67845D01*
X41001Y-67892D01*
X41013Y-67916D01*
X41025Y-67928D01*
X41048Y-67940D01*
X41108Y-67940D01*
X41132Y-67928D01*
X41144Y-67916D01*
X41155Y-67892D01*
X41155Y-67845D01*
X41144Y-67821D01*
X41132Y-67809D01*
X41108Y-67797D01*
X41001Y-67642D02*
X41001Y-67619D01*
X41013Y-67595D01*
X41025Y-67583D01*
X41048Y-67571D01*
X41096Y-67559D01*
X41155Y-67559D01*
X41203Y-67571D01*
X41227Y-67583D01*
X41239Y-67595D01*
X41251Y-67619D01*
X41251Y-67642D01*
X41239Y-67666D01*
X41227Y-67678D01*
X41203Y-67690D01*
X41155Y-67702D01*
X41096Y-67702D01*
X41048Y-67690D01*
X41025Y-67678D01*
X41013Y-67666D01*
X41001Y-67642D01*
X41001Y-67345D02*
X41001Y-67392D01*
X41013Y-67416D01*
X41025Y-67428D01*
X41060Y-67452D01*
X41108Y-67464D01*
X41203Y-67464D01*
X41227Y-67452D01*
X41239Y-67440D01*
X41251Y-67416D01*
X41251Y-67369D01*
X41239Y-67345D01*
X41227Y-67333D01*
X41203Y-67321D01*
X41144Y-67321D01*
X41120Y-67333D01*
X41108Y-67345D01*
X41096Y-67369D01*
X41096Y-67416D01*
X41108Y-67440D01*
X41120Y-67452D01*
X41144Y-67464D01*
X40446Y-68570D02*
X40529Y-68570D01*
X40565Y-68701D02*
X40446Y-68701D01*
X40446Y-68451D01*
X40565Y-68451D01*
X40017Y-67920D02*
X40053Y-67932D01*
X40065Y-67944D01*
X40077Y-67967D01*
X40077Y-68003D01*
X40065Y-68027D01*
X40053Y-68039D01*
X40029Y-68051D01*
X39934Y-68051D01*
X39934Y-67801D01*
X40017Y-67801D01*
X40041Y-67813D01*
X40053Y-67825D01*
X40065Y-67848D01*
X40065Y-67872D01*
X40053Y-67896D01*
X40041Y-67908D01*
X40017Y-67920D01*
X39934Y-67920D01*
X39577Y-68677D02*
X39565Y-68689D01*
X39529Y-68701D01*
X39505Y-68701D01*
X39470Y-68689D01*
X39446Y-68665D01*
X39434Y-68641D01*
X39422Y-68594D01*
X39422Y-68558D01*
X39434Y-68510D01*
X39446Y-68486D01*
X39470Y-68463D01*
X39505Y-68451D01*
X39529Y-68451D01*
X39565Y-68463D01*
X39577Y-68475D01*
G54D17*
X50000Y-68028D02*
X49985Y-68057D01*
X49957Y-68085D01*
X49914Y-68128D01*
X49900Y-68157D01*
X49900Y-68185D01*
X49971Y-68171D02*
X49957Y-68200D01*
X49928Y-68228D01*
X49871Y-68242D01*
X49771Y-68242D01*
X49714Y-68228D01*
X49685Y-68200D01*
X49671Y-68171D01*
X49671Y-68114D01*
X49685Y-68085D01*
X49714Y-68057D01*
X49771Y-68042D01*
X49871Y-68042D01*
X49928Y-68057D01*
X49957Y-68085D01*
X49971Y-68114D01*
X49971Y-68171D01*
X49971Y-67900D02*
X49971Y-67842D01*
X49957Y-67814D01*
X49942Y-67800D01*
X49900Y-67771D01*
X49842Y-67757D01*
X49728Y-67757D01*
X49700Y-67771D01*
X49685Y-67785D01*
X49671Y-67814D01*
X49671Y-67871D01*
X49685Y-67900D01*
X49700Y-67914D01*
X49728Y-67928D01*
X49800Y-67928D01*
X49828Y-67914D01*
X49842Y-67900D01*
X49857Y-67871D01*
X49857Y-67814D01*
X49842Y-67785D01*
X49828Y-67771D01*
X49800Y-67757D01*
G54D18*
X52025Y-68678D02*
X52013Y-68666D01*
X52001Y-68642D01*
X52001Y-68583D01*
X52013Y-68559D01*
X52025Y-68547D01*
X52048Y-68535D01*
X52072Y-68535D01*
X52108Y-68547D01*
X52251Y-68690D01*
X52251Y-68535D01*
X52251Y-68428D02*
X52001Y-68428D01*
X52251Y-68285D01*
X52001Y-68285D01*
X52001Y-68190D02*
X52001Y-68035D01*
X52096Y-68119D01*
X52096Y-68083D01*
X52108Y-68059D01*
X52120Y-68047D01*
X52144Y-68035D01*
X52203Y-68035D01*
X52227Y-68047D01*
X52239Y-68059D01*
X52251Y-68083D01*
X52251Y-68154D01*
X52239Y-68178D01*
X52227Y-68190D01*
X52251Y-67916D02*
X52251Y-67869D01*
X52239Y-67845D01*
X52227Y-67833D01*
X52191Y-67809D01*
X52144Y-67797D01*
X52048Y-67797D01*
X52025Y-67809D01*
X52013Y-67821D01*
X52001Y-67845D01*
X52001Y-67892D01*
X52013Y-67916D01*
X52025Y-67928D01*
X52048Y-67940D01*
X52108Y-67940D01*
X52132Y-67928D01*
X52144Y-67916D01*
X52155Y-67892D01*
X52155Y-67845D01*
X52144Y-67821D01*
X52132Y-67809D01*
X52108Y-67797D01*
X52001Y-67642D02*
X52001Y-67619D01*
X52013Y-67595D01*
X52025Y-67583D01*
X52048Y-67571D01*
X52096Y-67559D01*
X52155Y-67559D01*
X52203Y-67571D01*
X52227Y-67583D01*
X52239Y-67595D01*
X52251Y-67619D01*
X52251Y-67642D01*
X52239Y-67666D01*
X52227Y-67678D01*
X52203Y-67690D01*
X52155Y-67702D01*
X52096Y-67702D01*
X52048Y-67690D01*
X52025Y-67678D01*
X52013Y-67666D01*
X52001Y-67642D01*
X52001Y-67345D02*
X52001Y-67392D01*
X52013Y-67416D01*
X52025Y-67428D01*
X52060Y-67452D01*
X52108Y-67464D01*
X52203Y-67464D01*
X52227Y-67452D01*
X52239Y-67440D01*
X52251Y-67416D01*
X52251Y-67369D01*
X52239Y-67345D01*
X52227Y-67333D01*
X52203Y-67321D01*
X52144Y-67321D01*
X52120Y-67333D01*
X52108Y-67345D01*
X52096Y-67369D01*
X52096Y-67416D01*
X52108Y-67440D01*
X52120Y-67452D01*
X52144Y-67464D01*
X51446Y-68570D02*
X51529Y-68570D01*
X51565Y-68701D02*
X51446Y-68701D01*
X51446Y-68451D01*
X51565Y-68451D01*
X51017Y-67920D02*
X51053Y-67932D01*
X51065Y-67944D01*
X51077Y-67967D01*
X51077Y-68003D01*
X51065Y-68027D01*
X51053Y-68039D01*
X51029Y-68051D01*
X50934Y-68051D01*
X50934Y-67801D01*
X51017Y-67801D01*
X51041Y-67813D01*
X51053Y-67825D01*
X51065Y-67848D01*
X51065Y-67872D01*
X51053Y-67896D01*
X51041Y-67908D01*
X51017Y-67920D01*
X50934Y-67920D01*
X50577Y-68677D02*
X50565Y-68689D01*
X50529Y-68701D01*
X50505Y-68701D01*
X50470Y-68689D01*
X50446Y-68665D01*
X50434Y-68641D01*
X50422Y-68594D01*
X50422Y-68558D01*
X50434Y-68510D01*
X50446Y-68486D01*
X50470Y-68463D01*
X50505Y-68451D01*
X50529Y-68451D01*
X50565Y-68463D01*
X50577Y-68475D01*
G54D17*
X39000Y-74171D02*
X38985Y-74200D01*
X38957Y-74228D01*
X38914Y-74271D01*
X38900Y-74300D01*
X38900Y-74328D01*
X38971Y-74314D02*
X38957Y-74342D01*
X38928Y-74371D01*
X38871Y-74385D01*
X38771Y-74385D01*
X38714Y-74371D01*
X38685Y-74342D01*
X38671Y-74314D01*
X38671Y-74257D01*
X38685Y-74228D01*
X38714Y-74200D01*
X38771Y-74185D01*
X38871Y-74185D01*
X38928Y-74200D01*
X38957Y-74228D01*
X38971Y-74257D01*
X38971Y-74314D01*
X38971Y-73900D02*
X38971Y-74071D01*
X38971Y-73985D02*
X38671Y-73985D01*
X38714Y-74014D01*
X38742Y-74042D01*
X38757Y-74071D01*
X38971Y-73614D02*
X38971Y-73785D01*
X38971Y-73700D02*
X38671Y-73700D01*
X38714Y-73728D01*
X38742Y-73757D01*
X38757Y-73785D01*
G54D18*
X41025Y-74678D02*
X41013Y-74666D01*
X41001Y-74642D01*
X41001Y-74583D01*
X41013Y-74559D01*
X41025Y-74547D01*
X41048Y-74535D01*
X41072Y-74535D01*
X41108Y-74547D01*
X41251Y-74690D01*
X41251Y-74535D01*
X41251Y-74428D02*
X41001Y-74428D01*
X41251Y-74285D01*
X41001Y-74285D01*
X41001Y-74190D02*
X41001Y-74035D01*
X41096Y-74119D01*
X41096Y-74083D01*
X41108Y-74059D01*
X41120Y-74047D01*
X41144Y-74035D01*
X41203Y-74035D01*
X41227Y-74047D01*
X41239Y-74059D01*
X41251Y-74083D01*
X41251Y-74154D01*
X41239Y-74178D01*
X41227Y-74190D01*
X41251Y-73916D02*
X41251Y-73869D01*
X41239Y-73845D01*
X41227Y-73833D01*
X41191Y-73809D01*
X41144Y-73797D01*
X41048Y-73797D01*
X41025Y-73809D01*
X41013Y-73821D01*
X41001Y-73845D01*
X41001Y-73892D01*
X41013Y-73916D01*
X41025Y-73928D01*
X41048Y-73940D01*
X41108Y-73940D01*
X41132Y-73928D01*
X41144Y-73916D01*
X41155Y-73892D01*
X41155Y-73845D01*
X41144Y-73821D01*
X41132Y-73809D01*
X41108Y-73797D01*
X41001Y-73642D02*
X41001Y-73619D01*
X41013Y-73595D01*
X41025Y-73583D01*
X41048Y-73571D01*
X41096Y-73559D01*
X41155Y-73559D01*
X41203Y-73571D01*
X41227Y-73583D01*
X41239Y-73595D01*
X41251Y-73619D01*
X41251Y-73642D01*
X41239Y-73666D01*
X41227Y-73678D01*
X41203Y-73690D01*
X41155Y-73702D01*
X41096Y-73702D01*
X41048Y-73690D01*
X41025Y-73678D01*
X41013Y-73666D01*
X41001Y-73642D01*
X41001Y-73345D02*
X41001Y-73392D01*
X41013Y-73416D01*
X41025Y-73428D01*
X41060Y-73452D01*
X41108Y-73464D01*
X41203Y-73464D01*
X41227Y-73452D01*
X41239Y-73440D01*
X41251Y-73416D01*
X41251Y-73369D01*
X41239Y-73345D01*
X41227Y-73333D01*
X41203Y-73321D01*
X41144Y-73321D01*
X41120Y-73333D01*
X41108Y-73345D01*
X41096Y-73369D01*
X41096Y-73416D01*
X41108Y-73440D01*
X41120Y-73452D01*
X41144Y-73464D01*
X40446Y-74570D02*
X40529Y-74570D01*
X40565Y-74701D02*
X40446Y-74701D01*
X40446Y-74451D01*
X40565Y-74451D01*
X40017Y-73920D02*
X40053Y-73932D01*
X40065Y-73944D01*
X40077Y-73967D01*
X40077Y-74003D01*
X40065Y-74027D01*
X40053Y-74039D01*
X40029Y-74051D01*
X39934Y-74051D01*
X39934Y-73801D01*
X40017Y-73801D01*
X40041Y-73813D01*
X40053Y-73825D01*
X40065Y-73848D01*
X40065Y-73872D01*
X40053Y-73896D01*
X40041Y-73908D01*
X40017Y-73920D01*
X39934Y-73920D01*
X39577Y-74677D02*
X39565Y-74689D01*
X39529Y-74701D01*
X39505Y-74701D01*
X39470Y-74689D01*
X39446Y-74665D01*
X39434Y-74641D01*
X39422Y-74594D01*
X39422Y-74558D01*
X39434Y-74510D01*
X39446Y-74486D01*
X39470Y-74463D01*
X39505Y-74451D01*
X39529Y-74451D01*
X39565Y-74463D01*
X39577Y-74475D01*
G54D17*
X50000Y-74028D02*
X49985Y-74057D01*
X49957Y-74085D01*
X49914Y-74128D01*
X49900Y-74157D01*
X49900Y-74185D01*
X49971Y-74171D02*
X49957Y-74200D01*
X49928Y-74228D01*
X49871Y-74242D01*
X49771Y-74242D01*
X49714Y-74228D01*
X49685Y-74200D01*
X49671Y-74171D01*
X49671Y-74114D01*
X49685Y-74085D01*
X49714Y-74057D01*
X49771Y-74042D01*
X49871Y-74042D01*
X49928Y-74057D01*
X49957Y-74085D01*
X49971Y-74114D01*
X49971Y-74171D01*
X49971Y-73757D02*
X49971Y-73928D01*
X49971Y-73842D02*
X49671Y-73842D01*
X49714Y-73871D01*
X49742Y-73900D01*
X49757Y-73928D01*
G54D18*
X52025Y-74678D02*
X52013Y-74666D01*
X52001Y-74642D01*
X52001Y-74583D01*
X52013Y-74559D01*
X52025Y-74547D01*
X52048Y-74535D01*
X52072Y-74535D01*
X52108Y-74547D01*
X52251Y-74690D01*
X52251Y-74535D01*
X52251Y-74428D02*
X52001Y-74428D01*
X52251Y-74285D01*
X52001Y-74285D01*
X52001Y-74190D02*
X52001Y-74035D01*
X52096Y-74119D01*
X52096Y-74083D01*
X52108Y-74059D01*
X52120Y-74047D01*
X52144Y-74035D01*
X52203Y-74035D01*
X52227Y-74047D01*
X52239Y-74059D01*
X52251Y-74083D01*
X52251Y-74154D01*
X52239Y-74178D01*
X52227Y-74190D01*
X52251Y-73916D02*
X52251Y-73869D01*
X52239Y-73845D01*
X52227Y-73833D01*
X52191Y-73809D01*
X52144Y-73797D01*
X52048Y-73797D01*
X52025Y-73809D01*
X52013Y-73821D01*
X52001Y-73845D01*
X52001Y-73892D01*
X52013Y-73916D01*
X52025Y-73928D01*
X52048Y-73940D01*
X52108Y-73940D01*
X52132Y-73928D01*
X52144Y-73916D01*
X52155Y-73892D01*
X52155Y-73845D01*
X52144Y-73821D01*
X52132Y-73809D01*
X52108Y-73797D01*
X52001Y-73642D02*
X52001Y-73619D01*
X52013Y-73595D01*
X52025Y-73583D01*
X52048Y-73571D01*
X52096Y-73559D01*
X52155Y-73559D01*
X52203Y-73571D01*
X52227Y-73583D01*
X52239Y-73595D01*
X52251Y-73619D01*
X52251Y-73642D01*
X52239Y-73666D01*
X52227Y-73678D01*
X52203Y-73690D01*
X52155Y-73702D01*
X52096Y-73702D01*
X52048Y-73690D01*
X52025Y-73678D01*
X52013Y-73666D01*
X52001Y-73642D01*
X52001Y-73345D02*
X52001Y-73392D01*
X52013Y-73416D01*
X52025Y-73428D01*
X52060Y-73452D01*
X52108Y-73464D01*
X52203Y-73464D01*
X52227Y-73452D01*
X52239Y-73440D01*
X52251Y-73416D01*
X52251Y-73369D01*
X52239Y-73345D01*
X52227Y-73333D01*
X52203Y-73321D01*
X52144Y-73321D01*
X52120Y-73333D01*
X52108Y-73345D01*
X52096Y-73369D01*
X52096Y-73416D01*
X52108Y-73440D01*
X52120Y-73452D01*
X52144Y-73464D01*
X51446Y-74570D02*
X51529Y-74570D01*
X51565Y-74701D02*
X51446Y-74701D01*
X51446Y-74451D01*
X51565Y-74451D01*
X51017Y-73920D02*
X51053Y-73932D01*
X51065Y-73944D01*
X51077Y-73967D01*
X51077Y-74003D01*
X51065Y-74027D01*
X51053Y-74039D01*
X51029Y-74051D01*
X50934Y-74051D01*
X50934Y-73801D01*
X51017Y-73801D01*
X51041Y-73813D01*
X51053Y-73825D01*
X51065Y-73848D01*
X51065Y-73872D01*
X51053Y-73896D01*
X51041Y-73908D01*
X51017Y-73920D01*
X50934Y-73920D01*
X50577Y-74677D02*
X50565Y-74689D01*
X50529Y-74701D01*
X50505Y-74701D01*
X50470Y-74689D01*
X50446Y-74665D01*
X50434Y-74641D01*
X50422Y-74594D01*
X50422Y-74558D01*
X50434Y-74510D01*
X50446Y-74486D01*
X50470Y-74463D01*
X50505Y-74451D01*
X50529Y-74451D01*
X50565Y-74463D01*
X50577Y-74475D01*
G54D17*
X50000Y-80028D02*
X49985Y-80057D01*
X49957Y-80085D01*
X49914Y-80128D01*
X49900Y-80157D01*
X49900Y-80185D01*
X49971Y-80171D02*
X49957Y-80200D01*
X49928Y-80228D01*
X49871Y-80242D01*
X49771Y-80242D01*
X49714Y-80228D01*
X49685Y-80200D01*
X49671Y-80171D01*
X49671Y-80114D01*
X49685Y-80085D01*
X49714Y-80057D01*
X49771Y-80042D01*
X49871Y-80042D01*
X49928Y-80057D01*
X49957Y-80085D01*
X49971Y-80114D01*
X49971Y-80171D01*
X49671Y-79771D02*
X49671Y-79914D01*
X49814Y-79928D01*
X49800Y-79914D01*
X49785Y-79885D01*
X49785Y-79814D01*
X49800Y-79785D01*
X49814Y-79771D01*
X49842Y-79757D01*
X49914Y-79757D01*
X49942Y-79771D01*
X49957Y-79785D01*
X49971Y-79814D01*
X49971Y-79885D01*
X49957Y-79914D01*
X49942Y-79928D01*
G54D18*
X52025Y-80678D02*
X52013Y-80666D01*
X52001Y-80642D01*
X52001Y-80583D01*
X52013Y-80559D01*
X52025Y-80547D01*
X52048Y-80535D01*
X52072Y-80535D01*
X52108Y-80547D01*
X52251Y-80690D01*
X52251Y-80535D01*
X52251Y-80428D02*
X52001Y-80428D01*
X52251Y-80285D01*
X52001Y-80285D01*
X52001Y-80190D02*
X52001Y-80035D01*
X52096Y-80119D01*
X52096Y-80083D01*
X52108Y-80059D01*
X52120Y-80047D01*
X52144Y-80035D01*
X52203Y-80035D01*
X52227Y-80047D01*
X52239Y-80059D01*
X52251Y-80083D01*
X52251Y-80154D01*
X52239Y-80178D01*
X52227Y-80190D01*
X52251Y-79916D02*
X52251Y-79869D01*
X52239Y-79845D01*
X52227Y-79833D01*
X52191Y-79809D01*
X52144Y-79797D01*
X52048Y-79797D01*
X52025Y-79809D01*
X52013Y-79821D01*
X52001Y-79845D01*
X52001Y-79892D01*
X52013Y-79916D01*
X52025Y-79928D01*
X52048Y-79940D01*
X52108Y-79940D01*
X52132Y-79928D01*
X52144Y-79916D01*
X52155Y-79892D01*
X52155Y-79845D01*
X52144Y-79821D01*
X52132Y-79809D01*
X52108Y-79797D01*
X52001Y-79642D02*
X52001Y-79619D01*
X52013Y-79595D01*
X52025Y-79583D01*
X52048Y-79571D01*
X52096Y-79559D01*
X52155Y-79559D01*
X52203Y-79571D01*
X52227Y-79583D01*
X52239Y-79595D01*
X52251Y-79619D01*
X52251Y-79642D01*
X52239Y-79666D01*
X52227Y-79678D01*
X52203Y-79690D01*
X52155Y-79702D01*
X52096Y-79702D01*
X52048Y-79690D01*
X52025Y-79678D01*
X52013Y-79666D01*
X52001Y-79642D01*
X52001Y-79345D02*
X52001Y-79392D01*
X52013Y-79416D01*
X52025Y-79428D01*
X52060Y-79452D01*
X52108Y-79464D01*
X52203Y-79464D01*
X52227Y-79452D01*
X52239Y-79440D01*
X52251Y-79416D01*
X52251Y-79369D01*
X52239Y-79345D01*
X52227Y-79333D01*
X52203Y-79321D01*
X52144Y-79321D01*
X52120Y-79333D01*
X52108Y-79345D01*
X52096Y-79369D01*
X52096Y-79416D01*
X52108Y-79440D01*
X52120Y-79452D01*
X52144Y-79464D01*
X51446Y-80570D02*
X51529Y-80570D01*
X51565Y-80701D02*
X51446Y-80701D01*
X51446Y-80451D01*
X51565Y-80451D01*
X51017Y-79920D02*
X51053Y-79932D01*
X51065Y-79944D01*
X51077Y-79967D01*
X51077Y-80003D01*
X51065Y-80027D01*
X51053Y-80039D01*
X51029Y-80051D01*
X50934Y-80051D01*
X50934Y-79801D01*
X51017Y-79801D01*
X51041Y-79813D01*
X51053Y-79825D01*
X51065Y-79848D01*
X51065Y-79872D01*
X51053Y-79896D01*
X51041Y-79908D01*
X51017Y-79920D01*
X50934Y-79920D01*
X50577Y-80677D02*
X50565Y-80689D01*
X50529Y-80701D01*
X50505Y-80701D01*
X50470Y-80689D01*
X50446Y-80665D01*
X50434Y-80641D01*
X50422Y-80594D01*
X50422Y-80558D01*
X50434Y-80510D01*
X50446Y-80486D01*
X50470Y-80463D01*
X50505Y-80451D01*
X50529Y-80451D01*
X50565Y-80463D01*
X50577Y-80475D01*
G54D17*
X50000Y-86028D02*
X49985Y-86057D01*
X49957Y-86085D01*
X49914Y-86128D01*
X49900Y-86157D01*
X49900Y-86185D01*
X49971Y-86171D02*
X49957Y-86200D01*
X49928Y-86228D01*
X49871Y-86242D01*
X49771Y-86242D01*
X49714Y-86228D01*
X49685Y-86200D01*
X49671Y-86171D01*
X49671Y-86114D01*
X49685Y-86085D01*
X49714Y-86057D01*
X49771Y-86042D01*
X49871Y-86042D01*
X49928Y-86057D01*
X49957Y-86085D01*
X49971Y-86114D01*
X49971Y-86171D01*
X49671Y-85942D02*
X49671Y-85742D01*
X49971Y-85871D01*
G54D18*
X52025Y-86678D02*
X52013Y-86666D01*
X52001Y-86642D01*
X52001Y-86583D01*
X52013Y-86559D01*
X52025Y-86547D01*
X52048Y-86535D01*
X52072Y-86535D01*
X52108Y-86547D01*
X52251Y-86690D01*
X52251Y-86535D01*
X52251Y-86428D02*
X52001Y-86428D01*
X52251Y-86285D01*
X52001Y-86285D01*
X52001Y-86190D02*
X52001Y-86035D01*
X52096Y-86119D01*
X52096Y-86083D01*
X52108Y-86059D01*
X52120Y-86047D01*
X52144Y-86035D01*
X52203Y-86035D01*
X52227Y-86047D01*
X52239Y-86059D01*
X52251Y-86083D01*
X52251Y-86154D01*
X52239Y-86178D01*
X52227Y-86190D01*
X52251Y-85916D02*
X52251Y-85869D01*
X52239Y-85845D01*
X52227Y-85833D01*
X52191Y-85809D01*
X52144Y-85797D01*
X52048Y-85797D01*
X52025Y-85809D01*
X52013Y-85821D01*
X52001Y-85845D01*
X52001Y-85892D01*
X52013Y-85916D01*
X52025Y-85928D01*
X52048Y-85940D01*
X52108Y-85940D01*
X52132Y-85928D01*
X52144Y-85916D01*
X52155Y-85892D01*
X52155Y-85845D01*
X52144Y-85821D01*
X52132Y-85809D01*
X52108Y-85797D01*
X52001Y-85642D02*
X52001Y-85619D01*
X52013Y-85595D01*
X52025Y-85583D01*
X52048Y-85571D01*
X52096Y-85559D01*
X52155Y-85559D01*
X52203Y-85571D01*
X52227Y-85583D01*
X52239Y-85595D01*
X52251Y-85619D01*
X52251Y-85642D01*
X52239Y-85666D01*
X52227Y-85678D01*
X52203Y-85690D01*
X52155Y-85702D01*
X52096Y-85702D01*
X52048Y-85690D01*
X52025Y-85678D01*
X52013Y-85666D01*
X52001Y-85642D01*
X52001Y-85345D02*
X52001Y-85392D01*
X52013Y-85416D01*
X52025Y-85428D01*
X52060Y-85452D01*
X52108Y-85464D01*
X52203Y-85464D01*
X52227Y-85452D01*
X52239Y-85440D01*
X52251Y-85416D01*
X52251Y-85369D01*
X52239Y-85345D01*
X52227Y-85333D01*
X52203Y-85321D01*
X52144Y-85321D01*
X52120Y-85333D01*
X52108Y-85345D01*
X52096Y-85369D01*
X52096Y-85416D01*
X52108Y-85440D01*
X52120Y-85452D01*
X52144Y-85464D01*
X51446Y-86570D02*
X51529Y-86570D01*
X51565Y-86701D02*
X51446Y-86701D01*
X51446Y-86451D01*
X51565Y-86451D01*
X51017Y-85920D02*
X51053Y-85932D01*
X51065Y-85944D01*
X51077Y-85967D01*
X51077Y-86003D01*
X51065Y-86027D01*
X51053Y-86039D01*
X51029Y-86051D01*
X50934Y-86051D01*
X50934Y-85801D01*
X51017Y-85801D01*
X51041Y-85813D01*
X51053Y-85825D01*
X51065Y-85848D01*
X51065Y-85872D01*
X51053Y-85896D01*
X51041Y-85908D01*
X51017Y-85920D01*
X50934Y-85920D01*
X50577Y-86677D02*
X50565Y-86689D01*
X50529Y-86701D01*
X50505Y-86701D01*
X50470Y-86689D01*
X50446Y-86665D01*
X50434Y-86641D01*
X50422Y-86594D01*
X50422Y-86558D01*
X50434Y-86510D01*
X50446Y-86486D01*
X50470Y-86463D01*
X50505Y-86451D01*
X50529Y-86451D01*
X50565Y-86463D01*
X50577Y-86475D01*
G54D17*
X62257Y-86371D02*
X62157Y-86228D01*
X62085Y-86371D02*
X62085Y-86071D01*
X62200Y-86071D01*
X62228Y-86085D01*
X62242Y-86100D01*
X62257Y-86128D01*
X62257Y-86171D01*
X62242Y-86200D01*
X62228Y-86214D01*
X62200Y-86228D01*
X62085Y-86228D01*
X62371Y-86100D02*
X62385Y-86085D01*
X62414Y-86071D01*
X62485Y-86071D01*
X62514Y-86085D01*
X62528Y-86100D01*
X62542Y-86128D01*
X62542Y-86157D01*
X62528Y-86200D01*
X62357Y-86371D01*
X62542Y-86371D01*
X62714Y-86200D02*
X62685Y-86185D01*
X62671Y-86171D01*
X62657Y-86142D01*
X62657Y-86128D01*
X62671Y-86100D01*
X62685Y-86085D01*
X62714Y-86071D01*
X62771Y-86071D01*
X62800Y-86085D01*
X62814Y-86100D01*
X62828Y-86128D01*
X62828Y-86142D01*
X62814Y-86171D01*
X62800Y-86185D01*
X62771Y-86200D01*
X62714Y-86200D01*
X62685Y-86214D01*
X62671Y-86228D01*
X62657Y-86257D01*
X62657Y-86314D01*
X62671Y-86342D01*
X62685Y-86357D01*
X62714Y-86371D01*
X62771Y-86371D01*
X62800Y-86357D01*
X62814Y-86342D01*
X62828Y-86314D01*
X62828Y-86257D01*
X62814Y-86228D01*
X62800Y-86214D01*
X62771Y-86200D01*
X63871Y-86371D02*
X63700Y-86371D01*
X63785Y-86371D02*
X63785Y-86071D01*
X63757Y-86114D01*
X63728Y-86142D01*
X63700Y-86157D01*
X64057Y-86071D02*
X64085Y-86071D01*
X64114Y-86085D01*
X64128Y-86100D01*
X64142Y-86128D01*
X64157Y-86185D01*
X64157Y-86257D01*
X64142Y-86314D01*
X64128Y-86342D01*
X64114Y-86357D01*
X64085Y-86371D01*
X64057Y-86371D01*
X64028Y-86357D01*
X64014Y-86342D01*
X64000Y-86314D01*
X63985Y-86257D01*
X63985Y-86185D01*
X64000Y-86128D01*
X64014Y-86100D01*
X64028Y-86085D01*
X64057Y-86071D01*
X64285Y-86371D02*
X64285Y-86071D01*
X64314Y-86257D02*
X64400Y-86371D01*
X64400Y-86171D02*
X64285Y-86285D01*
M02*
