M48
INCH,TZ
T10C0.025
T11C0.032
T12C0.040
T13C0.043
T14C0.059
T15C0.100
T16C0.108
T17C0.047
T18C0.126
%
T10
X030250Y-80750
X034500Y-80500
X034750Y-87250
X036500Y-87250
X036750Y-83000
X037000Y-78500
X037250Y-79000
X037250Y-83250
X038000Y-87250
X039250Y-78750
X039250Y-84250
X040000Y-80750
X058250Y-86750
X062750Y-76750
T11
X031000Y-63250
X031000Y-66250
X032500Y-91250
X032500Y-95250
X033500Y-91250
X033500Y-95250
X034000Y-66250
X038000Y-70000
X038000Y-76000
X039500Y-68000
X039500Y-74000
X040000Y-68500
X040000Y-74500
X040500Y-68000
X040500Y-74000
X040750Y-91250
X040750Y-95250
X041750Y-91250
X041750Y-95250
X042000Y-70000
X042000Y-76000
X043000Y-70000
X043000Y-76000
X044250Y-62500
X044500Y-68000
X044500Y-74000
X045000Y-68500
X045000Y-74500
X045250Y-59500
X045500Y-68000
X045500Y-74000
X046250Y-62500
X047000Y-70000
X047000Y-76000
X047500Y-92500
X047500Y-96500
X049000Y-70000
X049000Y-76000
X049000Y-82000
X049000Y-88000
X049000Y-92500
X049000Y-96500
X050500Y-68000
X050500Y-74000
X050500Y-80000
X050500Y-86000
X051000Y-68500
X051000Y-74500
X051000Y-80500
X051000Y-86500
X051500Y-68000
X051500Y-74000
X051500Y-80000
X051500Y-86000
X053000Y-70000
X053000Y-76000
X053000Y-82000
X053000Y-88000
X054000Y-70000
X054000Y-76000
X054000Y-82000
X054000Y-88000
X055000Y-92500
X055000Y-96500
X055500Y-68000
X055500Y-74000
X055500Y-80000
X055500Y-86000
X056000Y-68500
X056000Y-74500
X056000Y-80500
X056000Y-86500
X056500Y-68000
X056500Y-74000
X056500Y-80000
X056500Y-86000
X056500Y-92500
X056500Y-96500
X058000Y-70000
X058000Y-76000
X058000Y-82000
X058000Y-88000
X060000Y-70000
X060000Y-71000
X060000Y-72000
X060000Y-73000
X060000Y-74000
X060000Y-75000
X060000Y-76000
X060000Y-77000
X060000Y-78000
X060000Y-79000
X060000Y-80000
X060000Y-81000
X060000Y-82000
X060000Y-83000
X060000Y-84000
X061000Y-66750
X061250Y-69000
X061250Y-73000
X061250Y-74000
X061250Y-78000
X061250Y-86250
X062250Y-74000
X062250Y-78000
X062500Y-88500
X062500Y-92500
X063250Y-74000
X063250Y-78000
X064000Y-88500
X064000Y-92500
X065000Y-66750
X065250Y-86250
X066000Y-70000
X066000Y-71000
X066000Y-72000
X066000Y-73000
X066000Y-74000
X066000Y-75000
X066000Y-76000
X066000Y-77000
X066000Y-78000
X066000Y-79000
X066000Y-80000
X066000Y-81000
X066000Y-82000
X066000Y-83000
X066000Y-84000
T12
X031000Y-88750
X031000Y-89750
X035000Y-88750
X035000Y-89750
X038000Y-66000
X038000Y-72000
X039250Y-88750
X039250Y-89750
X042000Y-66000
X042000Y-72000
X043000Y-66000
X043000Y-72000
X043250Y-88750
X043250Y-89750
X047000Y-66000
X047000Y-72000
X049000Y-66000
X049000Y-72000
X049000Y-78000
X049000Y-84000
X050500Y-92500
X050500Y-96500
X053000Y-66000
X053000Y-72000
X053000Y-78000
X053000Y-84000
X054000Y-66000
X054000Y-72000
X054000Y-78000
X054000Y-84000
X058000Y-66000
X058000Y-72000
X058000Y-78000
X058000Y-84000
X058000Y-92500
X058000Y-96500
X065500Y-88500
X065500Y-92500
T13
X045250Y-92500
X045250Y-94500
X045250Y-96500
X052750Y-92500
X052750Y-94500
X052750Y-96500
X060250Y-92500
X060250Y-94500
X060250Y-96500
T14
X032677Y-62402
X033661Y-62402
X034646Y-60433
X035236Y-95079
X035630Y-62402
X036220Y-95079
X036614Y-62402
X037205Y-97047
X038189Y-95079
X038583Y-62402
X039173Y-95079
X039567Y-62402
X040551Y-60433
X041535Y-62402
X042520Y-62402
T15
X050250Y-63000
X052250Y-63000
X050250Y-60000
X050250Y-61500
X052250Y-60000
X052250Y-61500
T16
X054900Y-63050
X056750Y-61900
X056750Y-64250
T17
X032677Y-59449
X032677Y-60433
X034646Y-62402
X035236Y-97047
X035236Y-98031
X036614Y-59449
X036614Y-60433
X037205Y-95079
X038583Y-59449
X038583Y-60433
X039173Y-97047
X039173Y-98031
X040551Y-62402
X042520Y-59449
X042520Y-60433
T18
X029528Y-61024
X029528Y-96457
X064961Y-61024
X064961Y-96457
M30

