G04 (created by PCBNEW (2013-07-07 BZR 4022)-stable) date Tue 03 Nov 2020 08:36:50 PM CST*
%MOIN*%
G04 Gerber Fmt 3.4, Leading zero omitted, Abs format*
%FSLAX34Y34*%
G01*
G70*
G90*
G04 APERTURE LIST*
%ADD10C,0.00590551*%
%ADD11R,0.069X0.069*%
%ADD12O,0.069X0.069*%
%ADD13O,0.059X0.0885*%
%ADD14C,0.0767717*%
%ADD15O,0.059X0.059*%
%ADD16R,0.069X0.1035*%
%ADD17O,0.069X0.1035*%
%ADD18R,0.0885X0.059*%
%ADD19O,0.0885X0.059*%
%ADD20R,0.0787402X0.0787402*%
%ADD21O,0.0787402X0.0787402*%
%ADD22R,0.16X0.16*%
%ADD23C,0.16*%
%ADD24R,0.15X0.15*%
%ADD25C,0.15*%
%ADD26O,0.058X0.058*%
%ADD27C,0.035*%
%ADD28C,0.04*%
%ADD29C,0.08*%
%ADD30C,0.01*%
%ADD31C,0.02*%
G04 APERTURE END LIST*
G54D10*
G54D11*
X58000Y-92500D03*
G54D12*
X58000Y-96500D03*
G54D13*
X45500Y-67852D03*
X45000Y-68647D03*
X44500Y-67852D03*
X56500Y-85852D03*
X56000Y-86647D03*
X55500Y-85852D03*
X56500Y-73852D03*
X56000Y-74647D03*
X55500Y-73852D03*
X56500Y-79852D03*
X56000Y-80647D03*
X55500Y-79852D03*
X56500Y-67852D03*
X56000Y-68647D03*
X55500Y-67852D03*
X45500Y-73852D03*
X45000Y-74647D03*
X44500Y-73852D03*
G54D14*
X37204Y-97047D03*
X36220Y-95078D03*
X38188Y-95078D03*
X35236Y-95078D03*
X39173Y-95078D03*
G54D15*
X54000Y-76000D03*
X58000Y-76000D03*
X42000Y-70000D03*
X38000Y-70000D03*
X53000Y-76000D03*
X49000Y-76000D03*
X53000Y-82000D03*
X49000Y-82000D03*
X43000Y-70000D03*
X47000Y-70000D03*
X43000Y-76000D03*
X47000Y-76000D03*
X54000Y-82000D03*
X58000Y-82000D03*
X53000Y-88000D03*
X49000Y-88000D03*
X54000Y-88000D03*
X58000Y-88000D03*
X53000Y-70000D03*
X49000Y-70000D03*
X54000Y-70000D03*
X58000Y-70000D03*
X42000Y-76000D03*
X38000Y-76000D03*
X49000Y-96500D03*
X49000Y-92500D03*
X56500Y-96500D03*
X56500Y-92500D03*
X64000Y-92500D03*
X64000Y-88500D03*
X40750Y-95250D03*
X40750Y-91250D03*
X41750Y-95250D03*
X41750Y-91250D03*
X33500Y-95250D03*
X33500Y-91250D03*
X32500Y-95250D03*
X32500Y-91250D03*
G54D16*
X35000Y-89922D03*
G54D17*
X35000Y-88577D03*
G54D16*
X39250Y-89922D03*
G54D17*
X39250Y-88577D03*
G54D16*
X43250Y-89922D03*
G54D17*
X43250Y-88577D03*
G54D16*
X31000Y-89922D03*
G54D17*
X31000Y-88577D03*
G54D11*
X65500Y-88500D03*
G54D12*
X65500Y-92500D03*
G54D11*
X50500Y-92500D03*
G54D12*
X50500Y-96500D03*
G54D11*
X42000Y-72000D03*
G54D12*
X38000Y-72000D03*
G54D11*
X43000Y-72000D03*
G54D12*
X47000Y-72000D03*
G54D11*
X54000Y-66000D03*
G54D12*
X58000Y-66000D03*
G54D11*
X53000Y-66000D03*
G54D12*
X49000Y-66000D03*
G54D11*
X43000Y-66000D03*
G54D12*
X47000Y-66000D03*
G54D11*
X42000Y-66000D03*
G54D12*
X38000Y-66000D03*
G54D11*
X53000Y-84000D03*
G54D12*
X49000Y-84000D03*
G54D11*
X54000Y-84000D03*
G54D12*
X58000Y-84000D03*
G54D11*
X54000Y-72000D03*
G54D12*
X58000Y-72000D03*
G54D11*
X53000Y-72000D03*
G54D12*
X49000Y-72000D03*
G54D11*
X53000Y-78000D03*
G54D12*
X49000Y-78000D03*
G54D11*
X54000Y-78000D03*
G54D12*
X58000Y-78000D03*
G54D18*
X65852Y-84000D03*
G54D19*
X65852Y-83000D03*
X65852Y-82000D03*
X65852Y-81000D03*
X60147Y-79000D03*
X60147Y-80000D03*
X60147Y-81000D03*
X65852Y-80000D03*
X65852Y-79000D03*
X65852Y-78000D03*
X60147Y-78000D03*
X60147Y-77000D03*
X60147Y-76000D03*
X65852Y-77000D03*
X65852Y-76000D03*
X65852Y-75000D03*
X65852Y-74000D03*
X65852Y-73000D03*
X65852Y-72000D03*
X65852Y-71000D03*
X60147Y-75000D03*
X60147Y-74000D03*
X60147Y-73000D03*
X60147Y-72000D03*
X60147Y-71000D03*
X60147Y-70000D03*
X65852Y-70000D03*
X60147Y-82000D03*
X60147Y-83000D03*
X60147Y-84000D03*
G54D20*
X60250Y-92500D03*
G54D21*
X60250Y-94500D03*
X60250Y-96500D03*
G54D20*
X52750Y-92500D03*
G54D21*
X52750Y-94500D03*
X52750Y-96500D03*
G54D20*
X45250Y-92500D03*
G54D21*
X45250Y-94500D03*
X45250Y-96500D03*
G54D22*
X56750Y-64250D03*
G54D23*
X56750Y-61900D03*
X54900Y-63050D03*
G54D24*
X50250Y-63000D03*
G54D25*
X52250Y-63000D03*
G54D15*
X47500Y-92500D03*
X47500Y-96500D03*
X55000Y-92500D03*
X55000Y-96500D03*
X62500Y-88500D03*
X62500Y-92500D03*
G54D14*
X34645Y-60433D03*
X35629Y-62401D03*
X33661Y-62401D03*
X36614Y-62401D03*
X32677Y-62401D03*
X40551Y-60433D03*
X41535Y-62401D03*
X39566Y-62401D03*
X42519Y-62401D03*
X38582Y-62401D03*
G54D26*
X45250Y-59500D03*
X46250Y-62500D03*
X44250Y-62500D03*
X31000Y-66250D03*
X34000Y-66250D03*
X31000Y-63250D03*
G54D15*
X61250Y-69000D03*
X61250Y-73000D03*
X61000Y-66750D03*
X65000Y-66750D03*
X62250Y-74000D03*
X62250Y-78000D03*
X63250Y-78000D03*
X63250Y-74000D03*
X61250Y-74000D03*
X61250Y-78000D03*
G54D13*
X40500Y-67852D03*
X40000Y-68647D03*
X39500Y-67852D03*
X51500Y-67852D03*
X51000Y-68647D03*
X50500Y-67852D03*
X40500Y-73852D03*
X40000Y-74647D03*
X39500Y-73852D03*
X51500Y-73852D03*
X51000Y-74647D03*
X50500Y-73852D03*
X51500Y-79852D03*
X51000Y-80647D03*
X50500Y-79852D03*
X51500Y-85852D03*
X51000Y-86647D03*
X50500Y-85852D03*
G54D27*
X38000Y-87250D03*
X36500Y-87250D03*
X30250Y-80750D03*
X40000Y-80750D03*
X34750Y-87250D03*
X34500Y-80500D03*
X63000Y-84000D03*
X59000Y-86500D03*
X62750Y-76750D03*
X39250Y-84250D03*
X39250Y-78750D03*
X37000Y-78500D03*
X36750Y-83000D03*
X37250Y-83250D03*
X37250Y-79000D03*
G54D28*
X42000Y-76000D02*
X42750Y-76750D01*
X51750Y-76750D02*
X53000Y-78000D01*
X42750Y-76750D02*
X51750Y-76750D01*
X60000Y-84000D02*
X60000Y-89250D01*
G54D29*
X53000Y-88000D02*
X53000Y-91250D01*
X50500Y-92500D02*
X51750Y-91250D01*
X51750Y-91250D02*
X53000Y-91250D01*
X53000Y-91250D02*
X58000Y-91250D01*
X65500Y-88500D02*
X64500Y-87500D01*
X58000Y-91250D02*
X58000Y-92500D01*
X61750Y-87500D02*
X60000Y-89250D01*
X60000Y-89250D02*
X58000Y-91250D01*
X64500Y-87500D02*
X61750Y-87500D01*
G54D30*
X50500Y-96500D02*
X49000Y-96500D01*
G54D29*
X45250Y-94500D02*
X48500Y-94500D01*
X48500Y-94500D02*
X50500Y-96500D01*
G54D30*
X58000Y-96500D02*
X56500Y-96500D01*
G54D29*
X52750Y-94500D02*
X56000Y-94500D01*
X56000Y-94500D02*
X58000Y-96500D01*
G54D30*
X65500Y-92500D02*
X64000Y-92500D01*
G54D29*
X60250Y-94500D02*
X63500Y-94500D01*
X63500Y-94500D02*
X65500Y-92500D01*
X32000Y-96000D02*
X32250Y-96250D01*
X42800Y-96200D02*
X43000Y-96000D01*
X40300Y-96200D02*
X42800Y-96200D01*
X40200Y-96100D02*
X40300Y-96200D01*
X37850Y-96100D02*
X40200Y-96100D01*
X37750Y-96000D02*
X37850Y-96100D01*
X36900Y-96000D02*
X37750Y-96000D01*
X36800Y-96100D02*
X36900Y-96000D01*
X34800Y-96100D02*
X36800Y-96100D01*
X34650Y-96250D02*
X34800Y-96100D01*
X32250Y-96250D02*
X34650Y-96250D01*
X51000Y-97500D02*
X58500Y-97500D01*
X59000Y-93750D02*
X60250Y-92500D01*
X59000Y-97000D02*
X59000Y-93750D01*
X58500Y-97500D02*
X59000Y-97000D01*
X43000Y-96000D02*
X44500Y-97500D01*
X44500Y-97500D02*
X46000Y-97500D01*
X46000Y-97500D02*
X50500Y-97500D01*
X50500Y-97500D02*
X51000Y-97500D01*
X51500Y-93750D02*
X52750Y-92500D01*
X51500Y-97000D02*
X51500Y-93750D01*
X51000Y-97500D02*
X51500Y-97000D01*
X29500Y-91000D02*
X29500Y-92500D01*
G54D30*
X32000Y-96000D02*
X35750Y-96000D01*
G54D29*
X31500Y-95500D02*
X32000Y-96000D01*
X31500Y-94500D02*
X31500Y-95500D01*
X29500Y-92500D02*
X31500Y-94500D01*
X29500Y-91000D02*
X29500Y-69000D01*
X29500Y-69000D02*
X31250Y-67250D01*
X31250Y-67250D02*
X34750Y-67250D01*
X34750Y-67250D02*
X37000Y-65000D01*
X37000Y-65000D02*
X46500Y-65000D01*
X46500Y-65000D02*
X48500Y-63000D01*
X48500Y-63000D02*
X50250Y-63000D01*
X44000Y-93750D02*
X45250Y-92500D01*
X43000Y-96000D02*
X44000Y-95000D01*
X44000Y-95000D02*
X44000Y-93750D01*
X47000Y-66000D02*
X48450Y-64550D01*
X52250Y-63850D02*
X52250Y-63000D01*
X51550Y-64550D02*
X52250Y-63850D01*
X48450Y-64550D02*
X51550Y-64550D01*
G54D28*
X58000Y-84000D02*
X59000Y-83000D01*
X59000Y-83000D02*
X60000Y-83000D01*
X60000Y-83000D02*
X62750Y-83000D01*
X62750Y-83000D02*
X64750Y-81000D01*
X64750Y-81000D02*
X66000Y-81000D01*
X35000Y-88750D02*
X39250Y-88750D01*
G54D31*
X36500Y-87250D02*
X38000Y-87250D01*
G54D30*
X40551Y-60433D02*
X41084Y-59900D01*
X44850Y-59900D02*
X45250Y-59500D01*
X41084Y-59900D02*
X44850Y-59900D01*
X42519Y-62401D02*
X42971Y-61950D01*
X45700Y-61950D02*
X46250Y-62500D01*
X42971Y-61950D02*
X45700Y-61950D01*
X61250Y-73000D02*
X66000Y-73000D01*
X65000Y-66750D02*
X66600Y-68350D01*
X66600Y-70400D02*
X66000Y-71000D01*
X66600Y-68350D02*
X66600Y-70400D01*
X31000Y-66250D02*
X32677Y-64572D01*
X32677Y-64572D02*
X32677Y-62401D01*
X38582Y-62401D02*
X39331Y-63150D01*
X43600Y-63150D02*
X44250Y-62500D01*
X39331Y-63150D02*
X43600Y-63150D01*
X34000Y-66250D02*
X36614Y-63635D01*
X36614Y-63635D02*
X36614Y-62401D01*
X31000Y-63250D02*
X31000Y-62750D01*
X33828Y-61250D02*
X34645Y-60433D01*
X32500Y-61250D02*
X33828Y-61250D01*
X31000Y-62750D02*
X32500Y-61250D01*
X63250Y-78000D02*
X61250Y-76000D01*
X61250Y-76000D02*
X60000Y-76000D01*
G54D31*
X50500Y-74000D02*
X50500Y-73500D01*
X54500Y-73000D02*
X55500Y-74000D01*
X51000Y-73000D02*
X54500Y-73000D01*
X50500Y-73500D02*
X51000Y-73000D01*
X50500Y-80000D02*
X50500Y-79500D01*
X54500Y-79000D02*
X55500Y-80000D01*
X51000Y-79000D02*
X54500Y-79000D01*
X50500Y-79500D02*
X51000Y-79000D01*
X31500Y-68000D02*
X39500Y-68000D01*
X30250Y-69250D02*
X31500Y-68000D01*
X30250Y-80750D02*
X30250Y-69250D01*
X39500Y-68000D02*
X39500Y-67750D01*
X43500Y-67000D02*
X44500Y-68000D01*
X40250Y-67000D02*
X43500Y-67000D01*
X39500Y-67750D02*
X40250Y-67000D01*
X39500Y-74000D02*
X39000Y-74500D01*
X40000Y-78500D02*
X40000Y-80750D01*
X39000Y-77500D02*
X40000Y-78500D01*
X39000Y-74500D02*
X39000Y-77500D01*
X39500Y-74000D02*
X39500Y-73750D01*
X43500Y-73000D02*
X44500Y-74000D01*
X40250Y-73000D02*
X43500Y-73000D01*
X39500Y-73750D02*
X40250Y-73000D01*
X50500Y-86000D02*
X50500Y-85500D01*
X54500Y-85000D02*
X55500Y-86000D01*
X51000Y-85000D02*
X54500Y-85000D01*
X50500Y-85500D02*
X51000Y-85000D01*
X48750Y-86000D02*
X50500Y-86000D01*
X47000Y-87750D02*
X48750Y-86000D01*
X35250Y-87750D02*
X47000Y-87750D01*
X34750Y-87250D02*
X35250Y-87750D01*
X50500Y-68000D02*
X50500Y-67850D01*
X54600Y-67100D02*
X55500Y-68000D01*
X51250Y-67100D02*
X54600Y-67100D01*
X50500Y-67850D02*
X51250Y-67100D01*
X50500Y-68000D02*
X48250Y-68000D01*
X34500Y-72500D02*
X34500Y-80500D01*
X36000Y-71000D02*
X34500Y-72500D01*
X45250Y-71000D02*
X36000Y-71000D01*
X48250Y-68000D02*
X45250Y-71000D01*
G54D30*
X56000Y-68500D02*
X56250Y-68750D01*
X65250Y-72000D02*
X66000Y-72000D01*
X64500Y-71250D02*
X65250Y-72000D01*
X63500Y-70250D02*
X64500Y-71250D01*
X61500Y-68250D02*
X63500Y-70250D01*
X61000Y-68250D02*
X61500Y-68250D01*
X60500Y-68750D02*
X61000Y-68250D01*
X56250Y-68750D02*
X60500Y-68750D01*
X56300Y-76600D02*
X58250Y-76600D01*
X45850Y-75350D02*
X49250Y-75350D01*
X49250Y-75350D02*
X50150Y-76250D01*
X50150Y-76250D02*
X52200Y-76250D01*
X52200Y-76250D02*
X52550Y-76600D01*
X52550Y-76600D02*
X56300Y-76600D01*
X45000Y-74500D02*
X45850Y-75350D01*
X59850Y-75000D02*
X60000Y-75000D01*
X58250Y-76600D02*
X59850Y-75000D01*
X56000Y-86500D02*
X56500Y-87000D01*
X65000Y-83000D02*
X66000Y-83000D01*
X64500Y-83500D02*
X65000Y-83000D01*
X59500Y-83500D02*
X64500Y-83500D01*
X59250Y-83750D02*
X59500Y-83500D01*
X59250Y-84750D02*
X59250Y-83750D01*
X57000Y-87000D02*
X59250Y-84750D01*
X56500Y-87000D02*
X57000Y-87000D01*
X56000Y-80500D02*
X56000Y-79400D01*
X59850Y-77000D02*
X60000Y-77000D01*
X58250Y-78600D02*
X59850Y-77000D01*
X56800Y-78600D02*
X58250Y-78600D01*
X56000Y-79400D02*
X56800Y-78600D01*
X56000Y-74500D02*
X56450Y-74950D01*
X59250Y-73000D02*
X60000Y-73000D01*
X57300Y-74950D02*
X59250Y-73000D01*
X56450Y-74950D02*
X57300Y-74950D01*
X66000Y-70000D02*
X61350Y-65350D01*
X45000Y-67400D02*
X45800Y-66600D01*
X45800Y-66600D02*
X47350Y-66600D01*
X47350Y-66600D02*
X48700Y-65250D01*
X48700Y-65250D02*
X55400Y-65250D01*
X55400Y-65250D02*
X55500Y-65350D01*
X55500Y-65350D02*
X58500Y-65350D01*
X45000Y-67400D02*
X45000Y-68500D01*
X61350Y-65350D02*
X58500Y-65350D01*
X58500Y-77000D02*
X59500Y-76000D01*
X56250Y-77000D02*
X58500Y-77000D01*
X54550Y-78700D02*
X56250Y-77000D01*
X52100Y-78700D02*
X54550Y-78700D01*
X50600Y-77200D02*
X52100Y-78700D01*
X42150Y-77200D02*
X50600Y-77200D01*
X40000Y-75050D02*
X42150Y-77200D01*
X40000Y-74500D02*
X40000Y-75050D01*
X61750Y-75500D02*
X63250Y-74000D01*
X60500Y-75500D02*
X61750Y-75500D01*
X60250Y-75500D02*
X60500Y-75500D01*
X60000Y-75500D02*
X60250Y-75500D01*
X59750Y-75500D02*
X60000Y-75500D01*
X59500Y-75750D02*
X59750Y-75500D01*
X59500Y-76000D02*
X59500Y-75750D01*
X51000Y-68500D02*
X51750Y-69250D01*
X61000Y-69250D02*
X61250Y-69000D01*
X56750Y-69250D02*
X61000Y-69250D01*
X56500Y-69500D02*
X56750Y-69250D01*
X55500Y-69500D02*
X56500Y-69500D01*
X55250Y-69250D02*
X55500Y-69500D01*
X51750Y-69250D02*
X55250Y-69250D01*
X57850Y-80050D02*
X59400Y-78500D01*
X51000Y-80500D02*
X54550Y-80500D01*
X54550Y-80500D02*
X55600Y-81550D01*
X55600Y-81550D02*
X56350Y-81550D01*
X56350Y-81550D02*
X57850Y-80050D01*
X61750Y-78500D02*
X62250Y-78000D01*
X59400Y-78500D02*
X61750Y-78500D01*
X56500Y-87450D02*
X58050Y-87450D01*
X63000Y-84000D02*
X66000Y-84000D01*
X58050Y-87450D02*
X59000Y-86500D01*
X51400Y-86900D02*
X51000Y-86500D01*
X55000Y-86900D02*
X51400Y-86900D01*
X55550Y-87450D02*
X55000Y-86900D01*
X56550Y-87450D02*
X56500Y-87450D01*
X56500Y-87450D02*
X55550Y-87450D01*
X49750Y-67400D02*
X50400Y-66750D01*
X47900Y-67400D02*
X49750Y-67400D01*
X46800Y-68500D02*
X47900Y-67400D01*
X45600Y-69700D02*
X46800Y-68500D01*
X44450Y-69700D02*
X45600Y-69700D01*
X43900Y-69150D02*
X44450Y-69700D01*
X40650Y-69150D02*
X43900Y-69150D01*
X40000Y-68500D02*
X40650Y-69150D01*
X50400Y-66750D02*
X61000Y-66750D01*
X59100Y-74000D02*
X59600Y-73500D01*
X51000Y-74500D02*
X51800Y-75300D01*
X51800Y-75300D02*
X55100Y-75300D01*
X55100Y-75300D02*
X55450Y-75650D01*
X55450Y-75650D02*
X57450Y-75650D01*
X57450Y-75650D02*
X59100Y-74000D01*
X63750Y-75750D02*
X62750Y-76750D01*
X63750Y-74250D02*
X63750Y-75750D01*
X63750Y-74000D02*
X63750Y-74250D01*
X63750Y-73750D02*
X63750Y-74000D01*
X63500Y-73500D02*
X63750Y-73750D01*
X63250Y-73500D02*
X63500Y-73500D01*
X59600Y-73500D02*
X63250Y-73500D01*
X37750Y-84250D02*
X39250Y-84250D01*
X37500Y-84000D02*
X37750Y-84250D01*
X37500Y-83500D02*
X37500Y-84000D01*
X37750Y-83250D02*
X37500Y-83500D01*
X37500Y-83000D02*
X37750Y-83250D01*
X37500Y-82250D02*
X37500Y-83000D01*
X37500Y-80000D02*
X37500Y-82250D01*
X37500Y-79250D02*
X37500Y-80000D01*
X38000Y-78750D02*
X37500Y-79250D01*
X39250Y-78750D02*
X38000Y-78750D01*
X37000Y-78750D02*
X37000Y-78500D01*
X36750Y-79000D02*
X37000Y-78750D01*
X37000Y-79250D02*
X36750Y-79000D01*
X37000Y-81250D02*
X37000Y-79250D01*
X37000Y-82500D02*
X37000Y-81250D01*
X37000Y-82750D02*
X37000Y-82500D01*
X36750Y-83000D02*
X37000Y-82750D01*
X37250Y-83750D02*
X37250Y-83250D01*
X37250Y-79000D02*
X37250Y-83750D01*
M02*
