G04 (created by PCBNEW (2013-07-07 BZR 4022)-stable) date Sun 01 Nov 2020 01:09:18 PM CST*
%MOIN*%
G04 Gerber Fmt 3.4, Leading zero omitted, Abs format*
%FSLAX34Y34*%
G01*
G70*
G90*
G04 APERTURE LIST*
%ADD10C,0.00590551*%
%ADD11R,0.069X0.069*%
%ADD12O,0.069X0.069*%
%ADD13O,0.059X0.0885*%
%ADD14C,0.0767717*%
%ADD15C,0.0472441*%
%ADD16O,0.059X0.059*%
%ADD17R,0.069X0.1035*%
%ADD18O,0.069X0.1035*%
%ADD19R,0.0885X0.059*%
%ADD20O,0.0885X0.059*%
%ADD21C,0.125984*%
%ADD22R,0.0787402X0.0787402*%
%ADD23O,0.0787402X0.0787402*%
%ADD24R,0.16X0.16*%
%ADD25C,0.16*%
%ADD26R,0.15X0.15*%
%ADD27C,0.15*%
%ADD28C,0.1*%
%ADD29O,0.058X0.058*%
G04 APERTURE END LIST*
G54D10*
G54D11*
X58000Y-92500D03*
G54D12*
X58000Y-96500D03*
G54D13*
X51500Y-73852D03*
X51000Y-74647D03*
X50500Y-73852D03*
X45500Y-67852D03*
X45000Y-68647D03*
X44500Y-67852D03*
X56500Y-85852D03*
X56000Y-86647D03*
X55500Y-85852D03*
X56500Y-73852D03*
X56000Y-74647D03*
X55500Y-73852D03*
X40500Y-73852D03*
X40000Y-74647D03*
X39500Y-73852D03*
X51500Y-79852D03*
X51000Y-80647D03*
X50500Y-79852D03*
X56500Y-79852D03*
X56000Y-80647D03*
X55500Y-79852D03*
X56500Y-67852D03*
X56000Y-68647D03*
X55500Y-67852D03*
X51500Y-67852D03*
X51000Y-68647D03*
X50500Y-67852D03*
X45500Y-73852D03*
X45000Y-74647D03*
X44500Y-73852D03*
X40500Y-67852D03*
X40000Y-68647D03*
X39500Y-67852D03*
X51500Y-85852D03*
X51000Y-86647D03*
X50500Y-85852D03*
G54D14*
X37204Y-97047D03*
X36220Y-95078D03*
X38188Y-95078D03*
X35236Y-95078D03*
X39173Y-95078D03*
G54D15*
X35236Y-97047D03*
X35236Y-98031D03*
X37204Y-95078D03*
X39173Y-97047D03*
X39173Y-98031D03*
G54D16*
X54000Y-76000D03*
X58000Y-76000D03*
X42000Y-70000D03*
X38000Y-70000D03*
X53000Y-76000D03*
X49000Y-76000D03*
X53000Y-82000D03*
X49000Y-82000D03*
X43000Y-70000D03*
X47000Y-70000D03*
X43000Y-76000D03*
X47000Y-76000D03*
X54000Y-82000D03*
X58000Y-82000D03*
X53000Y-88000D03*
X49000Y-88000D03*
X54000Y-88000D03*
X58000Y-88000D03*
X53000Y-70000D03*
X49000Y-70000D03*
X54000Y-70000D03*
X58000Y-70000D03*
X42000Y-76000D03*
X38000Y-76000D03*
X49000Y-96500D03*
X49000Y-92500D03*
X56500Y-96500D03*
X56500Y-92500D03*
X64000Y-92500D03*
X64000Y-88500D03*
X40750Y-95250D03*
X40750Y-91250D03*
X41750Y-95250D03*
X41750Y-91250D03*
X33500Y-95250D03*
X33500Y-91250D03*
X32500Y-95250D03*
X32500Y-91250D03*
G54D17*
X35000Y-89922D03*
G54D18*
X35000Y-88577D03*
G54D17*
X39250Y-89922D03*
G54D18*
X39250Y-88577D03*
G54D17*
X43250Y-89922D03*
G54D18*
X43250Y-88577D03*
G54D17*
X31000Y-89922D03*
G54D18*
X31000Y-88577D03*
G54D11*
X65500Y-88500D03*
G54D12*
X65500Y-92500D03*
G54D11*
X50500Y-92500D03*
G54D12*
X50500Y-96500D03*
G54D11*
X42000Y-72000D03*
G54D12*
X38000Y-72000D03*
G54D11*
X43000Y-72000D03*
G54D12*
X47000Y-72000D03*
G54D11*
X54000Y-66000D03*
G54D12*
X58000Y-66000D03*
G54D11*
X53000Y-66000D03*
G54D12*
X49000Y-66000D03*
G54D11*
X43000Y-66000D03*
G54D12*
X47000Y-66000D03*
G54D11*
X42000Y-66000D03*
G54D12*
X38000Y-66000D03*
G54D11*
X53000Y-84000D03*
G54D12*
X49000Y-84000D03*
G54D11*
X54000Y-84000D03*
G54D12*
X58000Y-84000D03*
G54D11*
X54000Y-72000D03*
G54D12*
X58000Y-72000D03*
G54D11*
X53000Y-72000D03*
G54D12*
X49000Y-72000D03*
G54D11*
X53000Y-78000D03*
G54D12*
X49000Y-78000D03*
G54D11*
X54000Y-78000D03*
G54D12*
X58000Y-78000D03*
G54D19*
X65852Y-84000D03*
G54D20*
X65852Y-83000D03*
X65852Y-82000D03*
X65852Y-81000D03*
X60147Y-79000D03*
X60147Y-80000D03*
X60147Y-81000D03*
X65852Y-80000D03*
X65852Y-79000D03*
X65852Y-78000D03*
X60147Y-78000D03*
X60147Y-77000D03*
X60147Y-76000D03*
X65852Y-77000D03*
X65852Y-76000D03*
X65852Y-75000D03*
X65852Y-74000D03*
X65852Y-73000D03*
X65852Y-72000D03*
X65852Y-71000D03*
X60147Y-75000D03*
X60147Y-74000D03*
X60147Y-73000D03*
X60147Y-72000D03*
X60147Y-71000D03*
X60147Y-70000D03*
X65852Y-70000D03*
X60147Y-82000D03*
X60147Y-83000D03*
X60147Y-84000D03*
G54D21*
X29527Y-61023D03*
X64960Y-61023D03*
X64960Y-96456D03*
X29527Y-96456D03*
G54D22*
X60250Y-92500D03*
G54D23*
X60250Y-94500D03*
X60250Y-96500D03*
G54D22*
X52750Y-92500D03*
G54D23*
X52750Y-94500D03*
X52750Y-96500D03*
G54D22*
X45250Y-92500D03*
G54D23*
X45250Y-94500D03*
X45250Y-96500D03*
G54D24*
X56750Y-64250D03*
G54D25*
X56750Y-61900D03*
X54900Y-63050D03*
G54D26*
X50250Y-63000D03*
G54D27*
X52250Y-63000D03*
G54D28*
X50250Y-61500D03*
X52250Y-61500D03*
X52250Y-60000D03*
X50250Y-60000D03*
G54D16*
X47500Y-92500D03*
X47500Y-96500D03*
X55000Y-92500D03*
X55000Y-96500D03*
X62500Y-88500D03*
X62500Y-92500D03*
G54D14*
X34645Y-60433D03*
X35629Y-62401D03*
X33661Y-62401D03*
X36614Y-62401D03*
X32677Y-62401D03*
G54D15*
X36614Y-60433D03*
X36614Y-59448D03*
X34645Y-62401D03*
X32677Y-60433D03*
X32677Y-59448D03*
G54D14*
X40551Y-60433D03*
X41535Y-62401D03*
X39566Y-62401D03*
X42519Y-62401D03*
X38582Y-62401D03*
G54D15*
X42519Y-60433D03*
X42519Y-59448D03*
X40551Y-62401D03*
X38582Y-60433D03*
X38582Y-59448D03*
G54D29*
X45250Y-59500D03*
X46250Y-62500D03*
X44250Y-62500D03*
X31000Y-66250D03*
X34000Y-66250D03*
X31000Y-63250D03*
M02*
